<?xml version="1.0" encoding="UTF-8"?>
<svg width="260px" height="260px" viewBox="0 0 260 260" version="1.1" xmlns="http://www.w3.org/2000/svg" xmlns:xlink="http://www.w3.org/1999/xlink">
    <!-- Generator: Sketch 43.1 (39012) - http://www.bohemiancoding.com/sketch -->
    <title>dog</title>
    <desc>Created with Sketch.</desc>
    <defs>
        <circle id="path-1" cx="121.827333" cy="122.005619" r="121.365524"></circle>
        <linearGradient x1="-5.72215446e-05%" y1="50.0007618%" x2="100.000029%" y2="50.0007618%" id="linearGradient-3">
            <stop stop-color="#D471AD" offset="0%"></stop>
            <stop stop-color="#C7158C" offset="50%"></stop>
            <stop stop-color="#9D248E" offset="100%"></stop>
        </linearGradient>
        <linearGradient x1="-0.000196038927%" y1="49.9999385%" x2="99.9998562%" y2="49.9999385%" id="linearGradient-4">
            <stop stop-color="#FCF3DD" offset="0%"></stop>
            <stop stop-color="#FAEDC9" offset="0%"></stop>
            <stop stop-color="#F6DD92" offset="0%"></stop>
            <stop stop-color="#F0C83B" offset="55.06%"></stop>
            <stop stop-color="#F0C731" offset="66.8%"></stop>
            <stop stop-color="#EFC41A" offset="100%"></stop>
        </linearGradient>
    </defs>
    <g id="Page-1" stroke="none" stroke-width="1" fill="none" fill-rule="evenodd">
        <g id="dog">
            <circle id="Oval" fill="#0FC5EF" fill-rule="nonzero" cx="130.494" cy="130.672286" r="121.365524"></circle>
            <g id="Clipped" transform="translate(8.666667, 8.666667)">
                <mask id="mask-2" fill="white">
                    <use xlink:href="#path-1"></use>
                </mask>
                <g id="SVGID_1_"></g>
                <g id="Group" mask="url(#mask-2)">
                    <g transform="translate(52.000000, 45.809524)">
                        <path d="M109.94781,202.28 L105.789048,198.491429 C102.775524,221.871619 109.467429,238.091905 110.599048,253.18181 C111.72819,268.266762 111.423619,277.318476 111.423619,277.318476 C111.423619,277.318476 96.4847619,278.275524 96.4847619,284.687619 C96.4847619,291.100952 124.250286,292.77981 126.891143,285.992571 C129.529524,279.204095 136.288286,257.608 138.346,224.51619 L109.94781,202.28 Z" id="Shape" fill="#D8C4A6" fill-rule="nonzero"></path>
                        <path d="M159.727905,107.758857 C185.570667,147.002762 256.722762,146.683333 305.538381,154.983524 C354.356476,163.277524 367.757619,245.912952 379.244667,254.848286 C379.244667,254.848286 375.094571,257.71819 370.628762,253.888762 C370.628762,253.888762 382.753429,281.329905 404.768,289.623905 C380.521143,310.04381 332.340667,290.58219 325.959524,277.499238 C324.683048,283.560952 325.959524,285.478762 325.959524,285.478762 C316.069619,281.648095 307.136762,265.058857 309.052095,251.974667 C302.349048,252.616 297.246857,263.781143 293.735619,267.926286 C293.099238,258.357048 285.124667,254.848286 275.550476,255.806571 C278.420381,263.143524 278.420381,274.307429 272.680571,282.286952 C272.35619,266.332857 240.771143,256.441714 232.475905,240.809524 C229.286571,246.232381 232.475905,251.337048 232.475905,251.337048 C223.540571,249.744857 213.01181,245.275333 207.269524,236.02181 C207.269524,236.02181 205.995524,251.017619 211.419619,258.674 C203.123143,258.037619 187.487238,247.18819 184.935524,235.382952 C184.935524,235.382952 180.14781,254.526381 188.127333,262.504667 C188.127333,262.504667 168.34381,258.993429 165.790857,234.108952 C164.836286,258.993429 155.579048,266.015905 150.157429,272.076381 C150.157429,268.565143 143.776286,257.71819 140.584476,254.847048 C142.49981,260.590571 142.819238,268.884571 138.671619,272.076381 C138.671619,272.076381 134.20581,262.504667 125.908095,255.488381 C125.908095,255.488381 125.269238,265.37581 120.803429,266.01219 C115.696286,247.506381 83.1529524,239.53181 83.1529524,239.53181 C83.1529524,239.53181 83.7918095,241.48181 94.0011429,250.41219 C66.5624762,246.55181 57.9490476,226.448857 52.0359048,215.600667 C52.8245714,222.940095 54.118381,228.682381 60.1825714,238.891714 C41.6767619,228.679905 36.2526667,212.089429 34.0179048,188.797143 C34.0179048,188.797143 32.1025714,202.517714 33.3790476,211.132381 C18.0625714,178.589048 28.274381,143.490286 43.4893333,128.686381 C18.473619,135.469905 -3.54590476,112.883333 0.830761905,100.023238 C46.9015238,79.2071429 20.1685714,17.0770476 10.9658095,8.43019048 C24.3112381,5.54542857 44.3262857,12.5802857 50.998381,34.3992381 C55.8108571,32.6460952 69.9078095,31.680381 75.5238095,34.5787619 C75.8840952,20.1524762 63.5390476,0.657428571 63.5390476,0.657428571 C83.1158095,0.108952381 104.330571,14.2517143 103.787048,44.1702857 C125.37819,55.5545714 133.885143,68.5112381 159.727905,107.758857 Z" id="Shape" fill="#5A489C" fill-rule="nonzero"></path>
                        <g id="Group" stroke-width="1" fill="none" fill-rule="evenodd" transform="translate(24.761905, 70.571429)">
                            <path d="M35.4206667,168.31781 C29.3564762,158.110952 28.0626667,152.36619 27.274,145.026762 C33.1834286,155.874952 41.7993333,175.976667 69.2392381,179.83581 C59.0299048,170.905429 58.3910476,168.955429 58.3910476,168.955429 C58.3910476,168.955429 69.2677143,171.622286 79.4312381,177.446286 C78.2240952,151.80781 87.6992381,138.383143 87.6992381,138.383143 C87.6992381,138.383143 97.5755238,141.52419 96.6779048,156.336762 C105.209619,147.808762 111.491714,129.858857 110.594095,112.349714 C110.594095,112.349714 115.977333,115.492 116.426762,126.715333 C126.752476,113.24981 125.852381,95.2838095 125.852381,95.2838095 C125.852381,95.2838095 140.216762,97.9902857 142.909619,113.699238 C150.787619,99.0649524 158.349905,82.2318095 153.539905,55.2079048 C146.082857,50.349619 139.748762,44.446381 134.966,37.1824762 C124.604381,21.4512381 117.030952,9.94066667 110.280857,1.066 C112.998476,11.4499048 113.407048,20.3307619 111.937429,25.7239048 C107.896286,13.156 101.61419,10.2761905 91.741619,5.97628571 C112.385619,31.5590476 92.6367619,58.9370476 92.6367619,58.9370476 C92.6367619,58.9370476 94.2178095,48.9641905 89.9451429,42.3094286 C82.3308571,50.9253333 79.624381,64.324 80.9664762,68.809619 C74.6868571,65.220381 72.3939048,57.6915238 75.5857143,50.8572381 C67.951619,57.59 62.1189524,73.2989524 68.8492381,84.5185714 C68.8492381,84.5185714 50.8968571,81.8269524 45.0617143,64.7709524 C45.0617143,64.7709524 37.882,82.276381 25.3128571,85.4174286 C25.9145714,76.7594286 18.4785714,72.1660952 10.0954286,69.7357143 C0.378857143,87.3637143 -3.52361905,114.762762 8.61838095,140.556 C7.34190476,131.942571 9.2572381,118.223238 9.2572381,118.223238 C11.4907619,141.518 16.9148571,158.106 35.4206667,168.31781 Z" id="Shape" fill="url(#linearGradient-3)" fill-rule="nonzero"></path>
                        </g>
                        <ellipse id="Oval" fill="#B8DAFF" fill-rule="nonzero" cx="50.921619" cy="72.8495238" rx="3.83933333" ry="3.83933333"></ellipse>
                        <ellipse id="Oval" fill="#B8DAFF" fill-rule="nonzero" cx="32.2065714" cy="73.4252381" rx="3.84057143" ry="3.84057143"></ellipse>
                        <path d="M4.86942857,115.334762 C8.4487619,111.112857 10.6104762,105.652857 10.6104762,99.6802857 C10.6104762,97.9469524 10.4247619,96.252 10.075619,94.6177143 C7.38647619,96.6271429 4.31847619,98.4434286 0.830761905,100.020762 C-0.689619048,104.496476 0.98552381,110.153333 4.86942857,115.334762 Z" id="Shape" fill="#FFFFFF" fill-rule="nonzero"></path>
                    </g>
                </g>
            </g>
            <path d="M219.843619,222.649143 C193.610857,247.762667 162.148381,259.725143 125.864762,259.076381 C90.4725714,257.492857 60.228381,244.23781 35.945619,218.4 C11.4808571,192.377714 -0.227809524,161.186381 0.969428571,125.484667 C2.15428571,90.2447619 16.0048571,60.4871429 41.2892381,35.9889524 C67.6284762,11.7718095 98.67,-0.242666667 134.46581,0.984285714 C169.784952,2.19638095 199.787714,15.899619 224.027143,41.5665714 C247.376381,66.2900952 258.652952,96.0254286 259.114762,125.145429 C259.114762,166.450762 244.047143,199.484381 219.843619,222.649143 Z M139.164381,244.703333 C141.103238,244.494095 143.043333,244.325714 144.972286,244.064476 C147.129048,243.771048 149.280857,243.398381 151.433905,243.045524 C152.123524,242.935333 152.814381,242.812762 153.491619,242.641905 C156.21419,241.958476 158.939238,241.250286 161.658095,240.563143 C161.885905,240.502476 162.119905,240.477714 162.352667,240.435619 C166.193238,239.249524 170.027619,238.03619 173.715905,236.421714 C175.64981,235.578571 177.594857,234.756476 179.500286,233.861333 C180.702476,233.302952 181.852667,232.635619 183.016476,231.99181 C183.244286,231.865524 183.422571,231.646381 183.623143,231.465619 C183.91781,231.391333 184.252095,231.377714 184.513333,231.232857 C190.244476,228.043524 195.752762,224.512476 200.920571,220.44781 C205.647619,216.718667 210.087429,212.681238 214.176857,208.272381 C217.615048,204.564286 220.82419,200.649429 223.747333,196.510476 C226.469905,192.657524 228.973333,188.673333 231.221714,184.531905 C233.454,180.421429 235.412667,176.178476 237.110095,171.816667 C238.967238,167.062381 240.524762,162.210286 241.712095,157.243048 C242.575048,153.630286 243.305524,149.991524 243.792095,146.298286 C244.222952,143.043333 244.541143,139.779714 244.764,136.495048 C245.03019,132.601238 245.002952,128.721048 244.885333,124.842095 C244.791238,121.720857 244.339333,118.613238 244.027333,115.503143 C243.512286,110.425714 242.448762,105.456 241.162381,100.529619 C239.703905,94.9408571 237.783619,89.5142857 235.50181,84.2065714 C232.650476,77.5889524 229.171429,71.3155238 225.110476,65.3677143 C222.789048,61.9654286 220.361143,58.6349524 217.595238,55.5706667 C215.392667,53.1229524 213.269333,50.5922857 210.923143,48.2844762 C207.685524,45.0951429 204.280762,42.0840952 200.675429,39.2835238 C196.699905,36.1957143 192.564667,33.3530476 188.238762,30.797619 C184.045333,28.3189524 179.726857,26.0606667 175.205333,24.2295238 C172.29581,23.049619 169.394952,21.8424762 166.424762,20.8371429 C162.342762,19.461619 158.184,18.3052381 153.95219,17.4620952 C151.500762,16.9718095 149.03819,16.5013333 146.566952,16.1026667 C144.94381,15.8451429 143.302095,15.73 141.670286,15.5492381 C138.940286,15.2421905 136.210286,15.0527619 133.460476,15.0626667 C131.818762,15.0651429 130.169619,14.82 128.532857,14.8942857 C125.292762,15.0267619 122.052667,15.2694286 118.81381,15.5418095 C116.62981,15.7213333 114.454476,15.9677143 112.289048,16.2958095 C110.046857,16.6325714 107.81581,17.0522857 105.595905,17.5289524 C100.991429,18.5157143 96.4624762,19.7748571 92.0226667,21.346 C88.3207619,22.6559048 84.7055238,24.1601905 81.1385714,25.8130476 C74.9505714,28.6705714 69.108,32.1199048 63.5687619,36.0706667 C60.6381905,38.1593333 57.8475238,40.4597143 55.0494286,42.7340952 C51.7845714,45.3873333 48.8057143,48.3562857 45.9333333,51.428 C44.1195238,53.3730476 42.4419048,55.4542857 40.7147619,57.4798095 C37.7037143,61.0145714 35.0640952,64.8217143 32.6015238,68.7477143 C31.122,71.1025714 29.7873333,73.5515238 28.4080952,75.9757143 C26.1374286,79.9772381 24.323619,84.1991429 22.6534286,88.478 C20.5548571,93.8538095 18.85,99.3571429 17.6787619,105.014 C17.095619,107.844286 16.562,110.690667 16.080381,113.543238 C15.8191429,115.123048 15.7250476,116.728857 15.5380952,118.323524 C15.2260952,121.048571 15.0428571,123.782286 15.0564762,126.533333 C15.0614286,127.97819 14.8410476,129.426762 14.8819048,130.871619 C14.9549524,133.331714 15.1307619,135.794286 15.300381,138.251905 C15.4427619,140.282381 15.5517143,142.320286 15.8302857,144.334667 C16.2388571,147.317238 16.7254286,150.289905 17.3011429,153.240286 C18.1306667,157.51419 19.2350476,161.727429 20.6526667,165.839143 C21.9080952,169.470476 23.3393333,173.039905 24.8213333,176.58581 C25.7907619,178.89981 26.9372381,181.144476 28.0960952,183.376762 C30.5264762,188.054286 33.3381905,192.486667 36.374,196.791524 C38.8501905,200.28419 41.560381,203.588667 44.3807619,206.79781 C46.0633333,208.711905 47.8288571,210.571524 49.6686667,212.332095 C55.2648571,217.686857 61.2473333,222.572381 67.8042857,226.71381 C70.5219048,228.428571 73.3422857,229.988571 76.1440952,231.56219 C77.9554286,232.579905 79.807619,233.530762 81.6697143,234.446952 C83.0378095,235.120476 84.460381,235.707333 85.8705714,236.299143 C86.1417143,236.41181 86.4747619,236.375905 86.7867619,236.408095 C87.1272381,236.647048 87.4342857,236.982571 87.8168571,237.111333 C91.2141905,238.264 94.6164762,239.410476 98.0385714,240.492571 C99.0661905,240.820667 100.159429,240.942 101.215524,241.15619 C102.818857,241.630381 104.402381,242.142952 106.010667,242.549048 C106.985048,242.79419 108.005238,242.887048 109.001905,243.044286 C110.017143,243.267143 111.028667,243.554381 112.061238,243.694286 C114.730571,244.05581 117.399905,244.44581 120.082857,244.661238 C122.581333,244.859333 125.095905,244.84819 127.600571,244.932381 C127.881619,244.943524 128.151524,244.963333 128.427619,244.975714 C128.756952,245.026476 129.092476,245.094571 129.42181,245.124286 C130.220381,245.202286 131.015238,245.308762 131.818762,245.308762 C132.21,245.308762 132.602476,245.097048 132.993714,244.983143 C134.358095,244.958381 135.716286,244.928667 137.07819,244.902667 C137.769048,244.840762 138.467333,244.773905 139.164381,244.703333 Z" id="circle_ring_1_" fill="url(#linearGradient-4)" fill-rule="nonzero"></path>
        </g>
    </g>
</svg>