<?xml version="1.0" encoding="UTF-8"?>
<svg width="441px" height="245px" viewBox="0 0 441 245" version="1.1" xmlns="http://www.w3.org/2000/svg" xmlns:xlink="http://www.w3.org/1999/xlink">
    <!-- Generator: Sketch 43.1 (39012) - http://www.bohemiancoding.com/sketch -->
    <title>fanvoice-medium</title>
    <desc>Created with Sketch.</desc>
    <defs>
        <linearGradient x1="0.0783181388%" y1="50.1045122%" x2="100.089714%" y2="50.1045122%" id="linearGradient-1">
            <stop stop-color="#C021F1" offset="0%"></stop>
            <stop stop-color="#D536E6" offset="20.38%"></stop>
            <stop stop-color="#EC4CDB" offset="49.36%"></stop>
            <stop stop-color="#FA5AD3" offset="76.57%"></stop>
            <stop stop-color="#FF5FD1" offset="100%"></stop>
        </linearGradient>
        <linearGradient x1="0.0245525971%" y1="49.8577995%" x2="100.036999%" y2="49.8577995%" id="linearGradient-2">
            <stop stop-color="#C4E4FF" offset="0%"></stop>
            <stop stop-color="#FFFFFF" offset="39.33%"></stop>
            <stop stop-color="#FAF9F9" offset="61.78%"></stop>
            <stop stop-color="#ECE8E8" offset="92.16%"></stop>
            <stop stop-color="#E8E2E3" offset="100%"></stop>
        </linearGradient>
        <linearGradient x1="-0.030236808%" y1="49.9882577%" x2="99.9816791%" y2="49.9882577%" id="linearGradient-3">
            <stop stop-color="#C021F1" offset="0%"></stop>
            <stop stop-color="#D536E6" offset="20.38%"></stop>
            <stop stop-color="#EC4CDB" offset="49.36%"></stop>
            <stop stop-color="#FA5AD3" offset="76.57%"></stop>
            <stop stop-color="#FF5FD1" offset="100%"></stop>
        </linearGradient>
        <linearGradient x1="0.043361857%" y1="49.9261614%" x2="99.9966858%" y2="49.9261614%" id="linearGradient-4">
            <stop stop-color="#C021F1" offset="0%"></stop>
            <stop stop-color="#D536E6" offset="20.38%"></stop>
            <stop stop-color="#EC4CDB" offset="49.36%"></stop>
            <stop stop-color="#FA5AD3" offset="76.57%"></stop>
            <stop stop-color="#FF5FD1" offset="100%"></stop>
        </linearGradient>
        <linearGradient x1="-0.0127564324%" y1="50.2532989%" x2="99.938408%" y2="50.2532989%" id="linearGradient-5">
            <stop stop-color="#C021F1" offset="0%"></stop>
            <stop stop-color="#D536E6" offset="20.38%"></stop>
            <stop stop-color="#EC4CDB" offset="49.36%"></stop>
            <stop stop-color="#FA5AD3" offset="76.57%"></stop>
            <stop stop-color="#FF5FD1" offset="100%"></stop>
        </linearGradient>
        <linearGradient x1="0.124500351%" y1="49.8744764%" x2="100.136174%" y2="49.8744764%" id="linearGradient-6">
            <stop stop-color="#C021F1" offset="0%"></stop>
            <stop stop-color="#D536E6" offset="20.38%"></stop>
            <stop stop-color="#EC4CDB" offset="49.36%"></stop>
            <stop stop-color="#FA5AD3" offset="76.57%"></stop>
            <stop stop-color="#FF5FD1" offset="100%"></stop>
        </linearGradient>
        <linearGradient x1="0.0380798524%" y1="50.1920438%" x2="100.033981%" y2="50.1920438%" id="linearGradient-7">
            <stop stop-color="#C021F1" offset="0%"></stop>
            <stop stop-color="#D536E6" offset="20.38%"></stop>
            <stop stop-color="#EC4CDB" offset="49.36%"></stop>
            <stop stop-color="#FA5AD3" offset="76.57%"></stop>
            <stop stop-color="#FF5FD1" offset="100%"></stop>
        </linearGradient>
        <linearGradient x1="0.101873037%" y1="50.136335%" x2="100.099047%" y2="50.136335%" id="linearGradient-8">
            <stop stop-color="#C021F1" offset="0%"></stop>
            <stop stop-color="#D536E6" offset="20.38%"></stop>
            <stop stop-color="#EC4CDB" offset="49.36%"></stop>
            <stop stop-color="#FA5AD3" offset="76.57%"></stop>
            <stop stop-color="#FF5FD1" offset="100%"></stop>
        </linearGradient>
        <linearGradient x1="-0.00966876159%" y1="50.1433976%" x2="99.9432904%" y2="50.1433976%" id="linearGradient-9">
            <stop stop-color="#C021F1" offset="0%"></stop>
            <stop stop-color="#D536E6" offset="20.38%"></stop>
            <stop stop-color="#EC4CDB" offset="49.36%"></stop>
            <stop stop-color="#FA5AD3" offset="76.57%"></stop>
            <stop stop-color="#FF5FD1" offset="100%"></stop>
        </linearGradient>
        <linearGradient x1="0.0321126641%" y1="49.9585703%" x2="100.042858%" y2="49.9585703%" id="linearGradient-10">
            <stop stop-color="#C021F1" offset="0%"></stop>
            <stop stop-color="#D536E6" offset="20.38%"></stop>
            <stop stop-color="#EC4CDB" offset="49.36%"></stop>
            <stop stop-color="#FA5AD3" offset="76.57%"></stop>
            <stop stop-color="#FF5FD1" offset="100%"></stop>
        </linearGradient>
        <linearGradient x1="-0.134542362%" y1="49.8918344%" x2="99.8791836%" y2="49.8918344%" id="linearGradient-11">
            <stop stop-color="#C021F1" offset="0%"></stop>
            <stop stop-color="#D536E6" offset="20.38%"></stop>
            <stop stop-color="#EC4CDB" offset="49.36%"></stop>
            <stop stop-color="#FA5AD3" offset="76.57%"></stop>
            <stop stop-color="#FF5FD1" offset="100%"></stop>
        </linearGradient>
        <linearGradient x1="0.0083949725%" y1="50.1387236%" x2="100.02016%" y2="50.1387236%" id="linearGradient-12">
            <stop stop-color="#C021F1" offset="0%"></stop>
            <stop stop-color="#D536E6" offset="20.38%"></stop>
            <stop stop-color="#EC4CDB" offset="49.36%"></stop>
            <stop stop-color="#FA5AD3" offset="76.57%"></stop>
            <stop stop-color="#FF5FD1" offset="100%"></stop>
        </linearGradient>
    </defs>
    <g id="Page-1" stroke="none" stroke-width="1" fill="none" fill-rule="evenodd">
        <g id="fanvoice-medium" transform="translate(-1.000000, 0.000000)" fill-rule="nonzero">
            <path d="M441.947134,128.256006 C441.947134,150.014695 424.301159,167.662165 402.540976,167.662165 L235.963384,167.659177 C214.200213,167.659177 199.101341,150.014695 199.101341,128.256006 L199.101341,106.515244 C199.101341,84.7535671 214.201707,67.1120732 235.963384,67.1120732 L402.537988,67.1120732 C424.298171,67.1120732 441.944146,84.755061 441.944146,106.515244 L441.944146,128.256006 L441.947134,128.256006 Z" id="Shape" fill="url(#linearGradient-1)"></path>
            <g id="Group">
                <circle id="Oval" fill="url(#linearGradient-2)" cx="145.255122" cy="114.683902" r="109.520976"></circle>
                <path d="M143.4475,0.576646341 C206.612683,0.515396341 257.928232,51.9997561 257.841585,115.202287 C257.753445,177.899878 206.923415,229.696463 143.01128,229.517195 C79.8132317,229.339421 28.6978659,178.095579 28.878628,114.71378 C29.0564024,51.0750305 80.8126524,0.418292683 143.4475,0.576646341 Z M115.066341,213.040945 C117.093567,213.81628 119.214909,214.231585 121.318323,214.709634 C121.660427,214.782835 121.996555,214.853049 122.338659,214.930732 C125.707409,215.658262 129.110518,216.173659 132.531555,216.532195 C134.537866,216.75628 136.556128,216.853384 138.566921,216.975884 C139.427409,217.025183 140.299848,216.877287 141.145396,217.211921 C141.462104,217.338902 141.841555,217.28064 142.173201,217.159634 C142.439116,217.067012 142.711006,217.028171 142.990366,217.031159 C145.178933,217.056555 147.36003,217.025183 149.547104,216.844421 C151.06939,216.721921 152.603628,216.70997 154.119939,216.547134 C157.339299,216.20503 160.53625,215.731463 163.704817,215.074146 C164.717683,214.863506 165.773872,214.79628 166.713537,214.27939 C168.25375,214.134482 169.71628,213.659421 171.187774,213.230671 C176.975152,211.629207 182.556372,209.486951 187.94936,206.853201 C188.22872,206.712774 188.539451,206.621646 188.721707,206.34378 C188.859146,206.312409 189.004055,206.300457 189.128049,206.245183 C191.303171,205.217378 193.402104,204.05064 195.459207,202.816677 C197.786707,201.42436 200.045488,199.92747 202.27439,198.375305 C205.296555,196.268902 208.137957,193.933933 210.936037,191.542195 C212.866159,189.885457 214.670793,188.088293 216.439573,186.264238 C217.62125,185.042226 218.814878,183.812744 219.930823,182.53247 C221.254421,181.014665 222.531707,179.453537 223.771646,177.875976 C225.268537,175.962287 226.744512,174.024695 228.066616,171.988506 C230.02064,168.982774 231.868598,165.924756 233.57314,162.765152 C235.002805,160.120945 236.277104,157.421463 237.43936,154.665213 C239.02439,150.918506 240.374878,147.076189 241.480366,143.159177 C242.11378,140.92878 242.69939,138.675976 243.161006,136.400762 C243.600213,134.258506 243.984146,132.11625 244.342683,129.971006 C244.551829,128.738537 244.70122,127.498598 244.798323,126.255671 C244.8775,125.18753 244.976098,124.105945 245.074695,123.040793 C245.249482,121.001616 245.370488,118.957957 245.415305,116.914299 C245.454146,114.867652 245.422774,112.818018 245.297287,110.765396 C245.132957,108.059939 244.935762,105.373902 244.636982,102.680396 C244.406921,100.542622 244.111128,98.413811 243.715244,96.3074085 C242.889116,91.9093598 241.795579,87.5695732 240.391311,83.3119512 C239.290305,79.9760671 238.0175,76.7044207 236.580366,73.5 C234.584512,69.043689 232.334695,64.7188415 229.693476,60.6195732 C227.827591,57.727378 225.895976,54.8844817 223.749238,52.1894817 C222.14628,50.1801829 220.535854,48.1708841 218.768567,46.3094817 C217.313506,44.7797256 215.91372,43.1887195 214.333171,41.7635366 C212.630122,40.2292988 210.99878,38.6114024 209.241951,37.1294512 C206.92939,35.1828963 204.560061,33.3140244 202.086159,31.5796037 C196.625945,27.7522256 190.869939,24.4581707 184.768841,21.758689 C181.967774,20.5247256 179.132348,19.3789024 176.228201,18.4093598 C171.682256,16.8840854 167.06311,15.6575915 162.342378,14.791128 C159.203689,14.2129878 156.053049,13.8051524 152.897927,13.4107622 C150.727287,13.137378 148.534238,13.1523171 146.354634,13.0044207 C143.014268,12.7758537 139.673902,13.1134756 136.33503,13.1881707 C136.266311,13.1881707 136.197591,13.1881707 136.127378,13.200122 C134.383994,13.5242988 132.610732,13.5422256 130.858384,13.7678049 C128.763933,14.0367073 126.675457,14.3489329 124.598933,14.7253963 C121.261555,15.3364024 117.958537,16.1311585 114.692866,17.0947256 C109.308841,18.68125 104.089146,20.6785976 99.0233232,23.0837805 C96.5120732,24.2803963 94.0919512,25.66375 91.6748171,27.0515854 C89.0201524,28.5783537 86.4745427,30.2754268 83.9812195,32.0501829 C81.8643598,33.5590244 79.8027744,35.1515244 77.8263415,36.8545732 C76.1935061,38.2588415 74.5472256,39.6541463 72.995061,41.1435671 C70.6092988,43.4292378 68.3131707,45.8015549 66.1589634,48.3232622 C64.7397561,49.9859756 63.3354878,51.6710976 62.0178659,53.41 C58.8179268,57.6228049 55.9585976,62.0686585 53.456311,66.7281402 C51.8428963,69.7368598 50.3400305,72.8068293 49.0418293,75.964939 C47.2566159,80.3092073 45.7925915,84.7670122 44.5780488,89.3039939 C43.9042988,91.8167378 43.3485671,94.3593598 42.906372,96.9199085 C42.5314024,99.1010061 42.232622,101.295549 41.9726829,103.500549 C41.726189,105.569604 41.4782012,107.647622 41.4438415,109.70622 C41.3721341,113.708384 41.2122866,117.713537 41.5663415,121.715701 C41.757561,123.925183 41.9368293,126.131677 42.1967683,128.338171 C42.4432622,130.404238 42.767439,132.453872 43.1618293,134.493049 C43.6578049,137.073018 44.2344512,139.64253 44.9485366,142.18814 C45.9539329,145.773506 47.0997561,149.309573 48.5070122,152.753018 C49.9814939,156.360793 51.5620427,159.91628 53.4488415,163.341799 C54.8217378,165.848567 56.2484146,168.312012 57.8095427,170.697774 C59.9010061,173.899207 62.1926524,176.942287 64.6023171,179.921128 C66.6414939,182.435366 68.9406098,184.710579 71.0724085,187.139665 C71.5937805,187.737226 72.2615549,188.201829 72.8486585,188.744116 C73.7928049,189.616555 74.6921341,190.536799 75.6616768,191.388323 C77.650061,193.124238 79.6728049,194.80936 81.7732317,196.407835 C84.6026829,198.556067 87.5307317,200.541463 90.558872,202.389421 C92.3709756,203.496402 94.2383537,204.494329 96.0937805,205.531098 C96.8721037,205.962835 97.6235366,206.517073 98.5721646,206.581311 C98.9127744,207.074299 99.4729878,207.214726 99.9704573,207.447774 C103.018018,208.886402 106.131311,210.180122 109.310335,211.288598 C111.200122,211.926494 113.083933,212.642073 115.066341,213.040945 Z" id="Shape_1_" fill="url(#linearGradient-3)"></path>
                <g id="Shape_10_" transform="translate(65.946438, 32.303298)">
                    <path d="M122.001037,129.318171 C121.34372,128.554787 120.580335,127.88253 119.867744,127.168445 C98.5900915,105.886311 77.3109451,84.6056707 56.0467378,63.3100915 C55.5821341,62.8439939 55.3072561,62.7409146 54.7963415,63.2548171 C49.536311,68.5507012 44.2553659,73.8241768 38.969939,79.0916768 C38.5471646,79.5099695 38.5695732,79.7833537 38.9684451,80.2106098 C39.719878,81.0217988 40.5131402,81.8285061 41.0912805,82.7607012 C43.2917988,86.2967683 42.6972256,91.048872 39.766189,93.9828963 C37.8465244,95.9085366 35.9358232,97.8431402 33.9892683,99.744878 C33.6068293,100.119848 33.1272866,100.496311 32.6253354,100.639726 C31.3570122,100.987805 30.0647866,101.350823 28.7621037,101.452409 C23.6454878,101.848293 18.527378,101.840823 13.4421341,100.980335 C13.367439,100.965396 13.2778049,101.038598 13.0716463,101.117774 L13.7678049,101.821402 C15.8667378,103.912866 18.0030183,105.96997 20.0347256,108.130152 C20.932561,109.087744 21.7676524,109.565793 23.1002134,109.119116 C23.8396951,108.866646 24.68375,108.930884 25.48,108.889055 C30.5966159,108.602226 35.4966159,109.326768 40.0978354,111.761829 C44.7901829,114.240213 48.1843293,117.901768 50.4475915,122.64939 C52.1028354,126.127195 52.8034756,129.839543 52.7930183,133.666921 C52.7870427,135.64186 52.506189,137.613811 52.383689,139.593232 C52.3612805,139.936829 52.3941463,140.404421 52.6032927,140.618049 C55.18625,143.25628 57.8020732,145.852683 60.6046341,148.650762 C59.9308841,143.14125 59.7202439,137.90064 60.2281707,132.655549 C60.4716768,130.136829 61.019939,127.725671 63.2772256,126.070427 C64.1929878,125.396677 64.9190244,124.462988 65.736189,123.651799 C65.9303963,123.459085 66.1320732,123.243963 66.3725915,123.121463 C68.7060671,121.924848 71.1919207,121.195823 73.7703963,120.776037 C80.1702744,119.742256 86.4730488,120.537012 92.686189,122.051829 C97.3247561,123.178232 101.939421,124.476433 106.467439,125.997226 C110.623476,127.388049 114.671951,129.116494 118.715945,130.806098 C120.786494,131.669573 120.764085,131.792073 122.014482,130.317591 C122.178811,130.106951 122.172835,129.51686 122.001037,129.318171" id="Shape_2_" fill="url(#linearGradient-4)"></path>
                    <path d="M47.5419512,138.48625 C47.743628,136.45753 47.9647256,134.392957 47.8302744,132.367226 C47.377622,125.495274 44.4675,119.990244 38.4022561,116.416829 C34.6002744,114.17747 30.4292988,113.629207 26.0745732,113.666555 C23.1749085,113.693445 20.9146341,114.615183 19.1637805,116.920274 C18.5721951,117.701585 17.7893902,118.329024 17.0200305,119.090915 C28.4573476,124.696037 36.8964024,133.06936 42.4791159,144.518628 C43.9296951,143.068049 45.3145427,141.760884 46.5978049,140.35811 C47.0579268,139.863628 47.4777134,139.145061 47.5419512,138.48625" id="Shape_3_" fill="url(#linearGradient-5)"></path>
                    <path d="M35.1410671,75.7991159 C39.719878,71.218811 44.1164329,66.8252439 48.5503354,62.3913415 C40.1247256,53.9672256 31.7319817,45.5729878 23.1136585,36.9561585 C22.3084451,51.5620427 27.3189939,64.0182012 35.1410671,75.7991159" id="Shape_4_" fill="url(#linearGradient-6)"></path>
                    <path d="M16.4269512,111.258384 C12.8998476,107.786555 9.41307927,104.268415 5.91286585,100.772683 C5.70073171,100.560549 5.46320122,100.373811 5.21521341,100.158689 L0.53929878,104.837591 C4.39506098,108.694848 8.16716463,112.456494 11.9168598,116.240549 C12.3530793,116.68125 12.6399085,116.636433 13.031311,116.231585 C14.1532317,115.093232 15.266189,113.936951 16.4389024,112.843415 C17.0753049,112.250335 17.0439329,111.866402 16.4269512,111.258384" id="Shape_5_" fill="url(#linearGradient-7)"></path>
                    <path d="M50.3400305,145.199848 C50.1264024,144.983232 49.8814024,144.797988 49.6005488,144.548506 C48.2575305,145.8975 46.9966768,147.236037 45.6417073,148.475976 C45.0531098,149.009299 45.0157622,149.3275 45.5744817,149.881738 C49.1150305,153.390915 52.6376524,156.919512 56.1468293,160.458567 C56.6517683,160.966494 56.9565244,160.890305 57.4136585,160.398811 C58.4817988,159.25 59.5633841,158.104177 60.7375915,157.073384 C61.387439,156.498232 61.3725,156.196463 60.7809146,155.616829 C57.2807012,152.164421 53.8178354,148.674665 50.3400305,145.199848" id="Shape_6_" fill="url(#linearGradient-8)"></path>
                    <path d="M137.75125,26.52125 C154.424695,45.4191159 160.875366,69.6636585 153.960091,97.2560366 C153.06375,100.832439 150.00872,102.587774 146.902896,101.485274 C144.173537,100.512744 142.817073,97.7803963 143.643201,94.7417988 C145.497134,87.9101829 146.348659,80.9620427 145.949787,73.897378 C145.053445,57.788628 139.352713,43.6204573 128.093171,32.0053659 C110.814695,14.1666768 89.7954878,8.06856707 65.5195732,12.9312195 C62.7528659,13.4854573 60.5060366,12.8281402 59.2362195,10.9039939 C57.9619207,8.97835366 57.8767683,6.52237805 59.4304268,4.75509146 C60.2804573,3.79003049 61.6070427,2.95493902 62.8544512,2.67408537 C83.1296951,-1.90323171 102.223262,1.15030488 120.073902,11.8092988 C125.822439,15.2392988 130.936067,19.4864634 137.75125,26.52125" id="Shape_7_" fill="url(#linearGradient-9)"></path>
                    <path d="M118.46497,39.0954268 C132.658537,54.2928963 137.809512,71.9807012 133.197835,92.3739634 C133.085793,92.8744207 132.942378,93.3629268 132.794482,93.8529268 C131.841372,96.9348476 129.04628,98.5422866 126.124207,97.6877744 C123.270854,96.8586585 121.742591,94.033689 122.565732,90.9906098 C123.738445,86.6523171 124.24936,82.2572561 124.216494,77.7621037 C124.02378,53.747622 103.575244,33.3737805 79.5473171,33.4499695 C75.8827744,33.4604268 72.198811,34.0191463 68.5671341,34.5778659 C65.2118293,35.0932622 62.5287805,33.6650915 61.8191768,30.6130488 C61.1260061,27.6297256 62.9515549,24.8480793 66.2246951,24.1713415 C85.2839024,20.2378963 102.166494,24.5567683 116.743994,37.5641768 C117.32064,38.067622 117.891311,38.5830183 118.46497,39.0954268" id="Shape_8_" fill="url(#linearGradient-10)"></path>
                    <path d="M105.448598,56.2977134 C111.678171,63.0441768 114.501646,73.0832012 111.764817,84.6131402 C110.987988,87.8578963 108.180945,89.655061 105.228994,88.9230488 C102.178445,88.1716159 100.635244,85.3122866 101.461372,81.9584756 C105.266341,66.5757622 92.3664939,53.1754573 76.7701524,56.3081707 C73.7972866,56.9027439 71.371189,55.7389939 70.3179878,53.2157927 C69.3305183,50.8419817 70.1402134,48.1798476 72.3810671,46.763628 C73.0518293,46.334878 73.8660061,46.0659756 74.6503049,45.8882012 C85.0284451,43.5382927 95.932439,46.7755793 105.448598,56.2977134" id="Shape_9_" fill="url(#linearGradient-11)"></path>
                </g>
                <path d="M28.7053354,205.481799 L248.574909,205.481799 C258.50936,205.481799 265.799604,213.882012 265.799604,223.816463 L265.799604,226.315762 C265.799604,236.251707 258.50936,244.105152 248.574909,244.105152 L1.22051829,244.105152 L28.7053354,205.481799 Z" id="Shape_11_" fill="url(#linearGradient-12)"></path>
            </g>
            <g id="Group_1_" transform="translate(77.435477, 216.124599)" fill="#FFFFFF">
                <polygon id="Shape_12_" points="3.34932927 3.90506098 3.34932927 8.04018293 6.37448171 8.04018293 6.37448171 10.442378 3.34932927 10.442378 3.34932927 18.3212195 0.345091463 18.3212195 0.345091463 1.50435976 7.57557927 1.50435976 7.57557927 3.90506098"></polygon>
                <path d="M18.2166463,14.4057012 L15.3095122,14.4057012 L14.7343598,18.3212195 L11.897439,18.3212195 L15.3573171,1.50585366 L18.360061,1.50585366 L21.8184451,18.3212195 L18.8171951,18.3212195 L18.2166463,14.4057012 Z M17.7371037,11.9766159 L16.8228354,5.95021341 L16.751128,5.95021341 L15.8129573,11.9766159 L17.7371037,11.9766159 L17.7371037,11.9766159 Z" id="Shape_13_"></path>
                <polygon id="Shape_14_" points="37.3849085 1.50734756 37.3849085 18.3242073 34.3821646 18.3242073 31.4287195 8.69003049 31.3809146 8.69003049 31.3809146 18.3242073 28.3766768 18.3242073 28.3766768 1.50734756 31.5482317 1.50734756 34.3358537 10.826311 34.3821646 10.826311 34.3821646 1.50734756"></polygon>
                <polygon id="Shape_15_" points="60.1071646 18.3212195 56.9146951 18.3212195 53.1903963 1.50435976 56.4067683 1.50435976 58.5490244 13.9485671 58.5953354 13.9485671 60.7809146 1.50435976 63.974878 1.50435976"></polygon>
                <path d="M78.6539634,5.03743902 L78.6539634,14.7448171 C78.6539634,16.4717683 77.3079573,18.5348476 74.3052134,18.5348476 C70.9872561,18.5348476 69.8115549,16.4717683 69.8115549,14.7448171 L69.8115549,5.03743902 C69.8115549,3.3075 70.98875,1.29073171 74.3052134,1.29073171 C77.3079573,1.29073171 78.6539634,3.3075 78.6539634,5.03743902 Z M75.6482317,5.05984756 C75.6482317,4.55789634 75.1671951,3.64213415 74.3022256,3.64213415 C73.2445427,3.64213415 72.8098171,4.55789634 72.8098171,5.01353659 L72.8098171,14.6925305 C72.8098171,15.2467683 73.2430488,16.1356402 74.3022256,16.1356402 C75.1642073,16.1356402 75.6482317,15.1974695 75.6482317,14.6925305 L75.6482317,5.05984756 Z" id="Shape_16_"></path>
                <polygon id="Shape_17_" points="88.643689 18.3212195 85.6409451 18.3212195 85.6409451 1.50435976 88.643689 1.50435976"></polygon>
                <path d="M101.568933,6.38195122 L101.568933,5.05984756 C101.568933,4.55789634 101.063994,3.69143293 100.199024,3.69143293 C99.1428354,3.69143293 98.6857012,4.55789634 98.6857012,5.05984756 L98.6857012,14.7627439 C98.6857012,15.2691768 99.1428354,16.1326524 100.199024,16.1326524 C101.063994,16.1326524 101.568933,15.2691768 101.568933,14.7627439 L101.568933,13.4421341 L104.594085,13.4421341 L104.594085,14.76125 C104.594085,16.4717683 103.224177,18.5333537 100.19753,18.5333537 C96.8855488,18.5333537 95.6351524,16.4702744 95.6351524,14.7881402 L95.6351524,5.05835366 C95.6351524,3.35082317 96.8855488,1.2832622 100.19753,1.2832622 C103.224177,1.2832622 104.594085,3.35231707 104.594085,5.05835366 L104.594085,6.38045732 L101.568933,6.38045732 L101.568933,6.38195122 Z" id="Shape_18_"></path>
                <polygon id="Shape_19_" points="114.392591 3.90506098 114.392591 8.04018293 117.44314 8.04018293 117.44314 10.442378 114.392591 10.442378 114.392591 15.9205183 118.98186 15.9205183 118.98186 18.3242073 111.389848 18.3242073 111.389848 1.50734756 118.647226 1.50734756 118.647226 3.90954268 114.392591 3.90954268"></polygon>
            </g>
            <g id="Group_2_" transform="translate(283.776023, 88.924517)" fill="#FFFFFF">
                <path d="M18.8216768,20.0780488 C18.4601524,21.2671951 17.7595122,22.9060061 15.2034451,24.0622866 C14.2876829,24.4581707 13.5586585,24.6404268 11.6748476,24.8555488 L11.6748476,28.5051524 L9.24128049,28.5051524 L9.24128049,24.8540549 C8.66314024,24.7928049 8.11637195,24.7345427 7.5352439,24.6434146 C5.04192073,24.2475305 3.1252439,23.3646341 2.33347561,22.9075 C1.91070122,22.6639939 1.45356707,22.3607317 1.02631098,22.0559756 L3.82439024,18.8933841 C4.40253049,19.1966463 6.07719512,20.2304268 8.0835061,20.5964329 C8.44652439,20.6576829 8.84539634,20.6890549 9.23978659,20.7189329 L9.23978659,16.0340549 C9.08442073,16.0041768 6.89734756,15.6097866 5.56030488,15.1212805 C4.46527439,14.6940244 1.90771341,13.5392378 1.90771341,10.1331402 C1.90771341,5.96216463 4.92240854,4.5339939 6.35057927,4.0454878 C7.62637195,3.62121951 8.75277439,3.59134146 9.20990854,3.52859756 L9.20990854,0.0582621951 L11.6748476,0.0582621951 L11.6748476,3.55698171 C12.25,3.61823171 12.8296341,3.67948171 13.3764024,3.8004878 C15.8383537,4.3472561 17.7580183,5.59615854 18.4556707,6.02042683 L15.7771037,9.12625 C13.5287805,7.99835366 13.1045122,7.93859756 11.6733537,7.63533537 L11.6733537,11.6793293 C12.7071341,11.9228354 13.7707927,12.1678354 14.7776829,12.5024695 C17.1171341,13.261372 18.0612805,14.3265244 18.5781707,15.3617988 C18.8201829,15.8204268 19.1846951,16.7018293 19.1846951,17.9477439 C19.1891768,18.7081402 19.0666768,19.3490244 18.8216768,20.0780488 Z M9.20841463,7.60545732 C8.3897561,7.72646341 7.6577439,7.87734756 7.11097561,8.61085366 C6.83759146,9.00375 6.77634146,9.40112805 6.77634146,9.58338415 C6.77634146,9.70588415 6.77634146,9.97926829 6.95710366,10.2825305 C7.26036585,10.8307927 7.98939024,11.0145427 9.23829268,11.255061 L9.20841463,7.60545732 Z M14.1054268,17.5518598 C13.6527744,16.7929573 12.4008841,16.6092073 11.6733537,16.491189 L11.6733537,20.6591768 C11.9168598,20.5979268 13.2568902,20.4739329 13.9276524,19.5641463 C14.286189,19.0771341 14.3250305,18.5916159 14.3250305,18.3496037 C14.3220427,17.9178659 14.2010366,17.7027439 14.1054268,17.5518598 Z" id="Shape_20_"></path>
                <path d="M26.2164939,24.5507927 L26.2164939,9.48926829 C25.7892378,9.6745122 25.5143598,9.79402439 25.0915854,9.88515244 C24.2370732,10.0987805 22.7491463,10.1301524 21.8647561,10.1301524 L21.896128,6.99594512 L22.9911585,6.90481707 C24.392439,6.78530488 25.2125915,6.29679878 25.7294817,5.96067073 C25.9431098,5.80978659 26.428628,5.50503049 26.8230183,4.95676829 C27.0993902,4.5922561 27.2203963,4.32036585 27.4325305,3.9229878 L31.146372,3.9229878 L31.146372,24.5522866 L26.2164939,24.5507927 L26.2164939,24.5507927 L26.2164939,24.5507927 Z" id="Shape_21_"></path>
                <polygon id="Shape_22_" points="36.0329268 24.5507927 36.0329268 19.4685366 40.8417988 19.4685366 40.8417988 24.5507927"></polygon>
                <path d="M56.5471951,20.9609451 C56.1244207,21.8139634 55.6045427,22.5429878 54.8740244,23.21375 C53.9328659,24.0652744 52.5330793,24.9466768 49.766372,24.9466768 C46.0525305,24.9466768 44.5660976,22.7879878 43.9550915,21.3867073 C43.5592073,20.472439 43.4680793,19.6507927 43.4068293,19.2862805 L48.2754573,18.7977744 C48.2754573,19.1025305 48.1828354,20.104939 48.9432317,20.7757012 C49.4003659,21.2014634 49.9172561,21.2313415 50.1592683,21.2313415 C50.3430183,21.2313415 50.7672866,21.1999695 51.1915549,20.9878354 C52.0132012,20.5321951 52.3179573,19.8644207 52.5629573,19.0397866 C52.9244817,17.916372 53.0469817,17.0021037 53.1366159,14.7492988 C52.9558537,15.0854268 52.8348476,15.2378049 52.7422256,15.3573171 C52.2253354,15.9982012 50.8569207,17.1529878 48.6668598,17.1529878 C46.2273171,17.1216159 44.192622,15.6307012 43.3679878,13.3510061 C43.2171037,12.8953659 42.9706098,12.0438415 42.9706098,10.826311 C42.9706098,9.94640244 43.0019817,7.9654878 44.4914024,6.11304878 C44.6751524,5.86655488 45.1920427,5.29289634 45.8926829,4.80588415 C46.6202134,4.31887195 48.173872,3.58984756 50.3654268,3.58984756 C51.006311,3.58984756 52.6794817,3.65109756 54.2301524,4.68637195 C56.2977134,6.05478659 57.75875,8.64073171 57.75875,13.7528659 C57.7677134,14.2070122 57.7960976,18.31375 56.5471951,20.9609451 Z M51.5291768,7.66521341 C50.9809146,7.20957317 50.4326524,7.17820122 50.1278963,7.17820122 C49.9157622,7.17820122 49.4302439,7.20957317 48.9118598,7.51432927 C48.1813415,7.90722561 47.6360671,8.7602439 47.6360671,10.4946646 C47.6360671,12.3202134 48.3053354,13.1119817 49.0971037,13.4466159 C49.2778659,13.5377439 49.735,13.688628 50.2518902,13.65875 C51.3469207,13.5989939 52.5300915,12.8087195 52.5300915,10.4946646 C52.5330793,8.91262195 52.0744512,8.12234756 51.5291768,7.66521341 Z" id="Shape_23_"></path>
                <path d="M73.2116768,20.9609451 C72.7859146,21.8139634 72.2675305,22.5429878 71.54,23.21375 C70.5943598,24.0652744 69.197561,24.9466768 66.426372,24.9466768 C62.7170122,24.9466768 61.2275915,22.7879878 60.6180793,21.3867073 C60.2207012,20.472439 60.1310671,19.6507927 60.0698171,19.2862805 L64.9384451,18.7977744 C64.9384451,19.1025305 64.8473171,20.104939 65.6062195,20.7757012 C66.0663415,21.2014634 66.5802439,21.2313415 66.82375,21.2313415 C67.0075,21.2313415 67.4317683,21.1999695 67.8560366,20.9878354 C68.6791768,20.5321951 68.982439,19.8644207 69.2259451,19.0397866 C69.5904573,17.916372 69.7114634,17.0021037 69.8025915,14.7492988 C69.6188415,15.0854268 69.4993293,15.2378049 69.4052134,15.3573171 C68.8883232,15.9982012 67.5214024,17.1529878 65.3283537,17.1529878 C62.8947866,17.1216159 60.8556098,15.6307012 60.0354573,13.3510061 C59.8815854,12.8953659 59.6380793,12.0438415 59.6380793,10.826311 C59.6380793,9.94640244 59.6679573,7.9654878 61.158872,6.11304878 C61.342622,5.86655488 61.8595122,5.29289634 62.5601524,4.80588415 C63.2876829,4.31887195 64.8413415,3.58984756 67.0328963,3.58984756 C67.6737805,3.58984756 69.3439634,3.65109756 70.897622,4.68637195 C72.9651829,6.05478659 74.4247256,8.64073171 74.4247256,13.7528659 C74.4277134,14.2070122 74.4605793,18.31375 73.2116768,20.9609451 Z M68.1951524,7.66521341 C67.6439024,7.20957317 67.0956402,7.17820122 66.793872,7.17820122 C66.5772561,7.17820122 66.0902439,7.20957317 65.5748476,7.51432927 C64.8458232,7.90871951 64.2990549,8.7602439 64.2990549,10.4961585 C64.2990549,12.3217073 64.9683232,13.1134756 65.7600915,13.4481098 C65.9438415,13.5392378 66.4009756,13.690122 66.914878,13.6602439 C68.0099085,13.6004878 69.1960671,12.8102134 69.1960671,10.4976524 C69.1960671,8.91262195 68.7419207,8.12234756 68.1951524,7.66521341 Z" id="Shape_24_"></path>
                <path d="M88.0535976,22.202378 C87.1871341,24.6225 84.4562805,24.7838415 83.8721646,24.7838415 C83.4165244,24.7838415 81.6835976,24.7106402 80.5093902,23.5379268 C79.5129573,22.54 79.4815854,21.2627134 79.4815854,19.9704878 L79.4815854,14.1890854 L82.0959146,14.1890854 L82.0959146,20.6472256 C82.0959146,21.5734451 82.1721037,21.9230183 82.579939,22.2457012 C83.0938415,22.6445732 83.7840244,22.6445732 83.958811,22.6445732 C84.4443293,22.6445732 84.8700915,22.586311 85.2346037,22.2621341 C85.7216159,21.836372 85.735061,21.2208841 85.735061,20.6322866 L85.735061,14.1890854 L88.3314634,14.1890854 L88.3314634,19.9719817 C88.3314634,20.733872 88.3060671,21.483811 88.0535976,22.202378 Z" id="Shape_25_"></path>
                <path d="M98.4407012,22.8044207 C97.5473476,24.4342683 95.6814634,24.652378 95.1825,24.7121341 C94.8418902,24.7554573 94.4923171,24.7853354 94.1427439,24.7853354 C92.088628,24.7853354 90.926372,24.0951524 90.236189,23.5364329 C89.9583232,23.3003963 89.8253659,23.1554878 89.4160366,22.6714634 L91.3805183,21.4375 C91.4253354,21.4808232 91.6314939,21.7168598 91.8361585,21.8782012 C92.5084146,22.4354268 93.5093293,22.7431707 94.3742988,22.7431707 C94.4923171,22.7431707 94.846372,22.7431707 95.1825,22.6415854 C95.2542073,22.6251524 96.2820122,22.3323476 96.2820122,21.5390854 C96.2820122,20.5844817 94.9031402,20.5546037 93.9814024,20.4231402 C93.4943902,20.3633841 92.9954268,20.2767378 92.5114024,20.1587195 C91.7644512,19.9675 91.0757622,19.6881402 90.558872,19.0711585 C90.4557927,18.9546341 90.251128,18.6887195 90.1181707,18.3077744 C90.0763415,18.161372 89.9852134,17.82375 89.9852134,17.3964939 C89.9852134,17.3083537 90.0016463,16.9707317 90.0449695,16.6779268 C90.1614939,16.016128 90.4423476,15.4902744 90.9383232,15.0182012 C91.4522256,14.5356707 92.4650915,13.933628 94.1666463,13.933628 C94.7985671,13.933628 96.1789329,14.0068293 97.5876829,14.9614329 C97.9372561,15.1974695 98.1434146,15.3752439 98.7290244,15.8861585 L96.8228049,17.2515854 C96.2491463,16.6928659 95.85625,16.3716768 95.0764329,16.1207012 C94.9449695,16.0908232 94.5475915,15.9742988 94.1083841,15.9742988 C93.0507012,15.9742988 92.5651829,16.5912805 92.5651829,17.0767988 C92.5651829,17.3561585 92.7130793,17.5458841 92.7877744,17.6175915 C93.1388415,17.9985366 93.7110061,17.9850915 94.6805488,18.1314939 C95.2676524,18.2196341 95.841311,18.3346646 96.4104878,18.4691159 C96.775,18.5423171 98.1150305,18.8067378 98.642378,20.0690854 C98.7155793,20.2603049 98.8470427,20.6532012 98.8470427,21.1835366 C98.8530183,21.483811 98.8216463,22.096311 98.4407012,22.8044207 Z" id="Shape_26_"></path>
                <path d="M108.460305,23.0374695 C108.122683,23.4199085 107.360793,24.0951524 106.098445,24.3879573 C105.52628,24.5194207 105.025823,24.5492988 104.440213,24.5492988 L100.375305,24.5492988 L100.375305,14.1860976 L103.678323,14.1860976 C104.0025,14.1860976 104.30875,14.1860976 104.615,14.1995427 C105.058689,14.2309146 106.788628,14.2727439 108.05247,15.3139939 C108.242195,15.4618902 108.548445,15.7397561 108.872622,16.2551524 C109.240122,16.8273171 109.650945,17.7490549 109.650945,19.278811 C109.647957,21.2313415 109.016037,22.3921037 108.460305,23.0374695 Z M106.464451,17.2232012 C106.316555,17.0469207 106.010305,16.6943598 105.451585,16.5195732 C104.969055,16.3567378 104.52686,16.3716768 104.02939,16.3716768 L102.98814,16.3716768 L102.98814,22.463811 L103.781402,22.463811 C104.544787,22.463811 105.424695,22.4189939 106.099939,21.9185366 C106.62878,21.5226524 107.056037,20.7757012 107.056037,19.3639634 C107.050061,18.5766768 106.963415,17.8581098 106.464451,17.2232012 Z" id="Shape_27_"></path>
                <path d="M10.7351829,46.8009756 C10.1600305,47.6778963 9.44146341,48.1365244 9.10384146,48.2933841 C8.7617378,48.4532317 8.14625,48.6758232 7.1692378,48.6758232 C6.07271341,48.6758232 5.5154878,48.3546341 4.61765244,47.7974085 L4.61765244,52.0804268 L1.51332317,52.0804268 L1.51332317,38.0706098 L4.23969512,38.0706098 L4.26060976,39.0879573 C4.41746951,38.89375 4.47871951,38.7921646 4.69832317,38.6323171 C5.07777439,38.312622 5.89344512,37.8345732 7.1692378,37.8345732 C7.76829268,37.8345732 9.16210366,37.9331707 10.2974695,39.1492073 C11.3536585,40.2636585 11.6927744,41.7978963 11.6927744,43.2514634 C11.6733537,45.0307012 11.1116463,46.2004268 10.7351829,46.8009756 Z M8.0267378,40.6625305 C7.78771341,40.3846646 7.46801829,40.1635671 7.11097561,40.0649695 C6.91079268,40.0052134 6.75094512,40.0052134 6.67176829,40.0052134 C5.53341463,40.0052134 4.47722561,41.0419817 4.47722561,43.2947866 C4.47722561,43.5128963 4.44286585,44.7692683 5.01503049,45.6267683 C5.17637195,45.844878 5.37506098,46.0435671 5.61707317,46.1810061 C5.7545122,46.2825915 6.11454268,46.4633537 6.59109756,46.4633537 C7.64579268,46.4633537 8.06707317,45.7044512 8.24484756,45.3832622 C8.48387195,44.9455488 8.74231707,44.330061 8.74231707,43.212622 C8.74231707,42.9153354 8.78115854,41.5603659 8.0267378,40.6625305 Z" id="Shape_28_"></path>
                <path d="M15.7068902,43.9102744 C15.7068902,44.007378 15.6874695,44.2493902 15.7457317,44.5257622 C15.9847561,45.7432927 16.8422561,46.5007012 18.0762195,46.5007012 C18.2539939,46.5007012 18.6543598,46.4767988 19.0711585,46.319939 C20.1064329,45.9614024 20.565061,44.9022256 20.7054878,44.6452744 L23.0165549,45.8389024 C22.60125,46.457378 22.3801524,46.7352439 22.141128,47.0160976 C20.6068902,48.7101829 18.6155183,48.847622 17.8371951,48.847622 C17.5189939,48.847622 16.7825,48.8267073 15.9623476,48.5697561 C13.6497866,47.851189 12.5741768,45.8209756 12.5741768,43.4695732 C12.5741768,42.8301829 12.6115244,40.8985671 13.9097256,39.4046646 C14.5506098,38.6875915 15.6411585,37.7509146 17.914878,37.7509146 C18.6140244,37.7509146 20.6845732,37.8330793 21.9812805,39.6421951 C23.1554878,41.2556098 23.1166463,43.4083232 23.1330793,43.9072866 L15.7068902,43.9102744 L15.7068902,43.9102744 Z M18.8321341,40.1456402 C18.4168293,39.9469512 18.0792073,39.9469512 17.9014329,39.9469512 C16.6853963,39.9469512 16.1266768,40.8432927 15.9668293,41.2018293 C15.8846646,41.3825915 15.8039939,41.6007012 15.7278049,41.9980793 L19.9734756,41.9980793 C19.9331402,41.6619512 19.8718902,40.6027744 18.8321341,40.1456402 Z" id="Shape_29_"></path>
                <path d="M29.4478049,40.8208841 C29.3492073,40.8447866 28.8726524,40.9015549 28.4902134,41.0419817 C27.6775305,41.3213415 27.5341159,41.8397256 27.5341159,42.615061 L27.5341159,48.4741463 L24.4865549,48.4741463 L24.4865549,38.0706098 L27.454939,38.0706098 L27.454939,39.1492073 C27.7178659,38.9310976 27.9942378,38.6517378 28.6694817,38.3708841 C29.5090549,38.0302744 30.0857012,37.9959146 30.4636585,37.9525915 L30.4636585,40.6625305 L29.4478049,40.8208841 Z" id="Shape_30_"></path>
                <path d="M48.9028963,48.4741463 L48.9028963,43.0154268 C48.9028963,41.9398171 48.9028963,41.3228354 48.6235366,40.883628 C48.3860061,40.4847561 47.9079573,40.2830793 47.46875,40.2830793 C47.2073171,40.2830793 46.4932317,40.3458232 46.1137805,41.0195732 C45.8777439,41.4393598 45.8956707,41.8770732 45.8956707,42.81375 L45.8956707,48.4726524 L42.8496037,48.4726524 L42.8496037,42.2983537 C42.8496037,41.3019207 42.7091768,40.8612195 42.2490549,40.5669207 C41.9906098,40.3831707 41.6739024,40.3054878 41.3527134,40.3054878 C41.2167683,40.3054878 40.8164024,40.3054878 40.4757927,40.5669207 C39.8378963,41.0419817 39.8184756,41.8606402 39.8184756,42.537378 L39.8184756,48.4741463 L36.7933232,48.4741463 L36.7933232,38.0750915 L39.8184756,38.0750915 L39.842378,39.1521951 C40.0216463,38.9325915 40.1396646,38.7951524 40.3592683,38.6158841 C40.7596341,38.2946951 41.5155488,37.7957317 42.7719207,37.7957317 C43.0079573,37.7957317 44.085061,37.8166463 44.8424695,38.2946951 C45.1621646,38.496372 45.4191159,38.7533232 45.6790549,39.0117683 C46.0614939,38.6935671 46.197439,38.5934756 46.4140549,38.4545427 C46.7740854,38.2364329 47.6300915,37.7987195 48.7654573,37.7987195 C49.1225,37.7987195 50.5805488,37.822622 51.435061,38.9325915 C51.9340244,39.552561 51.9534451,40.2083841 51.9534451,41.7037805 L51.9534451,48.480122 L48.9058841,48.480122 L48.9058841,48.4771341 L48.9058841,48.4771341 L48.9058841,48.4741463 L48.9028963,48.4741463 Z" id="Shape_31_"></path>
                <path d="M62.8141159,47.5778049 C62.2195427,48.0752744 61.0005183,48.7908537 59.0479878,48.7908537 C58.5116768,48.7908537 56.3978049,48.69375 54.9606707,47.2969512 C54.3451829,46.6993902 53.4667683,45.4235976 53.4667683,43.2499695 C53.4667683,42.6553963 53.5071037,40.9628049 54.6828049,39.5450915 C55.399878,38.6875915 56.8310366,37.6134756 59.4647866,37.7733232 C60.6808232,37.8300915 61.754939,38.112439 62.7334451,38.8877744 C64.0286585,39.9409756 64.6456402,41.5947256 64.6456402,43.2708841 C64.6456402,45.6267683 63.5326829,46.9802439 62.8141159,47.5778049 Z M60.4432927,40.5848476 C60.1639329,40.3846646 59.7456402,40.1859756 58.9284756,40.1859756 C58.7910366,40.1859756 58.2128963,40.2218293 57.773689,40.4832622 C57.2179573,40.8014634 56.5606402,41.696311 56.5606402,43.2320427 C56.5606402,44.2478963 56.90125,45.0067988 57.0969512,45.3235061 C57.3374695,45.6790549 57.9335366,46.3393598 59.091311,46.3393598 C60.7853963,46.3393598 61.541311,44.926128 61.541311,43.3754573 C61.5383232,41.802378 61.0408537,41.0016463 60.4432927,40.5848476 Z" id="Shape_32_"></path>
                <path d="M72.366128,48.4741463 L72.366128,42.5971341 C72.366128,41.8994817 72.3467073,41.3840854 72.2481098,41.1002439 C72.1076829,40.7476829 71.7282317,40.2651524 70.8498171,40.2651524 C70.712378,40.2651524 70.1954878,40.2651524 69.8175305,40.5848476 C69.3006402,40.9837195 69.2408841,41.6216159 69.2408841,42.8570732 L69.2408841,48.4741463 L66.1724085,48.4741463 L66.1724085,38.0945122 L69.2797256,38.0945122 L69.2797256,38.9878659 C69.3753354,38.8892683 69.4978354,38.7309146 69.7562805,38.5292378 C70.1327439,38.251372 70.9693293,37.8121646 72.2062805,37.8121646 C72.4482927,37.8121646 73.3237195,37.8360671 74.0602134,38.2319512 C75.3360061,38.9071951 75.4360976,40.0843902 75.4360976,41.3601829 L75.4360976,48.4741463 L72.366128,48.4741463 L72.366128,48.4741463 Z" id="Shape_33_"></path>
                <path d="M80.9964024,40.2068902 L80.9964024,44.8678659 C80.9964024,45.2861585 80.9754878,45.5251829 81.0785671,45.707439 C81.2533537,46.0465549 81.7328963,46.0465549 81.7941463,46.0465549 C82.1496951,46.0465549 82.5112195,46.0241463 82.8682622,46.0241463 L82.8682622,48.3979573 C82.6710671,48.4323171 81.9539939,48.556311 81.2533537,48.556311 C81.0352439,48.556311 80.8171341,48.556311 80.6169512,48.5339024 C80.3375915,48.5114939 79.4233232,48.5339024 78.7256707,47.8945122 C77.9264329,47.1968598 77.9667683,46.1436585 77.9667683,45.187561 L77.9667683,40.1859756 L76.4534451,40.1859756 L76.4534451,38.312622 L77.9667683,38.312622 L77.9667683,35.0633841 L80.9949085,35.0633841 L80.9949085,38.3290549 L83.025122,38.3290549 L83.025122,40.2053963 L80.9964024,40.2068902 L80.9964024,40.2068902 L80.9964024,40.2068902 Z" id="Shape_34_"></path>
                <path d="M90.5812805,48.4741463 L90.5812805,43.0333537 C90.5812805,42.2371037 90.618628,41.1824085 89.8657012,40.6625305 C89.6042683,40.4847561 89.3054878,40.4010976 89.0052134,40.4010976 C88.8483537,40.4010976 88.4494817,40.439939 88.0894512,40.6819512 C87.4321341,41.1405793 87.3544512,41.8606402 87.3544512,43.2932927 L87.3544512,48.4726524 L84.2874695,48.4726524 L84.2874695,34.4060671 L87.3544512,34.4060671 L87.3783537,39.1656402 C87.4366159,39.1103659 87.6935671,38.8130793 87.9759146,38.6114024 C88.9305183,37.8749085 89.8866159,37.7942378 90.3258232,37.7942378 C91.722622,37.7942378 92.5158841,38.4515549 92.855,38.8295122 C93.0746037,39.0655488 93.253872,39.3658232 93.3524695,39.6646037 C93.5332317,40.1262195 93.6333232,40.6431098 93.6333232,41.6365549 L93.6333232,48.4726524 L90.5812805,48.4726524 L90.5812805,48.4741463 Z" id="Shape_35_"></path>
            </g>
        </g>
    </g>
</svg>