<?xml version="1.0" encoding="UTF-8"?>
<svg width="431px" height="243px" viewBox="0 0 431 243" version="1.1" xmlns="http://www.w3.org/2000/svg" xmlns:xlink="http://www.w3.org/1999/xlink">
    <!-- Generator: Sketch 43.1 (39012) - http://www.bohemiancoding.com/sketch -->
    <title>free-small</title>
    <desc>Created with Sketch.</desc>
    <defs></defs>
    <g id="Page-1" stroke="none" stroke-width="1" fill="none" fill-rule="evenodd">
        <g id="free-small" fill-rule="nonzero">
            <path d="M430.0245,137.5155 C430.0245,159.726 412.0185,177.735 389.8005,177.735 L219.7665,177.735 C197.553,177.735 179.5455,159.7305 179.5455,137.5155 L179.5455,115.32 C179.5455,93.108 197.5545,75.099 219.7665,75.099 L389.799,75.099 C412.017,75.099 430.023,93.1065 430.023,115.32 L430.023,137.5155 L430.0245,137.5155 Z" id="Shape" fill="#7C7C7C"></path>
            <circle id="Oval" fill="#FFFFFF" cx="136.6905" cy="114.459" r="109.6125"></circle>
            <path d="M134.8755,0.2565 C198.093,0.1935 249.4515,51.7245 249.366,114.9795 C249.279,177.729 198.4065,229.5705 134.436,229.3905 C71.1855,229.2135 20.0295,177.9255 20.2095,114.489 C20.391,50.7975 72.1905,0.0975 134.8755,0.2565 Z M106.4745,212.901 C108.5025,213.672 110.625,214.092 112.7295,214.566 C113.0715,214.644 113.4135,214.71 113.7525,214.788 C117.1245,215.5155 120.531,216.0345 123.954,216.3945 C125.9625,216.6135 127.9845,216.714 129.9945,216.837 C130.86,216.8865 131.73,216.735 132.5745,217.074 C132.8895,217.2 133.266,217.1415 133.6005,217.0215 C133.8675,216.9285 134.1405,216.8895 134.424,216.8955 C136.611,216.9195 138.798,216.8865 140.982,216.7065 C142.5075,216.5835 144.0405,216.57 145.5585,216.4065 C148.779,216.063 151.983,215.5935 155.151,214.932 C156.1635,214.722 157.2255,214.6545 158.1615,214.137 C159.7035,213.9915 161.1675,213.513 162.6435,213.0855 C168.4365,211.4835 174.0225,209.3415 179.418,206.7015 C179.697,206.5665 180.006,206.472 180.1905,206.1945 C180.324,206.163 180.474,206.148 180.594,206.094 C182.772,205.0665 184.872,203.898 186.933,202.662 C189.264,201.2685 191.526,199.773 193.752,198.2205 C196.776,196.1085 199.623,193.773 202.422,191.379 C204.3585,189.7215 206.1585,187.9245 207.927,186.0945 C209.112,184.8675 210.303,183.645 211.4265,182.3565 C212.751,180.8385 214.026,179.277 215.2695,177.696 C216.768,175.7835 218.244,173.8455 219.5685,171.804 C221.5215,168.7965 223.371,165.732 225.078,162.573 C226.506,159.9315 227.781,157.224 228.9435,154.467 C230.5305,150.717 231.882,146.874 232.992,142.9485 C233.6235,140.7135 234.21,138.4635 234.672,136.185 C235.1115,134.043 235.497,131.898 235.8525,129.747 C236.061,128.52 236.217,127.2735 236.3085,126.0315 C236.388,124.962 236.4885,123.879 236.5785,122.814 C236.7585,120.7755 236.8785,118.728 236.922,116.685 C236.964,114.636 236.9265,112.587 236.8035,110.529 C236.637,107.826 236.4375,105.1365 236.1435,102.438 C235.914,100.302 235.6185,98.1675 235.2225,96.06 C234.3945,91.6575 233.298,87.315 231.8955,83.055 C230.7915,79.713 229.521,76.44 228.078,73.23 C226.08,68.775 223.833,64.4445 221.187,60.342 C219.321,57.447 217.389,54.6015 215.2395,51.906 C213.633,49.8945 212.0205,47.886 210.255,46.0245 C208.797,44.4915 207.3975,42.9 205.818,41.4705 C204.1095,39.9375 202.4775,38.3175 200.721,36.837 C198.408,34.887 196.035,33.0165 193.56,31.281 C188.097,27.45 182.3325,24.153 176.226,21.453 C173.424,20.2155 170.5845,19.0725 167.679,18.1035 C163.131,16.572 158.508,15.348 153.7815,14.4795 C150.642,13.902 147.489,13.494 144.327,13.098 C142.1535,12.8265 139.9635,12.84 137.7795,12.6915 C134.4375,12.4605 131.0955,12.7995 127.7535,12.8745 C127.6845,12.8775 127.614,12.8745 127.5465,12.888 C125.808,13.2165 124.032,13.2345 122.28,13.458 C120.1815,13.7265 118.0905,14.037 116.0145,14.418 C112.671,15.0285 109.3665,15.825 106.095,16.7865 C100.7085,18.3675 95.481,20.37 90.4125,22.776 C87.897,23.973 85.4775,25.3605 83.058,26.748 C80.4,28.275 77.85,29.973 75.3585,31.7475 C73.239,33.2595 71.175,34.851 69.1965,36.5565 C67.5645,37.9635 65.9205,39.354 64.362,40.848 C61.977,43.134 59.6775,45.5115 57.522,48.036 C56.0985,49.6995 54.696,51.387 53.373,53.1255 C50.1675,57.3435 47.3115,61.791 44.808,66.453 C43.1895,69.465 41.6895,72.537 40.3875,75.699 C38.601,80.0475 37.137,84.5055 35.922,89.0505 C35.2485,91.5645 34.692,94.1115 34.2495,96.672 C33.873,98.856 33.576,101.052 33.3135,103.257 C33.0705,105.327 32.817,107.4075 32.784,109.4655 C32.712,113.469 32.556,117.477 32.904,121.485 C33.0945,123.6975 33.276,125.9025 33.534,128.112 C33.7785,130.176 34.107,132.234 34.5015,134.268 C34.9995,136.854 35.574,139.425 36.2895,141.9705 C37.2975,145.56 38.445,149.0985 39.852,152.547 C41.328,156.1605 42.909,159.7155 44.7975,163.143 C46.176,165.6495 47.5995,168.1185 49.161,170.508 C51.255,173.709 53.5515,176.7555 55.959,179.736 C58.002,182.253 60.3015,184.53 62.4345,186.96 C62.9595,187.5555 63.6255,188.022 64.215,188.5665 C65.1615,189.438 66.057,190.356 67.032,191.2125 C69.024,192.9495 71.046,194.6385 73.1505,196.2375 C75.9765,198.3885 78.9105,200.3745 81.9435,202.2225 C83.7555,203.328 85.6275,204.3285 87.483,205.3665 C88.2585,205.797 89.013,206.3535 89.9595,206.4135 C90.3,206.907 90.8625,207.048 91.359,207.282 C94.41,208.7205 97.5255,210.0195 100.7085,211.128 C102.603,211.782 104.4915,212.4975 106.4745,212.901 Z" id="Shape_1_" fill="#D1D1D1"></path>
            <g id="Group" transform="translate(57.022388, 31.947761)" fill="#919191">
                <path d="M122.394,129.4875 C121.737,128.7195 120.975,128.049 120.258,127.3305 C98.964,106.035 77.6655,84.7305 56.382,63.4215 C55.914,62.9535 55.6395,62.853 55.1325,63.3675 C49.866,68.6685 44.5815,73.944 39.291,79.2195 C38.868,79.638 38.892,79.9095 39.291,80.3385 C40.0455,81.1515 40.839,81.9585 41.4195,82.8915 C43.623,86.43 43.0275,91.1835 40.092,94.122 C38.1675,96.0495 36.2535,97.986 34.311,99.8895 C33.9255,100.2645 33.444,100.6455 32.9415,100.782 C31.6755,101.133 30.3795,101.4975 29.0775,101.595 C23.955,101.991 18.8325,101.9865 13.743,101.124 C13.671,101.112 13.5795,101.184 13.3695,101.262 L14.0685,101.9625 C16.167,104.061 18.3105,106.1145 20.34,108.276 C21.2385,109.233 22.0725,109.713 23.4075,109.2675 C24.144,109.0185 24.9915,109.08 25.791,109.0335 C30.912,108.7515 35.817,109.473 40.4235,111.9105 C45.117,114.393 48.5145,118.0575 50.7795,122.808 C52.4355,126.2895 53.1375,130.0065 53.127,133.836 C53.1195,135.81 52.836,137.7885 52.7175,139.7655 C52.6965,140.1105 52.7265,140.577 52.9365,140.793 C55.518,143.4315 58.14,146.0295 60.942,148.8345 C60.2685,143.316 60.0555,138.072 60.5655,132.822 C60.807,130.2975 61.356,127.8915 63.615,126.234 C64.5315,125.5575 65.256,124.62 66.0765,123.813 C66.2715,123.6195 66.471,123.4035 66.711,123.282 C69.048,122.085 71.538,121.353 74.118,120.936 C80.52,119.901 86.8305,120.6915 93.0525,122.208 C97.6965,123.3345 102.315,124.6335 106.8435,126.1545 C111.0045,127.5495 115.0515,129.279 119.1045,130.971 C121.176,131.8335 121.149,131.958 122.406,130.476 C122.571,130.281 122.5635,129.69 122.394,129.4875" id="Shape_2_"></path>
                <path d="M47.871,138.666 C48.0765,136.6335 48.294,134.568 48.162,132.537 C47.709,125.661 44.7915,120.1515 38.724,116.577 C34.92,114.3345 30.7485,113.787 26.3865,113.823 C23.4825,113.847 21.2235,114.7725 19.467,117.081 C18.876,117.8625 18.09,118.4895 17.3235,119.2545 C28.7715,124.863 37.215,133.245 42.801,144.7005 C44.2545,143.2485 45.6435,141.9405 46.923,140.538 C47.3865,140.037 47.8065,139.323 47.871,138.666" id="Shape_3_"></path>
                <path d="M35.463,75.9255 C40.047,71.3385 44.4465,66.945 48.8805,62.505 C40.4475,54.0705 32.049,45.6735 23.4255,37.047 C22.6185,51.6675 27.6345,64.1325 35.463,75.9255" id="Shape_4_"></path>
                <path d="M16.731,111.4125 C13.2015,107.9385 9.7155,104.418 6.2085,100.92 C5.997,100.7085 5.757,100.521 5.5095,100.3065 L0.8295,104.988 C4.686,108.843 8.4675,112.6095 12.222,116.394 C12.66,116.835 12.945,116.793 13.338,116.388 C14.4615,115.245 15.579,114.0915 16.7505,113.001 C17.382,112.404 17.349,112.02 16.731,111.4125" id="Shape_5_"></path>
                <path d="M50.673,145.383 C50.4555,145.1685 50.2185,144.984 49.9365,144.735 C48.588,146.082 47.3295,147.4245 45.9735,148.6635 C45.384,149.1975 45.3495,149.5185 45.9075,150.0705 C49.452,153.5835 52.98,157.113 56.4915,160.659 C56.9925,161.166 57.3015,161.0925 57.7575,160.5975 C58.8285,159.4455 59.91,158.301 61.0815,157.2675 C61.734,156.6975 61.7145,156.39 61.125,155.808 C57.6195,152.352 54.156,148.8615 50.673,145.383" id="Shape_6_"></path>
                <path d="M138.1575,26.6055 C154.8435,45.519 161.2995,69.7845 154.377,97.401 C153.4815,100.9785 150.423,102.7365 147.3135,101.628 C144.582,100.659 143.226,97.923 144.051,94.8765 C145.9095,88.0455 146.76,81.0885 146.3625,74.0205 C145.4625,57.897 139.7625,43.7145 128.493,32.094 C111.195,14.241 90.159,8.1405 65.8665,13.005 C63.0945,13.5615 60.8475,12.903 59.5755,10.977 C58.3035,9.048 58.218,6.5925 59.769,4.821 C60.618,3.8565 61.944,3.0195 63.1965,2.7375 C83.484,-1.8435 102.597,1.2135 120.465,11.88 C126.222,15.3165 131.334,19.5645 138.1575,26.6055" id="Shape_7_"></path>
                <path d="M118.8555,39.189 C133.065,54.399 138.219,72.105 133.602,92.5125 C133.4895,93.009 133.3455,93.5055 133.1955,93.996 C132.246,97.08 129.4455,98.688 126.5235,97.8345 C123.6675,97.0035 122.139,94.1775 122.961,91.1265 C124.131,86.7855 124.644,82.3845 124.6125,77.889 C124.422,53.85 103.956,33.465 79.908,33.537 C76.242,33.552 72.558,34.107 68.9175,34.6665 C65.559,35.178 62.8725,33.753 62.1645,30.699 C61.4685,27.7125 63.2985,24.927 66.5775,24.2475 C85.6455,20.3145 102.546,24.639 117.138,37.6545 C117.708,38.1615 118.284,38.6745 118.8555,39.189" id="Shape_8_"></path>
                <path d="M105.8235,56.4075 C112.0605,63.159 114.882,73.209 112.1445,84.7455 C111.372,87.9945 108.5595,89.793 105.606,89.058 C102.549,88.3035 101.0055,85.4445 101.8335,82.089 C105.639,66.6915 92.727,53.28 77.1195,56.418 C74.1465,57.015 71.715,55.8495 70.662,53.3235 C69.6735,50.9475 70.4835,48.2835 72.726,46.8645 C73.3995,46.4385 74.2125,46.1655 74.9985,45.9885 C85.389,43.6365 96.303,46.878 105.8235,56.4075" id="Shape_9_"></path>
            </g>
            <g id="Group_1_" transform="translate(280.029851, 116.126865)" fill="#FFFFFF">
                <polygon id="Shape_10_" points="5.2815 4.833 5.2815 8.751 14.142 8.751 14.142 12.327 5.2815 12.327 5.2815 19.845 0.6555 19.845 0.6555 1.2885 14.9025 1.2885 14.9025 4.833"></polygon>
                <path d="M34.254,19.845 L30.5475,13.221 L27.6555,13.221 L27.6555,19.8435 L22.977,19.8435 L22.977,1.2885 L31.335,1.2885 C31.863,1.2885 32.3835,1.2885 32.9145,1.314 C33.756,1.3665 36.696,1.554 38.1435,4.2075 C38.4075,4.707 38.8785,5.7825 38.8785,7.3095 C38.8785,9.387 38.061,10.4895 37.431,11.0925 C37.167,11.3565 36.8535,11.592 36.564,11.7765 C36.2205,11.964 35.829,12.144 35.067,12.432 L39.3495,19.845 L34.254,19.845 L34.254,19.845 Z M31.5735,4.731 L27.633,4.731 L27.633,9.7785 L31.4685,9.7785 C31.656,9.7785 32.181,9.7785 32.7075,9.5925 C34.2045,9.093 34.257,7.6725 34.257,7.1985 C34.254,4.782 32.388,4.731 31.5735,4.731 Z" id="Shape_11_"></path>
                <polygon id="Shape_12_" points="47.5335 19.845 47.5335 1.2885 61.254 1.2885 61.254 4.8615 52.1595 4.8615 52.1595 8.253 60.651 8.253 60.651 11.775 52.1595 11.775 52.1595 16.1925 62.094 16.1925 62.094 19.845"></polygon>
                <polygon id="Shape_13_" points="70.5615 19.845 70.5615 1.2885 84.2835 1.2885 84.2835 4.8615 75.1875 4.8615 75.1875 8.253 83.6805 8.253 83.6805 11.775 75.1875 11.775 75.1875 16.1925 85.122 16.1925 85.122 19.845"></polygon>
            </g>
            <path d="M27.963,204.5955 L231.7395,204.5955 C241.602,204.5955 249.888,212.94 249.888,222.81 L249.888,225.288 C249.888,235.158 241.6065,242.9565 231.7395,242.9565 L0.6645,242.9565 L27.963,204.5955 Z" id="Shape_14_" fill="#D1D1D1"></path>
            <g id="Group_2_" transform="translate(89.261195, 212.261194)" fill="#7C7C7C">
                <polygon id="Shape_15_" points="8.493 4.011 8.493 22.0635 4.5795 22.0635 4.5795 4.011 0.6945 4.011 0.6945 0.9645 12.408 0.9645 12.408 4.011"></polygon>
                <path d="M28.707,22.0635 L25.7175,12.7095 L24.255,12.7095 L24.255,22.0635 L20.3715,22.0635 L20.3715,0.9645 L28.1415,0.9645 C30.7125,0.9645 31.9365,2.16 31.9365,4.731 L31.9365,8.556 C31.9365,10.6485 31.311,11.604 29.4585,12.171 L32.745,22.0635 L28.707,22.0635 Z M28.0815,5.7165 C28.0815,4.401 27.63,3.9855 26.289,3.9855 L24.2565,3.9855 L24.2565,9.6015 L26.289,9.6015 C27.633,9.6015 28.0815,9.123 28.0815,7.6005 L28.0815,5.7165 Z" id="Shape_16_"></path>
                <polygon id="Shape_17_" points="40.9095 22.0635 40.9095 0.9645 44.7645 0.9645 44.7645 22.0635"></polygon>
                <path d="M61.377,22.0635 L60.873,18.627 L57.285,18.627 L56.718,22.0635 L52.8345,22.0635 L56.928,0.966 L61.38,0.966 L65.3235,22.0635 L61.377,22.0635 Z M59.166,6.3135 L57.7605,15.369 L60.45,15.369 L59.166,6.3135 Z" id="Shape_18_"></path>
                <polygon id="Shape_19_" points="73.404 22.0635 73.404 0.9645 77.289 0.9645 77.289 18.8655 82.998 18.8655 82.998 22.0635"></polygon>
            </g>
        </g>
    </g>
</svg>