<?xml version="1.0" encoding="UTF-8"?>
<svg width="260px" height="260px" viewBox="0 0 260 260" version="1.1" xmlns="http://www.w3.org/2000/svg" xmlns:xlink="http://www.w3.org/1999/xlink">
    <!-- Generator: Sketch 43.1 (39012) - http://www.bohemiancoding.com/sketch -->
    <title>obama</title>
    <desc>Created with Sketch.</desc>
    <defs></defs>
    <g id="Page-1" stroke="none" stroke-width="1" fill="none" fill-rule="evenodd">
        <g id="obama" fill-rule="nonzero">
            <path d="M208.706952,220.753619 C208.887714,220.931905 222.173714,204.712857 222.444857,204.719048 C225.416286,201.071619 228.042286,197.187714 230.485048,193.18 C237.292095,182.011143 242.133048,170.043714 244.989333,157.278952 C245.884476,153.257619 246.562952,149.204095 247.034667,145.104762 C247.666095,139.662095 247.950857,134.197143 247.828286,128.722286 C247.726762,124.39019 247.394952,120.07419 246.846476,115.768095 C245.782952,107.423333 243.835429,99.2927619 241.023714,91.3689524 C236.453905,78.4890476 229.856095,66.7395238 221.234,56.134 C209.649143,41.8921905 195.541048,30.8694286 178.918381,23.0805714 C169.833238,18.8227619 160.354381,15.795619 150.488,13.9842857 C145.872381,13.1349524 141.224571,12.5666667 136.54581,12.2422857 C133.953238,12.0590476 131.356952,11.973619 128.774286,11.9748571 C125.151619,11.9822857 121.528952,12.1221905 117.912476,12.454 C110.965524,13.0891429 104.128762,14.2851429 97.3922857,16.1088571 C82.5673333,20.1202857 69.0386667,26.7812381 56.7889524,36.0273333 C45.9358095,44.2198095 36.7466667,53.9945714 29.2202857,65.3132381 C21.4512381,76.9946667 15.9318095,89.6702857 12.649619,103.309143 C11.5279048,107.968095 10.7107619,112.687714 10.1610476,117.459333 C9.49742857,123.261048 9.20895238,129.073905 9.40952381,134.90781 C9.91961905,149.89619 13.0346667,164.327429 18.9614286,178.126 C22.4602857,186.294952 26.8344762,193.964952 32.0357143,201.162 C32.2845714,201.50619 42.3973333,214.927143 42.666,215.254 L208.706952,220.753619 Z" id="Shape" fill="#BDD1EC"></path>
            <path d="M159.536,71.2709524 C159.536,71.2709524 164.665429,58.0654286 139.459048,51.1927619 C129.957905,48.6001905 115.239429,44.8648571 97.1248571,68.4332381 C75.6092381,96.4315238 109.564,118.953714 109.564,118.953714" id="Shape" fill="#513630"></path>
            <path d="M162.731524,164.610952 C162.731524,164.610952 138.095905,154.827524 94.5607619,162.925905 L96.7707619,168.16181 L128.604667,176.594476 L153.88781,174.46619 L160.847143,170.127905 L162.731524,164.610952 Z" id="Shape" fill="#1C5470"></path>
            <g id="Group">
                <g id="kFKyIi_2_" transform="translate(37.142857, 60.666667)">
                    <g id="Group">
                        <path d="M67.1419048,184.451429 C63.9302857,183.82 60.7706667,182.975619 57.6110476,182.095333 C56.2788571,181.727619 55.0085714,181.137048 53.6268571,180.952571 C53.3569524,180.749524 53.0808571,180.561333 52.7218095,180.625714 L52.6574286,180.596 L52.5868571,180.607143 C52.3169524,180.347143 52.0099048,180.197333 51.6347619,180.269143 L51.6285714,180.266667 C50.8621905,179.827143 50.0698095,179.473048 49.1845714,179.397524 L49.1944762,179.4 C49.0929524,179.206857 48.932,179.174667 48.7425714,179.216762 L48.7487619,179.221714 C48.5395238,178.856476 48.1879048,178.849048 47.84,178.845333 C47.2184762,178.602667 46.5635238,178.487524 45.9395238,178.23 C40.911619,176.138857 36.0137143,173.767905 31.2730476,171.028 C26.195619,168.091238 21.332381,164.797905 16.7192381,161.126952 C12.753619,157.96981 8.94647619,154.617048 5.408,150.953524 C3.86780952,149.368762 2.27809524,147.824857 0.917428571,146.059333 C2.61980952,144.158857 4.43485714,142.371048 6.34152381,140.687238 C9.45657143,137.925048 12.6892381,135.328762 16.0568571,132.904571 C18.3720952,131.233143 20.6885714,129.555524 23.048381,127.958381 C25.3277143,126.412 27.664,124.963429 29.9804762,123.483905 C31.3584762,122.601143 32.7055238,121.652762 34.1479048,120.897524 C35.7314286,120.066762 37.0549524,118.862095 38.5270476,117.885238 C39.5942857,117.177048 40.6813333,116.484952 41.7547619,115.792857 C43.3902857,114.739238 45.097619,113.763619 46.8408571,112.920476 C47.6245714,112.536667 48.2968571,111.84581 49.2489524,111.842095 C49.8618095,111.853238 50.2926667,112.310095 50.7371429,112.633238 C53.4646667,114.595619 56.4125714,116.145714 59.423619,117.536095 C64.4032381,119.835238 69.5574286,121.605714 74.8205714,123.048095 C79.4832381,124.328286 84.2090476,125.269238 88.9559048,126.130952 C89.4028571,126.21019 89.8621905,126.254762 90.3227619,126.294381 C90.6954286,126.324095 91.0173333,126.207714 91.246381,125.874667 C91.5781905,125.398 91.9941905,124.998095 92.2331429,124.443429 C92.4287619,124.011333 92.7122857,123.62381 93.2174286,123.516095 C95.5054286,124.933714 97.7921905,126.346381 100.072762,127.77019 C102.478381,129.275714 104.865429,130.815905 107.285905,132.286762 C107.864095,132.644571 108.16619,133.077905 108.29,133.730381 C108.500476,134.847143 108.75181,135.96019 108.98581,137.075714 C109.317619,138.814 109.638286,140.551048 109.982476,142.286857 C110.5,144.889333 111.034857,147.49181 111.566,150.09181 C112.240762,153.413619 112.914286,156.740381 113.594,160.06219 C113.920857,161.64819 114.142476,163.257714 114.599333,164.817714 C114.807333,166.690952 115.243143,168.520857 115.651714,170.350762 C116.608762,174.607333 117.211714,178.902286 117.528667,183.250476 C116.338857,183.849714 115.026476,183.989619 113.758667,184.275619 C110.784762,184.950381 107.77,185.383714 104.754,185.823238 C102.270381,186.188476 99.7731429,186.455905 97.2548571,186.521524 C95.9127619,186.559905 94.5780952,186.839714 93.223619,186.678762 L67.1419048,184.451429 Z M110.767429,170.420095 C110.88381,170.456 110.985333,170.37181 110.950667,170.251714 C110.902381,170.056095 110.89,169.798571 110.615143,169.796095 C110.511143,169.792381 110.460381,169.91619 110.460381,170.032571 C110.482667,170.226952 110.591619,170.366857 110.767429,170.420095 Z" id="Shape" fill="#FFFFFF"></path>
                        <path d="M183.147714,147.039905 C182.876571,147.008952 182.711905,146.826952 182.548476,146.637524 C178.776,142.189048 174.399333,138.389333 169.867905,134.754286 C166.646381,132.16419 163.291143,129.748667 159.844286,127.464381 C158.07381,126.293143 156.309524,125.100857 154.500667,123.989048 C152.331524,122.656857 150.205714,121.262762 147.911524,120.144762 C145.082476,118.768 142.301714,117.287238 139.438,115.988476 C138.255619,115.449905 137.141333,114.721905 135.847524,114.429714 C135.538,115.522952 135.07619,116.559238 134.449714,117.506381 C133.211619,119.380857 131.531524,120.85419 129.87,122.339905 C129.36981,122.786857 128.713619,123.020857 128.218381,123.488857 C127.551048,124.125238 126.726476,124.55981 125.952667,125.043905 C123.788476,126.388476 121.573524,127.636476 119.271905,128.733429 C118.224476,129.229905 118.25419,129.25219 117.477905,128.339714 C116.650857,127.371524 115.942667,126.30181 114.996762,125.428952 C113.816857,127.052095 112.654286,128.687619 111.457048,130.295905 C110.175619,132.018095 109.01181,133.830667 107.537238,135.408 C107.534762,135.484762 107.498857,135.54419 107.430762,135.582571 C107.514952,135.94781 107.595429,136.315524 107.682095,136.680762 C107.768762,136.737714 107.817048,136.815714 107.783619,136.924667 C107.800952,137.001429 107.814571,137.079429 107.826952,137.157429 C108.004,137.313429 108.01019,137.536286 108.070857,137.740571 C109.97381,144.006571 111.55981,150.354286 112.957619,156.751524 C113.434286,158.925619 113.959238,161.08981 114.246476,163.302286 C114.669905,164.54781 114.814762,165.854 115.046286,167.140381 C115.934,172.092762 116.731333,177.062476 117.307048,182.066857 C118.456,182.191905 119.565333,181.868762 120.663524,181.647143 C123.37,181.102381 126.070286,180.506857 128.730952,179.759048 C132.452667,178.706667 136.195429,177.698857 139.745048,176.153714 C147.480667,172.783619 155.091238,169.153524 162.159524,164.493333 C167.116857,161.226 171.830286,157.630571 176.278762,153.703333 C178.667048,151.588667 180.994667,149.400952 183.147714,147.039905 Z" id="Shape" fill="#FFFFFF"></path>
                        <path d="M79.5253333,187.359714 C77.5468571,187.174 75.5993333,186.859524 73.644381,186.557429 C71.3031429,186.187238 68.978,185.734095 66.6701905,185.198 C65.1881905,184.851333 63.6715238,184.630952 62.2328571,184.123333 C62.1969524,183.915333 62.1759048,183.703619 62.127619,183.504286 C60.7075238,178.095048 59.2837143,172.689524 57.862381,167.284 C57.4525714,165.710381 57.0415238,164.138 56.6515238,162.55819 C56.5202857,162.023333 56.615619,161.925524 57.1455238,161.982476 C57.4959048,162.018381 57.8413333,162.14219 58.1904762,162.148381 C60.385619,162.185524 62.5659048,162.422 64.7548571,162.561905 C67.0478095,162.70181 69.3469524,162.851619 71.6399048,162.989048 C73.8325714,163.11781 76.0128571,163.302286 78.2005714,163.41619 C80.5702857,163.537524 82.9325714,163.688571 85.2973333,163.869333 C86.0661905,163.925048 86.2358095,164.029048 86.086,164.738476 C85.8532381,165.83419 85.9337143,166.931143 85.9262857,168.026857 C85.9064762,170.468381 85.9213333,172.914857 85.4644762,175.322952 C85.3344762,176.029905 85.3097143,176.731905 85.2738095,177.433905 C85.1970476,178.705429 85.124,179.981905 85.0125714,181.243524 C84.8144762,183.425048 84.4009524,185.585524 84.3885714,187.785619 C82.7505714,187.788095 81.1435238,187.519429 79.5253333,187.359714 Z M76.921619,174.343619 C76.7507619,174.339905 76.5539048,174.390667 76.6046667,174.633333 C76.6529524,174.828952 76.8572381,174.887143 77.0194286,174.848762 C77.3029524,174.785619 77.6260952,174.755905 77.8217143,174.437714 C77.518381,174.290381 77.2162857,174.357238 76.921619,174.343619 Z" id="Shape" fill="#D6322A"></path>
                        <path d="M124.335714,183.729619 C123.264762,178.810667 121.980857,173.942476 120.604095,169.102762 C120.24381,167.847333 119.97019,166.56219 119.429143,165.362476 C118.538952,165.372381 117.850571,165.955524 117.049524,166.222952 C114.962095,166.912571 112.92419,167.728476 110.850381,168.455238 C109.911905,168.783333 108.980857,169.336762 107.904952,168.992571 C107.91981,170.807619 108.161238,172.601619 108.381619,174.38819 C108.89419,178.556857 109.048952,182.730476 108.918952,186.921429 C110.483905,186.943714 111.994381,186.561143 113.50981,186.261524 C116.242286,185.72419 118.977238,185.228952 121.681238,184.581429 C122.399333,184.408095 123.081524,184.08619 123.847905,184.101048 C124.062095,184.104762 124.214381,183.912857 124.335714,183.729619 Z" id="Shape" fill="#D6322A"></path>
                        <path d="M43.667619,177.528 C42.952,177.031524 42.1992381,176.609333 41.3239048,176.454571 C42.0407619,176.959714 42.7811429,177.406667 43.667619,177.528 Z" id="Shape" fill="#427C87"></path>
                        <path d="M40.9140952,176.241619 C40.7395238,175.871429 40.391619,175.830571 40.0486667,175.793429 C40.248,176.112857 40.546381,176.235429 40.9140952,176.241619 Z" id="Shape" fill="#427C87"></path>
                        <path d="M44.5862857,177.946476 C44.343619,177.672857 44.0514286,177.500762 43.6750476,177.528 C43.9078095,177.825143 44.2222857,177.932857 44.5862857,177.946476 Z" id="Shape" fill="#427C87"></path>
                        <path d="M45.5879048,178.382286 C45.3390476,178.15819 45.0852381,177.952667 44.7175238,177.984857 C44.9193333,178.305524 45.2325714,178.393429 45.5879048,178.382286 Z" id="Shape" fill="#427C87"></path>
                        <path d="M41.3362857,176.45581 C41.2570476,176.257714 41.0985714,176.214381 40.9066667,176.236667 C40.988381,176.437238 41.1542857,176.454571 41.3362857,176.45581 Z" id="Shape" fill="#427C87"></path>
                        <path d="M56.4682857,36.9521905 C57.707619,41.3214286 59.9287619,45.0926667 63.3124762,48.1420952 C64.3772381,49.1028571 65.6314286,49.7974286 67.0242857,50.1366667 C68.263619,50.4412381 69.4620952,50.908 70.7410476,51.0454286 C71.3477143,51.116 71.396,51.2373333 71.266,51.9120952 C70.5813333,55.4208571 70.472381,62.5795238 69.7740952,66.0870476 C68.4666667,74.516 68.1422857,77.9566667 66.9933333,85.318381 C67.1171429,85.9275238 63.6702857,103.383429 63.6393333,103.975238 C63.7297143,104.033429 76.9661905,107.810857 84.7921905,109.774476 C89.6306667,110.994 94.4765714,112.17019 99.3682857,113.168095 C100.715333,113.438 102.103238,113.551905 103.420571,113.996381 L103.608762,113.996381 C103.879905,113.915905 104.148571,113.80819 104.425905,113.761143 C107.540952,113.228762 110.590381,112.461143 113.568,111.395143 C116.784571,110.235048 117.234,110.430667 119.988762,108.363048 C119.715143,107.214095 119.352381,106.08619 119.364762,104.885238 C118.895524,103.628571 118.806381,102.285238 118.491905,100.992667 C118.105619,99.3955238 117.957048,97.747619 117.434571,96.1789524 C117.257524,96.2037143 119.692857,94.549619 119.535619,94.6090476 C116.621143,95.7233333 113.715333,96.1925714 110.809524,97.3291429 C110.355143,97.5086667 109.957714,97.5841905 109.500857,97.3142857 C107.54219,96.160381 105.433714,95.9437143 103.472571,94.796 C101.387619,93.5839048 99.2259048,92.5092381 97.149619,91.286 C93.6693333,89.2357143 90.2311429,87.1099048 86.9737143,84.7104762 C85.4087619,83.5540952 83.85,82.3865714 82.4794286,80.9887619 C82.0460952,80.5467619 81.7675238,80.0738095 81.6090476,79.4522857 C80.2719048,74.2473333 79.0288571,69.017619 77.8922857,63.7693333 C77.1011429,60.1107619 76.3062857,56.4497143 75.5151429,52.7911429 C75.4569524,52.5175238 75.3380952,52.13 75.6117143,52 C76.3409524,51.6459048 76.1193333,51.0590476 76.0339048,50.5328571 C75.8011429,49.0013333 75.5052381,47.4747619 75.2662857,45.9407619 C74.7487619,42.6672381 74.2535238,39.3887619 73.7508571,36.1127619 C71.0641905,31.9304762 68.3837143,27.7469524 65.7007619,23.5646667 C65.3652381,23.7739048 65.0173333,23.6092381 64.674381,23.5919048 C61.8824762,23.4581905 59.2725714,24.0017143 57.0254286,25.7684762 C56.3890476,26.273619 55.7662857,26.8208571 55.796,27.754381 C56.0473333,27.937619 56.4100952,27.9041905 56.6440952,28.2199048 C56.2714286,28.9677143 55.952,29.8207619 56.1018095,30.6180952 C56.3519048,31.9502857 56.5301905,33.3084762 57.0006667,34.5985714 C57.3337143,35.5320952 57.1306667,36.3851429 56.4682857,36.9521905 Z" id="Shape" fill="#93602D"></path>
                        <path d="M122.66181,18.5454286 C122.519429,16.2821905 121.977143,14.0771429 121.670095,11.8361905 C121.568571,11.1069524 121.42619,10.3777143 121.297429,9.64352381 C120.929714,9.464 120.734095,9.11609524 120.49019,8.81771429 C118.415143,6.2412381 115.936476,4.17609524 112.942762,2.74238095 C112.597333,2.57771429 112.275429,2.35485714 111.944857,2.1567619 C110.024571,1.67514286 108.100571,1.1947619 106.175333,0.708190476 C105.261619,0.642571429 104.34419,0.539809524 103.425524,0.515047619 C98.7777143,0.381333333 94.2871429,1.27028571 89.8881905,2.70771429 C88.9138095,3.02590476 87.9468571,3.35152381 86.9737143,3.66847619 C86.3831429,4.06342857 85.7331429,4.30857143 85.0633333,4.51409524 C83.7261905,5.174 82.3927619,5.83761905 81.0519048,6.49133333 C80.6309524,6.68942857 80.4105714,6.95809524 80.3746667,7.45952381 C80.093619,11.1775238 79.7840952,14.8918095 79.4758095,18.6048571 C79.3247619,20.5152381 79.1427619,22.4268571 78.9731429,24.3347619 C78.9013333,25.272 78.9570476,26.2253333 78.6933333,27.1452381 C78.5893333,30.2082857 78.2141905,33.2515238 77.9900952,36.3021905 C76.5687619,36.3182857 75.1560952,36.2241905 73.7409524,36.1214286 C74.242381,39.3974286 74.7400952,42.6771429 75.257619,45.9519048 C75.4978095,47.4834286 75.2922857,48.2460952 75.5238095,49.776381 C75.5238095,49.776381 74.8106667,53.650381 74.8688571,53.924 C75.6575238,57.5800952 77.0937143,60.1169524 77.8848571,63.7755238 C79.0214286,69.0250476 80.2657143,74.2522857 81.6028571,79.4609524 C81.7613333,80.0775238 82.0411429,80.5517143 82.472,80.9937143 C83.8450476,82.3952381 85.4050476,83.5627619 86.9662857,84.7191429 C90.2237143,87.1160952 93.6619048,89.2406667 97.1397143,91.2921905 C99.2197143,92.5141905 101.383905,93.5913333 103.465143,94.8046667 C105.431238,95.9511429 107.534762,96.8227619 109.493429,97.9766667 C109.950286,98.2490476 117.105238,97.7785714 117.559619,97.5990476 L123.283333,94.8987619 C124.057143,94.5904762 124.204476,89.5130476 124.023714,88.7602857 C123.414571,86.2457143 123.227619,78.4444762 123.227619,78.4444762 C125.962571,70.2680952 126.398381,63.2270476 128.552667,54.9342857 C128.593524,54.7634286 128.852286,53.5550476 128.893143,53.3841905 C129.091238,52.8208571 128.349619,49.3987619 128.223333,49.0149524 C127.374,46.3951429 127.213048,45.8491429 126.399619,43.5128571 C126.031905,42.4592381 125.601048,41.4935238 125.565143,40.3606667 C125.511905,38.558 125.13181,36.7862857 124.878,35.008381 C124.687333,33.6427619 124.492952,32.2759048 124.327048,30.9078095 C124.146286,29.5087619 123.984095,28.106 123.836762,26.6995238 C123.750095,25.9021905 123.708,25.103619 123.648571,24.3050476 L122.66181,18.5454286 Z M104.736667,19.3935238 C103.938095,20.9906667 103.171714,22.5060952 102.417714,24.0252381 C102.224571,24.414 101.928667,24.3459048 101.610476,24.2852381 C100.138381,24.0079048 98.6526667,23.9237143 97.1582857,23.9138095 C92.7308571,23.8878095 88.3975238,24.5922857 84.0877143,25.5381905 C83.3720952,25.6954286 82.5512381,26.2587619 81.965619,25.883619 C81.4109524,25.5282857 81.1707619,24.6640952 80.8228571,24.0054286 C80.4873333,23.3678095 80.4997143,23.348 81.1521905,22.9332381 C82.6837143,21.9551429 84.3130476,21.1701905 86.0104762,20.5387619 C90.6558095,18.810381 95.4658095,18.3745714 100.364952,18.6754286 C101.780095,18.7682857 103.198952,18.914381 104.736667,19.3935238 Z M91.741619,64.6322857 C92.0152381,64.4614286 92.1501905,64.6285714 92.2851429,64.7090476 C94.7860952,66.157619 97.4814286,67.1369524 100.259714,67.9095238 C103.996286,68.9482857 107.812095,69.5450476 111.673714,69.796381 C112.203619,69.8298095 112.45,70.0093333 112.513143,70.5169524 C112.674095,71.851619 112.866,73.1862857 113.000952,74.5234286 C113.090095,75.4185714 113.018286,75.5151429 112.089714,75.4953333 C110.989048,75.4693333 109.884667,75.4272381 108.796381,75.2625714 C105.285143,74.7537143 102.006667,73.5267619 98.9646667,71.7005714 C96.7014286,70.3460952 94.5904762,68.7922857 92.9413333,66.6875238 C92.4448571,66.052381 91.9904762,65.3949524 91.741619,64.6322857 Z" id="Shape" fill="#A47230"></path>
                        <path d="M103.42181,113.998857 C102.104476,113.554381 100.715333,113.442952 99.3695238,113.170571 C94.4778095,112.171429 89.6294286,110.997714 84.7934286,109.77819 C76.9637143,107.812095 69.1946667,105.625619 61.4181905,103.468857 C61.320381,103.441619 61.2337143,103.363619 61.1408571,103.306667 C60.0141905,103.180381 58.9444762,102.807714 57.8821905,102.442476 C57.4637143,102.296381 57.9849524,102.18619 57.9750476,102.037619 C57.3919048,101.993048 56.9474286,102.19981 56.6465714,102.71981 C56.562381,102.868381 56.4299048,103.000857 56.3110476,103.124667 C54.1084762,105.407714 51.9009524,107.689524 49.6959048,109.967619 C49.1610476,110.524762 48.6410476,111.089333 48.3637143,111.826 C48.9765714,111.895333 49.3529524,112.379429 49.7664762,112.72981 C52.272381,114.87419 55.0469524,116.649619 57.8982857,118.278952 C62.6166667,120.974286 67.5628571,123.178095 72.6464762,125.086 C77.154381,126.773524 81.757619,128.141619 86.3831429,129.437905 C86.8251429,129.560476 87.2807619,129.644667 87.7326667,129.728857 C88.0954286,129.793238 88.4309524,129.714 88.6921905,129.418095 C89.0673333,128.99219 89.5241905,128.650476 89.8213333,128.149048 C90.0602857,127.752857 90.3821905,127.408667 90.8972381,127.35419 C90.6842857,127.12019 90.4205714,126.892381 90.818,126.576667 C91.0408571,126.398381 91.2191429,126.178 91.4246667,125.97619 C95.4249524,121.984571 99.4190476,117.995429 103.42181,113.998857 Z" id="Shape" fill="#E6F5FC"></path>
                        <path d="M122.606095,106.722571 C119.85381,108.797619 116.78581,110.238762 113.569238,111.396381 C110.590381,112.461143 107.538476,113.232476 104.427143,113.762381 C104.148571,113.80819 103.881143,113.917143 103.607524,113.997619 C107.631333,118.199714 111.662571,122.395619 115.68019,126.601429 C115.961238,126.896095 116.374762,127.12019 116.398286,127.608 C117.425905,128.378095 118.238095,129.371048 119.159238,130.251333 C120.02219,131.084571 119.991238,131.062286 120.985429,130.464286 C123.169429,129.14819 125.24819,127.687238 127.265048,126.128476 C127.990571,125.572571 128.764381,125.058762 129.366095,124.356762 C129.813048,123.840476 130.444476,123.54581 130.896381,123.049333 C132.400667,121.405143 133.926,119.772095 134.975905,117.784952 C135.503333,116.779619 135.861143,115.702476 136.056762,114.580762 C136.107524,114.038476 135.945333,113.595238 135.44019,113.332762 C135.11581,113.163143 134.886762,112.888286 134.637905,112.640667 C132.468762,110.48019 130.316952,108.30981 128.135429,106.174095 C127.325714,105.382952 126.438,104.68219 125.58619,103.940571 C125.591143,104.120095 125.535429,104.27981 125.409143,104.416 C124.577143,105.304952 123.670857,106.108476 122.606095,106.722571 Z" id="Shape" fill="#E6F5FC"></path>
                        <path d="M122.118286,21.2741905 C120.524857,20.8074286 118.957429,20.2639048 117.315714,19.9580952 C115.613333,19.6324762 113.884952,19.4517143 112.162762,19.2548571 C111.739333,19.2078095 111.50781,19.3501905 111.408762,19.7847619 C111.068286,21.2964762 110.703048,22.8032381 110.33781,24.348381 C110.880095,24.5650476 111.375333,24.414 111.854476,24.4028571 C114.27,24.3409524 116.66819,24.466 119.037905,24.9760952 C120.116286,25.2088571 121.161238,25.5530476 122.107143,26.1349524 C122.493429,26.3677143 122.909429,26.5905714 123.112476,27.0350476 C123.407143,27.1155238 123.452952,27.4708571 123.820667,27.625619 C124.457048,26.7304762 125.099619,25.8118095 125.764476,24.9092381 C125.977429,24.6158095 125.858571,24.388 125.721143,24.1341905 C125.188762,23.1622857 124.343143,22.5320952 123.422,21.9848571 C122.996095,21.7298095 122.552857,21.5094286 122.118286,21.2741905 Z" id="Shape" fill="#513630"></path>
                        <path d="M56.4682857,36.9521905 C57.1306667,36.3888571 57.3337143,35.5345714 56.9981905,34.6047619 C56.5314286,33.3159048 56.3506667,31.9577143 56.0993333,30.6242857 C55.9495238,29.8281905 56.2726667,28.9751429 56.641619,28.2273333 C56.4088571,27.911619 56.0448571,27.9462857 55.7947619,27.7618095 C55.3391429,29.1534286 55.3354286,30.5970476 55.4505714,32.0270476 C55.5780952,33.5647619 55.8368571,35.0962857 56.2838095,36.5782857 C56.3259048,36.712 56.4051429,36.828381 56.4682857,36.9521905 Z" id="Shape" fill="#986830"></path>
                        <path d="M116.402,127.609238 C116.377238,127.12019 115.963714,126.897333 115.683905,126.602667 C111.662571,122.398095 107.632571,118.200952 103.611238,113.998857 L103.423048,113.998857 C99.424,117.995429 95.4286667,121.984571 91.4271429,125.977429 C91.2290476,126.178 91.0445714,126.400857 90.8204762,126.577905 C90.4242857,126.893619 90.6904762,127.12019 90.9021905,127.355429 C93.028,128.938952 95.1587619,130.52 97.2808571,132.109714 C99.515619,133.78981 101.730571,135.497143 103.986381,137.147524 C104.528667,137.544952 104.78,137.990667 104.83819,138.624571 C104.932286,139.719048 105.066,140.806095 105.186095,141.894381 C105.534,141.890667 105.880667,141.931524 106.221143,141.780476 C106.964,141.452381 107.744,141.228286 108.481905,140.923714 C109.14181,140.650095 109.913143,140.543619 110.443048,139.987714 C110.418286,139.91219 110.397238,139.836667 110.374952,139.762381 C110.336571,139.685619 110.290762,139.603905 110.248667,139.528381 C110.127333,139.173048 110.007238,138.817714 109.885905,138.462381 C109.845048,138.363333 109.893333,138.315048 109.977524,138.280381 C111.292381,136.566857 112.263048,134.644095 113.369905,132.808 C114.398762,131.083333 115.390476,129.342571 116.402,127.609238 Z" id="Shape" fill="#D6322A"></path>
                        <path d="M110.439333,139.986476 C109.911905,140.543619 109.140571,140.647619 108.47819,140.921238 C107.742762,141.22581 106.959048,141.452381 106.219905,141.780476 C105.879429,141.931524 105.532762,141.88819 105.182381,141.894381 C105.33219,143.590571 105.472095,145.283048 105.639238,146.975524 C105.883143,149.518571 106.144381,152.059143 106.403143,154.599714 C106.73,157.847238 107.063048,161.096 107.394857,164.341048 C107.552095,165.887429 107.612762,167.452381 107.902476,168.987619 C108.978381,169.333048 109.906952,168.780857 110.850381,168.450286 C112.921714,167.724762 114.960857,166.907619 117.047048,166.218 C117.846857,165.95181 118.534,165.367429 119.42419,165.357524 C118.919048,163.183429 118.178667,161.083619 117.490286,158.966476 C115.458571,152.741333 113.251048,146.58181 110.736476,140.534952 C110.658476,140.344286 110.625048,140.121429 110.439333,139.986476 Z" id="Shape" fill="#D6322A"></path>
                        <path d="M103.237333,173.577238 C103.244762,173.769143 103.338857,173.912762 103.508476,173.979619 C103.619905,174.022952 103.728857,173.952381 103.709048,173.838476 C103.678095,173.645333 103.69419,173.398952 103.42181,173.368 C103.320286,173.354381 103.25219,173.464571 103.237333,173.577238 Z" id="Shape" fill="#DF9E87"></path>
                        <path d="M110.242476,139.528381 C110.288286,139.605143 110.331619,139.683143 110.372476,139.759905 C110.393524,139.649714 110.33781,139.579143 110.242476,139.528381 Z" id="Shape" fill="#3E727D"></path>
                        <path d="M109.975048,138.277905 C109.890857,138.315048 109.842571,138.363333 109.883429,138.461143 C109.950286,138.416571 109.977524,138.355905 109.975048,138.277905 Z" id="Shape" fill="#3E727D"></path>
                        <path d="M77.8217143,174.438952 C77.518381,174.291619 77.2138095,174.358476 76.920381,174.344857 C76.7495238,174.341143 76.5526667,174.391905 76.6034286,174.634571 C76.6517143,174.83019 76.856,174.888381 77.0181905,174.85 C77.3041905,174.786857 77.6260952,174.755905 77.8217143,174.438952 Z" id="Shape" fill="#366570"></path>
                        <path d="M104.736667,19.3935238 C103.198952,18.915619 101.778857,18.7682857 100.367429,18.6791429 C95.4707619,18.3770476 90.6558095,18.8153333 86.0129524,20.5412381 C84.318,21.1739048 82.6849524,21.9588571 81.1546667,22.9381905 C80.5034286,23.3504762 80.4935238,23.3715238 80.8253333,24.0091429 C81.1732381,24.6665714 81.4146667,25.5307619 81.9680952,25.8860952 C82.5561905,26.2649524 83.3770476,25.700381 84.0901905,25.5419048 C88.3987619,24.5947619 92.7345714,23.894 97.1607619,23.9175238 C98.657619,23.9249524 100.142095,24.010381 101.615429,24.2864762 C101.937333,24.3471429 102.227048,24.4177143 102.42019,24.0264762 C103.172952,22.5060952 103.939333,20.9906667 104.736667,19.3935238 Z" id="Shape" fill="#513630"></path>
                        <path d="M91.741619,64.6322857 C91.9904762,65.3949524 92.4448571,66.0511429 92.9413333,66.6850476 C94.588,68.7910476 96.7014286,70.3448571 98.9646667,71.6993333 C102.006667,73.5255238 105.285143,74.7537143 108.796381,75.2613333 C109.884667,75.426 110.989048,75.4668571 112.089714,75.4940952 C113.01581,75.5151429 113.090095,75.4160952 112.998476,74.5246667 C112.866,73.1850476 112.671619,71.8491429 112.510667,70.512 C112.45,70.0068571 112.201143,69.8285714 111.673714,69.7951429 C107.812095,69.5438095 103.996286,68.9433333 100.257238,67.9082857 C97.4814286,67.1357143 94.7848571,66.156381 92.2826667,64.7053333 C92.1501905,64.6285714 92.0152381,64.4614286 91.741619,64.6322857 Z" id="Shape" fill="#FBD7A8"></path>
                    </g>
                </g>
                <g id="Shape">
                    <path d="M220.202667,223.020571 C193.868381,248.231905 162.275905,260.245143 125.847429,259.592667 C90.311619,258.002952 59.9547619,244.694667 35.5692381,218.754095 C11.0066667,192.626571 -0.746571429,161.31019 0.454380952,125.464857 C1.64419048,90.0850476 15.5504762,60.2085714 40.9339048,35.6175238 C67.3833333,11.3000952 98.5461905,-0.761428571 134.483143,0.468 C169.94219,1.68628571 200.065048,15.444 224.39981,41.2137143 C247.841905,66.0362857 259.165524,95.8954286 259.62981,125.124381 C259.623619,166.600571 244.502762,199.760476 220.202667,223.020571 Z M139.200286,245.156476 C141.139143,244.949714 143.091619,244.781333 145.023048,244.518857 C147.194667,244.222952 149.356381,243.852762 151.510667,243.499905 C152.206476,243.383524 152.903524,243.258476 153.583238,243.091333 C156.315714,242.40419 159.045714,241.696 161.780667,241.00019 C162.008476,240.944476 162.242476,240.918476 162.475238,240.880095 C166.326952,239.689048 170.179905,238.468286 173.886762,236.848857 C175.823143,236.000762 177.775619,235.17619 179.690952,234.274857 C180.898095,233.716476 182.053238,233.041714 183.224476,232.400381 C183.452286,232.271619 183.628095,232.052476 183.831143,231.870476 C184.130762,231.794952 184.467524,231.778857 184.72381,231.64019 C190.483429,228.42981 196.011524,224.887619 201.19419,220.803143 C205.943524,217.064095 210.403143,213.010571 214.503714,208.580667 C217.959238,204.858952 221.178286,200.931714 224.11381,196.776667 C226.846286,192.907619 229.360857,188.903619 231.619143,184.74981 C233.861333,180.624476 235.823714,176.361714 237.531048,171.98381 C239.395619,167.21219 240.960571,162.341524 242.147905,157.355714 C243.01581,153.725619 243.751238,150.068286 244.23781,146.367619 C244.673619,143.094095 244.99181,139.815619 245.217143,136.523524 C245.483333,132.614857 245.453619,128.716095 245.338476,124.821048 C245.239429,121.689905 244.792476,118.569905 244.475524,115.44619 C243.960476,110.351429 242.889524,105.359429 241.59819,100.413238 C240.134762,94.8009524 238.213238,89.3520952 235.91781,84.0270476 C233.052857,77.3784762 229.557714,71.0852381 225.485619,65.1126667 C223.156762,61.698 220.716476,58.3539048 217.940667,55.2784762 C215.72819,52.8208571 213.597429,50.2765714 211.242571,47.9600952 C207.987619,44.7571429 204.568,41.7324762 200.955238,38.9257143 C196.962381,35.8230476 192.806095,32.9729524 188.465333,30.4039048 C184.253333,27.9153333 179.92,25.6471429 175.378667,23.8098095 C172.458,22.6261905 169.546,21.4165714 166.564667,20.4075238 C162.465333,19.0258095 158.291714,17.8657143 154.041333,17.0151429 C151.58,16.5248571 149.108762,16.054381 146.630095,15.6532381 C145.005714,15.3932381 143.354095,15.2768571 141.716095,15.093619 C138.973714,14.7902857 136.231333,14.598381 133.470381,14.6045714 C131.816286,14.6082857 130.164667,14.3631429 128.522952,14.4312381 C125.265524,14.572381 122.013048,14.8138095 118.766762,15.0812381 C116.572857,15.2657143 114.382667,15.5158095 112.214762,15.8401905 C109.963905,16.1819048 107.720476,16.6028571 105.493143,17.082 C100.872571,18.0737143 96.3238095,19.3353333 91.8679048,20.916381 C88.152381,22.2312381 84.5185714,23.7417143 80.938,25.3970476 C74.7227619,28.2706667 68.861619,31.732381 63.2988571,35.6942857 C60.3559048,37.7940952 57.5528571,40.0994286 54.7473333,42.3861905 C51.4713333,45.0518095 48.4751429,48.034381 45.5940952,51.1172381 C43.771619,53.0684762 42.0865714,55.1559048 40.3557143,57.1925714 C37.3347619,60.7409524 34.684,64.5604762 32.2102857,68.5013333 C30.7270476,70.8698095 29.3837143,73.3286667 28.0007619,75.7602857 C25.7251429,79.781619 23.8989524,84.0171429 22.2188571,88.3133333 C20.111619,93.7089524 18.4005714,99.2358095 17.2280952,104.914952 C16.6412381,107.760095 16.1014286,110.616381 15.6210476,113.48381 C15.3585714,115.068571 15.2669524,116.68181 15.0812381,118.277714 C14.7605714,121.018857 14.5785714,123.761238 14.5909524,126.524667 C14.6033333,127.973238 14.3755238,129.429238 14.416381,130.880286 C14.4906667,133.354 14.6689524,135.821524 14.8410476,138.289048 C14.9834286,140.330667 15.0874286,142.376 15.3721905,144.395333 C15.7844762,147.385333 16.2747619,150.375333 16.8504762,153.338095 C17.6775238,157.628095 18.7880952,161.859905 20.214381,165.985238 C21.4710476,169.627714 22.9121905,173.21819 24.400381,176.775238 C25.3710476,179.104095 26.5274286,181.353714 27.69,183.59219 C30.121619,188.28581 32.9469524,192.742952 36.0025714,197.061429 C38.4874286,200.572667 41.2050476,203.888286 44.0378095,207.108571 C45.7265714,209.031333 47.4958095,210.895905 49.348,212.665143 C54.9664762,218.039714 60.9749524,222.942571 67.5566667,227.10381 C70.2841905,228.826 73.1169524,230.389714 75.9299048,231.970762 C77.752381,232.994667 79.6033333,233.948 81.4778095,234.867905 C82.8558095,235.543905 84.2759048,236.133238 85.6935238,236.73 C85.9646667,236.842667 86.3014286,236.806762 86.6072381,236.838952 C86.9514286,237.079143 87.2659048,237.413429 87.6497143,237.540952 C91.0581905,238.697333 94.4740952,239.85 97.9110476,240.93581 C98.9448571,241.268857 100.036857,241.391429 101.105333,241.606857 C102.709905,242.074857 104.299619,242.592381 105.91781,243.005905 C106.894667,243.254762 107.914857,243.341429 108.916476,243.503619 C109.945333,243.724 110.956857,244.011238 111.985714,244.153619 C114.667429,244.517619 117.347905,244.905143 120.039524,245.123048 C122.551619,245.323619 125.073619,245.311238 127.589429,245.396667 C127.868,245.405333 128.142857,245.423905 128.418952,245.441238 C128.753238,245.488286 129.086286,245.556381 129.420571,245.592286 C130.220381,245.669048 131.023905,245.773048 131.821238,245.773048 C132.214952,245.773048 132.614857,245.56381 133.006095,245.449905 C134.370476,245.421429 135.736095,245.39419 137.100476,245.364476 C137.802476,245.297619 138.502,245.232 139.200286,245.156476 Z" fill="#167FBF"></path>
                    <path d="M133.004857,245.453619 C131.472095,245.451143 129.948,245.44619 128.415238,245.442476 C128.749524,245.493238 129.082571,245.561333 129.419333,245.596 C130.219143,245.672762 131.022667,245.776762 131.816286,245.776762 C132.214952,245.776762 132.613619,245.568762 133.004857,245.453619 Z" fill="#4582C3"></path>
                </g>
            </g>
            <path d="M134.405143,247.182 C133.060571,247.219143 131.728381,247.498952 130.371429,247.336762 L104.287238,245.118095 C101.078095,244.486667 97.9147619,243.642286 94.756381,242.762 C93.4241905,242.394286 92.1514286,241.803714 90.7697143,241.619238 C90.4998095,241.41619 90.2249524,241.228 89.8671429,241.292381 L89.8027619,241.262667 L89.7309524,241.27381 C89.4610476,241.01381 89.154,240.864 88.7788571,240.93581 L88.7714286,240.933333 C88.0062857,240.49381 87.2139048,240.139714 86.3286667,240.06419 L86.3385714,240.066667 C86.2358095,239.873524 86.0748571,239.841333 85.8841905,239.883429 L85.890381,239.888381 C85.682381,239.523143 85.332,239.515714 84.9840952,239.512 C84.3650476,239.269333 83.7100952,239.15419 83.0811429,238.896667 C78.0557143,236.805524 73.1565714,234.434571 68.4171429,231.694667 C63.3372381,228.757905 58.4764762,225.464571 53.8620952,221.793619 C49.8989524,218.636476 46.0893333,215.283714 42.5520952,211.62019 C41.0106667,210.035429 39.4209524,208.491524 38.0602857,206.726 C39.7651429,204.825524 41.5777143,203.037714 43.4868571,201.353905 C46.6006667,198.591714 49.8345714,195.995429 53.2009524,193.571238 C55.5174286,191.89981 57.8326667,190.22219 60.1937143,188.625048 C62.4705714,187.078667 64.8093333,185.630095 67.1245714,184.150571 C68.5025714,183.26781 69.849619,182.319429 71.2907619,181.56419 C72.8742857,180.733429 74.1978095,179.528762 75.6699048,178.551905 C76.7359048,177.843714 77.8229524,177.151619 78.896381,176.459524 C80.5331429,175.405905 82.2417143,174.430286 83.9849524,173.587143 C84.7686667,173.203333 85.4397143,172.512476 86.3918095,172.508762 C87.0071429,172.519905 87.438,172.976762 87.8812381,173.299905 C90.61,175.262286 93.5566667,176.812381 96.5689524,178.202762 C101.548571,180.501905 106.704,182.272381 111.969619,183.714762 C116.632286,184.994952 121.358095,185.935905 126.101238,186.797619 C126.550667,186.876857 127.014952,186.921429 127.469333,186.961048 L134.405143,247.182 Z" id="Shape" fill="#313233"></path>
            <path d="M165.875048,240.423238 C169.596762,239.370857 173.339524,238.363048 176.889143,236.817905 C184.622286,233.44781 192.232857,229.817714 199.303619,225.157524 C204.260952,221.89019 208.971905,218.294762 213.422857,214.367524 C215.809905,212.254095 218.138762,210.066381 220.290571,207.705333 C220.021905,207.674381 219.854762,207.492381 219.69381,207.302952 C215.918857,202.854476 211.544667,199.054762 207.013238,195.419714 C203.789238,192.829619 200.436476,190.414095 196.989619,188.12981 C195.216667,186.958571 193.454857,185.766286 191.643524,184.654476 C189.476857,183.322286 187.348571,181.92819 185.056857,180.81019 C182.22781,179.433429 179.449524,177.952667 176.583333,176.653905 C175.400952,176.115333 174.286667,175.387333 172.995333,175.095143 C172.683333,176.188381 172.221524,177.224667 171.597524,178.17181 C170.354476,180.046286 168.674381,181.519619 167.015333,183.005333 C166.515143,183.452286 165.858952,183.686286 165.363714,184.154286 C164.696381,184.790667 163.87181,185.225238 163.095524,185.709333 L165.875048,240.423238 Z" id="Shape" fill="#313233"></path>
            <path d="M129.133333,16.0593333 C130.557143,16.0593333 131.989619,16.2413333 133.418381,16.2413333 L133.466667,16.2413333 L133.628857,16.2413333 C136.332857,16.2413333 139.020762,16.4332381 141.712381,16.731619 C143.349143,16.913619 144.998286,17.0275238 146.626381,17.29 C149.11,17.6886667 151.576286,18.160381 154.037619,18.6531429 C158.289238,19.5037143 162.462857,20.6625714 166.560952,22.0455238 C169.542286,23.0533333 172.454286,24.2654286 175.374952,25.4478095 C179.916286,27.2826667 184.252095,29.549619 188.461619,32.0406667 C192.802381,34.6084762 196.958667,37.4610476 200.951524,40.5612381 C204.564286,43.3704762 207.983905,46.396381 211.238857,49.5980952 C213.593714,51.9145714 215.724476,54.456381 217.936952,56.914 C220.712762,59.9906667 223.153048,63.3335238 225.481905,66.7494286 C229.554,72.722 233.047905,79.0189524 235.914095,85.6638095 C238.209524,90.9888571 240.131048,96.4389524 241.594476,102.048762 C242.88581,106.993714 243.956762,111.98819 244.47181,117.080476 C244.788762,120.20419 245.235714,123.32419 245.334762,126.456571 C245.448667,130.351619 245.479619,134.250381 245.213429,138.15781 C244.988095,141.454857 244.669905,144.734571 244.234095,148.004381 C243.747524,151.71 243.013333,155.359905 242.14419,158.99 C240.956857,163.977048 239.391905,168.847714 237.527333,173.623048 C235.82,177.993524 233.856381,182.258762 231.615429,186.385333 C229.357143,190.537905 226.842571,194.543143 224.110095,198.41219 C221.179524,202.566 217.955524,206.494476 214.5,210.218667 C210.399429,214.646095 205.93981,218.699619 201.190476,222.439905 C196.00781,226.520667 190.480952,230.066571 184.720095,233.275714 C184.46381,233.414381 184.127048,233.430476 183.827429,233.504762 C183.626857,233.685524 183.447333,233.905905 183.220762,234.037143 C182.050762,234.678476 180.894381,235.352 179.687238,235.911619 C177.774381,236.812952 175.820667,237.638762 173.885524,238.483143 C170.17619,240.107524 166.326952,241.323333 162.471524,242.514381 C162.235048,242.555238 162.002286,242.581238 161.776952,242.639429 C159.042,243.330286 156.312,244.04219 153.579524,244.729333 C152.897333,244.898952 152.204,245.021524 151.506952,245.13419 C149.352667,245.487048 147.190952,245.863429 145.019333,246.158095 C143.086667,246.416857 141.135429,246.586476 139.196571,246.794476 C138.498286,246.87 137.798762,246.936857 137.095524,247.007429 C135.731143,247.037143 134.363048,247.061905 133.001143,247.087905 C132.607429,247.203048 132.21,247.416 131.811333,247.416 C131.017714,247.416 130.215429,247.309524 129.414381,247.234 C129.078857,247.199333 128.744571,247.132476 128.410286,247.082952 C128.136667,247.063143 127.859333,247.048286 127.583238,247.038381 C125.068667,246.955429 122.546667,246.96781 120.033333,246.768476 C117.340476,246.545619 114.658762,246.16181 111.978286,245.792857 C110.946952,245.655429 109.936667,245.365714 108.909048,245.144095 C107.907429,244.981905 106.887238,244.895238 105.907905,244.647619 C104.289714,244.240286 102.702476,243.719048 101.099143,243.248571 C100.031905,243.030667 98.9374286,242.910571 97.903619,242.583714 C94.471619,241.495429 91.0532381,240.344 87.6435238,239.183905 C87.2609524,239.055143 86.9477143,238.719619 86.6035238,238.480667 C86.294,238.448476 85.9609524,238.485619 85.6885714,238.369238 C84.2697143,237.774952 82.849619,237.189333 81.4728571,236.512095 C79.598381,235.593429 77.7437143,234.640095 75.9249524,233.614952 C73.1132381,232.033905 70.2792381,230.466476 67.5517143,228.744286 C60.9675238,224.590476 54.9615238,219.683905 49.3430476,214.310571 C47.488381,212.540095 45.720381,210.673048 44.0328571,208.752762 C41.1988571,205.528762 38.4824762,202.214381 35.997619,198.703143 C32.9395238,194.388381 30.121619,189.93 27.6838095,185.238857 C26.5224762,182.996667 25.3673333,180.743333 24.3979048,178.419429 C22.9084762,174.861143 21.4660952,171.270667 20.2106667,167.633143 C18.785619,163.500381 17.6738095,159.273524 16.848,154.984762 C16.2710476,152.020762 15.7807619,149.032 15.3709524,146.040762 C15.0874286,144.018952 14.9809524,141.971143 14.8385714,139.933238 C14.6664762,137.465714 14.4881905,134.995714 14.4151429,132.523238 C14.3742857,131.074667 14.598381,129.617429 14.5909524,128.166381 C14.5773333,125.402952 14.7593333,122.66181 15.08,119.923143 C15.2644762,118.326 15.3573333,116.710286 15.6185714,115.124286 C16.0989524,112.26181 16.6375238,109.405524 17.2268571,106.559143 C18.3980952,100.878762 20.110381,95.354381 22.217619,89.9562857 C23.8952381,85.6625714 25.7201905,81.4245714 27.9970476,77.4032381 C29.3812381,74.9728571 30.7220952,72.5164762 32.2065714,70.1492381 C34.6802857,66.2059048 37.3285714,62.3851429 40.3507619,58.8392381 C42.0828571,56.8038095 43.7691429,54.7139048 45.590381,52.7626667 C48.4714286,49.6785714 51.4651429,46.6984762 54.743619,44.0340952 C57.5491429,41.7460952 60.3521905,39.442 63.296381,37.3372381 C68.8566667,33.3778095 74.7215238,29.9148571 80.9342857,27.0412381 C84.5160952,25.3846667 88.1499048,23.8729524 91.8666667,22.5605714 C96.3238095,20.9844762 100.872571,19.7191429 105.490667,18.7286667 C107.719238,18.2482857 109.958952,17.8273333 112.213524,17.4880952 C114.38019,17.1624762 116.571619,16.912381 118.763048,16.7254286 C122.01181,16.4592381 125.26181,16.2178095 128.520476,16.0766667 C128.724762,16.0630476 128.92781,16.0593333 129.133333,16.0593333 L129.133333,16.0593333 Z M129.133333,10.1672381 L129.133333,10.1672381 C128.846095,10.1672381 128.560095,10.1721905 128.272857,10.1845714 C124.63781,10.3442857 121.02381,10.6240952 118.278952,10.8494286 C115.882,11.0512381 113.551905,11.323619 111.336952,11.6566667 C109.056381,12.0033333 106.742381,12.4304762 104.255048,12.9640952 C99.3100952,14.0239048 94.4802857,15.3833333 89.9018095,17.0027619 C86.1937143,18.3151429 82.4521905,19.8491429 78.4630476,21.6889524 C72.1079048,24.6269524 65.8567619,28.2793333 59.8767619,32.538381 C56.9734286,34.6097143 54.2335238,36.8432381 51.5852381,39.0012381 L51.024381,39.4605714 C47.9848571,41.9293333 44.889619,44.8797143 41.2867619,48.737619 C39.8369524,50.2864762 38.4985714,51.8860952 37.2047619,53.4275238 C36.7590476,53.9611429 36.3120952,54.4910476 35.8639048,55.0172381 C32.955619,58.435619 30.2058095,62.2464762 27.2182857,67.0131429 C26.0024762,68.9458095 24.895619,70.9119048 23.8221905,72.8148571 L22.8787619,74.4825714 C20.1784762,79.2529524 18.1752381,84.1087619 16.730381,87.8094286 C14.3730476,93.8414286 12.6508571,99.5849524 11.4573333,105.364381 C10.8320952,108.38781 10.2799048,111.341905 9.80942857,114.148667 C9.60266667,115.38181 9.49619048,116.539429 9.3872381,117.659905 C9.33895238,118.187333 9.28695238,118.714762 9.22752381,119.239714 C8.85733333,122.395619 8.6852381,125.32619 8.69885714,128.189905 C8.70257143,128.656667 8.66542857,129.212571 8.62333333,129.800667 C8.56390476,130.65619 8.49704762,131.628095 8.5267619,132.681714 C8.59857143,135.140571 8.76942857,137.561048 8.93161905,139.904762 L8.96257143,140.338095 L9.03314286,141.371905 C9.1507619,143.141143 9.27209524,144.966095 9.53580952,146.85419 C9.97161905,150.007619 10.4866667,153.123905 11.0660952,156.11019 C11.96,160.743143 13.1634286,165.265905 14.6441905,169.548476 C16.0605714,173.658952 17.6973333,177.662952 18.9651429,180.691333 C20.0014286,183.168762 21.2073333,185.539714 22.4578095,187.94781 C24.8386667,192.532476 27.6924762,197.161714 31.1913333,202.102952 C33.5560952,205.447048 36.230381,208.791143 39.610381,212.637905 C41.4687619,214.76 43.3766667,216.754571 45.2771429,218.567143 C51.6446667,224.657333 57.902,229.617143 64.4094286,233.725143 C66.9326667,235.31981 69.5190476,236.772095 72.0187619,238.177333 L73.0352381,238.748095 C74.7685714,239.721238 76.6801905,240.719143 78.8790476,241.798762 C80.3288571,242.513143 81.7737143,243.11981 83.1715238,243.702952 L83.4117143,243.805714 C83.7435238,243.944381 84.0654286,244.047143 84.3662857,244.126381 C84.7587619,244.359143 85.2267619,244.590667 85.7665714,244.771429 C88.8580952,245.825048 92.4795238,247.04581 96.1269524,248.20219 C97.214,248.543905 98.2502857,248.725905 99.0847619,248.872 C99.2915238,248.907905 99.4933333,248.942571 99.7000952,248.980952 C100.095048,249.096095 100.486286,249.21619 100.881238,249.336286 C102.03019,249.682952 103.22,250.040762 104.466762,250.36019 C105.442381,250.60781 106.347429,250.732857 107.143524,250.843048 C107.372571,250.874 107.596667,250.904952 107.823238,250.940857 C108.063429,250.995333 108.301143,251.051048 108.537619,251.108 C109.321333,251.291238 110.209048,251.501714 111.197048,251.637905 L111.982,251.744381 C114.43219,252.079905 116.96781,252.431524 119.555429,252.645714 C121.470762,252.799238 123.330381,252.836381 125.123143,252.874762 C125.879619,252.892095 126.63981,252.90819 127.39381,252.932952 C127.49781,252.937905 127.626571,252.945333 127.761524,252.954 L127.761524,252.954 C128.124286,253.015905 128.489524,253.069143 128.852286,253.106286 L129.311619,253.153333 C130.044571,253.230095 130.879048,253.318 131.81381,253.318 C132.713905,253.318 133.475333,253.139714 134.028762,252.975048 L135.165333,252.951524 L137.213143,252.909429 L137.447143,252.903238 L137.686095,252.879714 L138.346,252.814095 C138.841238,252.764571 139.335238,252.716286 139.830476,252.663048 C140.381429,252.602381 140.944762,252.545429 141.504381,252.489714 C142.90219,252.348571 144.348286,252.2 145.804286,252.004381 C147.676286,251.750571 149.513619,251.447238 151.297714,251.151333 L152.462762,250.95819 C153.261333,250.829429 154.114381,250.675905 154.999619,250.455524 C156.628952,250.046952 158.24219,249.634667 159.860381,249.219905 L163.110381,248.389143 L163.146286,248.38419 L163.48181,248.333429 L163.852,248.266571 L164.212286,248.155143 C168.311619,246.88981 172.318095,245.609619 176.242857,243.894857 L177.620857,243.296857 C179.112762,242.649333 180.660381,241.978286 182.195619,241.251524 C183.312381,240.731524 184.34,240.163238 185.33419,239.607333 L186.052286,239.213619 C186.240476,239.108381 186.415048,239.000667 186.579714,238.892952 C186.88181,238.781524 187.203714,238.640381 187.539238,238.459619 C194.097429,234.807238 199.740667,231.092952 204.831714,227.081524 C209.946286,223.055238 214.654762,218.734286 218.820952,214.236286 C222.535238,210.237238 225.935048,206.058667 228.921333,201.825619 C231.839524,197.685429 234.490286,193.442476 236.791905,189.211905 C239.091048,184.981333 241.183429,180.461048 243.013333,175.781048 C245.035143,170.599619 246.669429,165.419429 247.874095,160.370476 C248.886857,156.132476 249.604952,152.338952 250.071714,148.784381 C250.51,145.503429 250.840571,142.159333 251.086952,138.575048 C251.394,134.08819 251.320952,129.654571 251.221905,126.294381 C251.14019,123.764952 250.869048,121.33581 250.597905,118.983429 C250.506286,118.155143 250.417143,117.328095 250.329238,116.497333 C249.847619,111.718286 248.880667,106.654476 247.29219,100.571714 C245.817619,94.9111429 243.805714,89.1119048 241.317143,83.3399048 C238.36181,76.478381 234.672286,69.7815238 230.346381,63.4412381 C228.332,60.4846667 225.597048,56.6255238 222.311143,52.9793333 C221.737905,52.3404762 221.164667,51.6904762 220.588952,51.0417143 C218.942286,49.178381 217.239905,47.2506667 215.367905,45.4071429 C211.866571,41.964 208.231524,38.7734286 204.560571,35.9220952 C200.308952,32.6188571 195.898857,29.6090476 191.456571,26.9793333 C186.516571,24.0599048 181.977714,21.7719048 177.581238,19.9977143 L176.566,19.5817143 C173.947429,18.5206667 171.243429,17.42 168.442857,16.4740952 C163.848286,14.9227619 159.514952,13.7502857 155.191524,12.8848571 C152.948095,12.4379048 150.287429,11.921619 147.553714,11.4858095 C146.272286,11.2753333 145.036667,11.154 143.846857,11.037619 C143.354095,10.9880952 142.857619,10.9422857 142.364857,10.8853333 C139.165619,10.5324762 136.309333,10.3591429 133.627619,10.3591429 L133.450571,10.3591429 L133.448095,10.3591429 C132.882286,10.3591429 132.280571,10.3207619 131.639238,10.2799048 C130.888952,10.2204762 130.033429,10.1672381 129.133333,10.1672381 L129.133333,10.1672381 Z" id="Shape" fill="#D6322A"></path>
            <path d="M129.130857,22.6757143 C129.653333,22.6757143 130.257524,22.7128571 130.893905,22.7549524 C131.647905,22.8032381 132.507143,22.8564762 133.469143,22.8564762 L133.474095,22.8564762 L133.597905,22.8564762 C135.85619,22.8564762 138.284095,23.0050476 141.014095,23.309619 C141.57,23.3702857 142.125905,23.4297143 142.683048,23.4829524 C143.730476,23.5869524 144.719714,23.6822857 145.64581,23.8308571 C148.201238,24.2419048 150.703429,24.7284762 152.813143,25.1457143 C156.621524,25.908381 160.469524,26.9520952 164.567619,28.3338095 C167.01781,29.159619 169.425905,30.1389524 171.971429,31.1752381 L173.028762,31.6060952 C176.866857,33.1586667 180.873333,35.1817143 185.285905,37.7879048 C189.287429,40.156381 193.270381,42.8715238 197.123333,45.8615238 C200.424095,48.4280952 203.702571,51.3066667 206.860952,54.4142857 C208.418476,55.9458095 209.895524,57.6184762 211.458,59.3877143 C212.069619,60.0785714 212.681238,60.7694286 213.292857,61.451619 C216.098381,64.571619 218.526286,67.9986667 220.325238,70.6382857 C224.214095,76.3384762 227.528476,82.3494286 230.181714,88.5052381 C232.425143,93.7089524 234.231524,98.9238095 235.557524,103.998762 C236.981333,109.469905 237.843048,113.948095 238.261524,118.089524 C238.350667,118.980952 238.45219,119.869905 238.553714,120.762571 C238.802571,122.949048 239.032857,125.01419 239.096,127.026095 C239.190095,130.078 239.260667,134.096857 238.987048,138.10581 C238.759238,141.374381 238.444762,144.550095 238.046095,147.558667 C237.632571,150.708381 236.987524,154.092095 236.070095,157.915333 C234.991714,162.439333 233.52581,167.085905 231.712,171.725048 C230.072762,175.929619 228.193333,179.983143 226.12819,183.779143 C224.04819,187.607333 221.65,191.445429 219.011619,195.18819 C216.32,198.992857 213.268095,202.746762 209.926476,206.348381 C206.17381,210.396952 201.934571,214.284571 197.325143,217.908476 C192.905143,221.39 187.98619,224.64619 182.335524,227.828095 C182.309524,227.835524 182.287238,227.841714 182.258762,227.847905 L180.827524,228.19581 L179.729333,229.182571 C179.704571,229.203619 179.688476,229.223429 179.663714,229.243238 L179.455714,229.358381 C178.608857,229.827619 177.809048,230.272095 177.032762,230.632381 C175.639905,231.287333 174.234667,231.897714 172.742762,232.545238 L171.39819,233.132095 C168.140762,234.550952 164.636952,235.681333 161.029143,236.799333 C160.765429,236.84019 160.501714,236.894667 160.238,236.961524 L156.802286,237.839333 C155.228667,238.240476 153.65381,238.646571 152.103714,239.034095 C151.608476,239.15419 151.032762,239.25819 150.492952,239.348571 L149.381143,239.529333 C147.584667,239.826476 145.89219,240.11 144.196,240.339048 C142.922,240.512381 141.630667,240.641143 140.258857,240.777333 C139.688095,240.838 139.117333,240.894952 138.530476,240.958095 C138.025333,241.012571 137.517714,241.064571 137.011333,241.115333 L136.726571,241.141333 C135.447619,241.167333 134.16619,241.194571 132.883524,241.218095 L132.107238,241.231714 L131.361905,241.448381 C131.298762,241.465714 131.235619,241.484286 131.173714,241.506571 C130.980571,241.489238 130.767619,241.465714 130.554667,241.445905 L130.001238,241.386476 C129.917048,241.376571 129.829143,241.360476 129.742476,241.349333 C129.587714,241.322095 129.435429,241.298571 129.280667,241.27381 L129.004571,241.235429 L128.750762,241.219333 C128.448667,241.200762 128.149048,241.184667 127.788762,241.167333 C126.99019,241.141333 126.187905,241.127714 125.388095,241.111619 C123.695619,241.073238 122.097238,241.038571 120.549619,240.916 C118.297524,240.734 116.04419,240.423238 113.655905,240.093905 L112.836286,239.98 C112.410381,239.92181 111.863143,239.793048 111.284952,239.655619 C110.930857,239.571429 110.580476,239.486 110.225143,239.410476 L110.074095,239.379524 L109.923048,239.352286 C109.560286,239.295333 109.195048,239.24581 108.82981,239.19381 C108.292476,239.119524 107.78981,239.05019 107.433238,238.957333 C106.474952,238.714667 105.493143,238.416286 104.453143,238.105524 C103.91581,237.942095 103.374762,237.778667 102.834952,237.621429 L102.60219,237.552095 L102.366952,237.506286 C101.975714,237.424571 101.583238,237.357714 101.18581,237.285905 C100.634857,237.190571 100.113619,237.101429 99.7842857,236.99619 C96.6135238,235.993333 93.4217143,234.921143 90.3772381,233.883619 C90.2930476,233.821714 90.2051429,233.757333 90.1197143,233.699143 L88.8754286,232.825048 L87.3649524,232.664095 L87.3538095,232.664095 C86.255619,232.206 85.2131429,231.75781 84.2239048,231.27 C82.1686667,230.260952 80.5059048,229.39181 78.9842857,228.535048 L78.104,228.041048 C75.5844762,226.627143 73.203619,225.291238 70.8945714,223.836476 C65.090381,220.169238 59.4533333,215.698476 53.6714286,210.172857 C52.0099048,208.580667 50.348381,206.841143 48.7301905,204.993905 C45.6498095,201.492571 43.225619,198.467905 41.106,195.464286 C37.9302857,190.97619 35.3538095,186.81 33.2366667,182.730476 C32.0641905,180.467238 31.0241905,178.428095 30.1661905,176.371619 C28.9800952,173.531429 27.4460952,169.787429 26.1250476,165.969143 C24.8337143,162.221429 23.777619,158.247143 22.9852381,154.152762 C22.451619,151.407905 21.9749524,148.516952 21.5626667,145.540571 C21.3559048,144.064762 21.2531429,142.508476 21.1479048,140.860571 L21.0798095,139.866381 L21.047619,139.423143 C20.8854286,137.102952 20.7331429,134.910286 20.6662857,132.722571 C20.6539048,132.245905 20.6947619,131.638 20.7393333,130.995429 C20.7888571,130.252571 20.8495238,129.409429 20.8433333,128.515524 C20.8297143,126.150762 20.9758095,123.695619 21.2890476,121.01019 C21.3608571,120.403524 21.4165714,119.796857 21.476,119.187714 C21.5688571,118.233143 21.6530476,117.328095 21.788,116.513429 C22.2275238,113.872571 22.7388571,111.15 23.348,108.194667 C24.401619,103.093714 25.935619,97.9927619 28.0440952,92.5946667 C29.9693333,87.6620952 31.6345714,84.0357143 33.4384762,80.8500952 L34.3620952,79.2170476 C35.4231429,77.336381 36.426,75.5584762 37.505619,73.8375238 C40.1811429,69.5722857 42.600381,66.2071429 45.1149524,63.2505714 C45.5965714,62.6847619 46.0732381,62.1177143 46.5548571,61.5506667 C47.7830476,60.0810476 48.9468571,58.6968571 50.1601905,57.3980952 C53.4287619,53.9041905 56.0621905,51.3859048 58.6993333,49.2390476 L59.3419048,48.7178095 C61.9282857,46.6118095 64.3710476,44.6221905 66.9314286,42.796 C72.2886667,38.9777143 77.8873333,35.7079048 83.5664762,33.0781905 C87.2089524,31.3968571 90.6062857,30.0052381 93.9578095,28.8191429 C98.0571429,27.3680952 102.38181,26.1522857 106.819143,25.2051429 C108.987048,24.7371429 111.121524,24.3421905 113.154476,24.0339048 C115.100762,23.7417143 117.172095,23.4990476 119.29419,23.322 C121.912762,23.1065714 125.360857,22.8341905 128.778,22.685619 C128.886952,22.6769524 129.010762,22.6757143 129.130857,22.6757143 L129.130857,22.6757143 Z M129.130857,16.8021905 C128.92781,16.8021905 128.727238,16.8046667 128.52419,16.8145714 C125.27419,16.9569524 122.036571,17.1959048 118.80019,17.4633333 C116.614952,17.6453333 114.434667,17.8954286 112.272952,18.2185714 C110.027048,18.5602857 107.78981,18.9775238 105.574857,19.4579048 C100.965429,20.4434286 96.4352381,21.7062857 91.9929524,23.2749524 C88.283619,24.5860952 84.6671429,26.0953333 81.0964762,27.742 C74.9047619,30.6069524 69.056,34.0575238 63.5155238,38.0082857 C60.5787619,40.1019048 57.7880952,42.3998095 54.9850476,44.6791429 C51.7189524,47.333619 48.736381,50.3062857 45.8627619,53.3792381 C44.0452381,55.3242857 42.3713333,57.408 40.6429524,59.436 C37.6306667,62.9744762 34.9898095,66.781619 32.526,70.7088571 C31.044,73.0686667 29.7068571,75.516381 28.3288571,77.9405714 C26.0594286,81.952 24.2394286,86.1726667 22.568,90.4552381 C20.4681905,95.8347619 18.759619,101.34181 17.5920952,107.002381 C17.0052381,109.838857 16.4666667,112.687714 15.99,115.540286 C15.7275238,117.121333 15.6346667,118.733333 15.4501905,120.326762 C15.132,123.054286 14.9512381,125.789238 14.963619,128.541524 C14.9747619,129.987619 14.7481905,131.441143 14.7878095,132.882286 C14.8633333,135.346095 15.040381,137.812381 15.2137143,140.271238 C15.3511429,142.305429 15.456381,144.340857 15.7399048,146.356476 C16.1521905,149.342762 16.6375238,152.315429 17.2132381,155.269524 C18.0390476,159.547143 19.1471429,163.764095 20.566,167.880762 C21.8214286,171.510857 23.256381,175.085238 24.7420952,178.634857 C25.7078095,180.951333 26.8592381,183.197238 28.0168571,185.432 C30.4435238,190.108286 33.2601905,194.550571 36.3059048,198.857905 C38.7820952,202.354286 41.4898095,205.66 44.3139048,208.870381 C45.9977143,210.789429 47.762,212.646571 49.6067619,214.412095 C55.211619,219.769333 61.1965714,224.65981 67.7572381,228.802476 C70.4773333,230.517238 73.3014286,232.079714 76.1069524,233.657048 C77.9170476,234.678476 79.7655238,235.626857 81.6325714,236.54181 C83.0068571,237.215333 84.4207619,237.805905 85.8371429,238.396476 C86.1107619,238.511619 86.4462857,238.474476 86.7471429,238.505429 C87.0913333,238.748095 87.4020952,239.079905 87.7846667,239.204952 C91.1844762,240.365048 94.5904762,241.50781 98.0113333,242.592381 C99.0414286,242.919238 100.137143,243.04181 101.195714,243.257238 C102.79781,243.724 104.381333,244.241524 105.993333,244.652571 C106.967714,244.901429 107.982952,244.986857 108.983333,245.14781 C110.004762,245.371905 111.016286,245.655429 112.045143,245.79781 C114.71819,246.160571 117.388762,246.545619 120.07419,246.764762 C122.576381,246.966571 125.089714,246.952952 127.60181,247.034667 C127.875429,247.049524 128.14781,247.065619 128.426381,247.081714 C128.75819,247.128762 129.093714,247.198095 129.425524,247.230286 C130.224095,247.308286 131.021429,247.412286 131.82,247.412286 C132.211238,247.412286 132.60619,247.20181 132.997429,247.08419 C134.359333,247.060667 135.72,247.033429 137.079429,247.003714 C137.777714,246.933143 138.477238,246.87 139.170571,246.790762 C141.104476,246.586476 143.052,246.415619 144.978476,246.156857 C147.142667,245.86219 149.294476,245.490762 151.446286,245.135429 C152.138381,245.022762 152.831714,244.90019 153.508952,244.734286 C156.231524,244.048381 158.954095,243.34019 161.682857,242.649333 C161.910667,242.592381 162.137238,242.568857 162.372476,242.529238 C166.219238,241.339429 170.052381,240.124857 173.748095,238.511619 C175.680762,237.667238 177.624571,236.845143 179.537429,235.946286 C180.737143,235.389143 181.894762,234.716857 183.058571,234.074286 C183.283905,233.949238 183.459714,233.730095 183.65781,233.548095 C183.962381,233.475048 184.291714,233.461429 184.550476,233.320286 C190.289048,230.118571 195.79981,226.587524 200.965143,222.516667 C205.702095,218.793714 210.146857,214.748857 214.238762,210.336286 C217.681905,206.623238 220.893524,202.712095 223.81419,198.56819 C226.536762,194.711524 229.042667,190.717429 231.296,186.576 C233.530762,182.464286 235.484476,178.211429 237.186857,173.857048 C239.048952,169.099048 240.604,164.242 241.788857,159.272286 C242.654286,155.653333 243.384762,152.012095 243.87381,148.316381 C244.304667,145.055238 244.621619,141.789143 244.84819,138.505714 C245.111905,134.610667 245.087143,130.723048 244.969524,126.837905 C244.875429,123.716667 244.423524,120.606571 244.106571,117.492762 C243.594,112.414095 242.528,107.439429 241.244095,102.508095 C239.783143,96.9168571 237.86781,91.4791429 235.581048,86.1739048 C232.724762,79.5500952 229.243238,73.2741905 225.183524,67.3214286 C222.859619,63.9154286 220.426762,60.5849524 217.663333,57.5169524 C215.45581,55.0667619 213.327524,52.5311429 210.98381,50.2233333 C207.741238,47.0315238 204.329048,44.0155238 200.731143,41.2199048 C196.750667,38.1271429 192.606762,35.2844762 188.279619,32.7240952 C184.081238,30.2429524 179.760286,27.9834286 175.231333,26.1510476 C172.324286,24.972381 169.423429,23.7627619 166.44581,22.7599048 C162.361333,21.3831429 158.200095,20.2255238 153.96581,19.3786667 C151.509429,18.888381 149.053048,18.4179048 146.579333,18.0217143 C144.95619,17.7617143 143.309524,17.6465714 141.675238,17.4645714 C138.993524,17.1686667 136.309333,16.9767619 133.602857,16.9767619 L133.460476,16.9767619 L133.41219,16.9767619 C131.979714,16.9841905 130.555905,16.8021905 129.130857,16.8021905 L129.130857,16.8021905 Z" id="Shape" fill="#FFFFFF"></path>
        </g>
    </g>
</svg>