<?xml version="1.0" encoding="UTF-8"?>
<svg width="449px" height="243px" viewBox="0 0 449 243" version="1.1" xmlns="http://www.w3.org/2000/svg" xmlns:xlink="http://www.w3.org/1999/xlink">
    <!-- Generator: Sketch 43.1 (39012) - http://www.bohemiancoding.com/sketch -->
    <title>publisher-small</title>
    <desc>Created with Sketch.</desc>
    <defs>
        <linearGradient x1="-0.0394267411%" y1="49.956814%" x2="99.9720642%" y2="49.956814%" id="linearGradient-1">
            <stop stop-color="#F8D73D" offset="2.25%"></stop>
            <stop stop-color="#FBE93C" offset="29.78%"></stop>
            <stop stop-color="#FBE755" offset="37.92%"></stop>
            <stop stop-color="#FBE487" offset="55.62%"></stop>
            <stop stop-color="#FBE58A" offset="59.27%"></stop>
            <stop stop-color="#FCE895" offset="62.39%"></stop>
            <stop stop-color="#FCEDA6" offset="65.3%"></stop>
            <stop stop-color="#FEF3BF" offset="68.07%"></stop>
            <stop stop-color="#FFFCDF" offset="70.75%"></stop>
            <stop stop-color="#FFFCDF" offset="70.79%"></stop>
            <stop stop-color="#FEEC98" offset="95.51%"></stop>
        </linearGradient>
        <linearGradient x1="-0.0546646124%" y1="50.039258%" x2="99.9568236%" y2="50.039258%" id="linearGradient-2">
            <stop stop-color="#E5A31E" offset="0%"></stop>
            <stop stop-color="#E5A522" offset="9.5%"></stop>
            <stop stop-color="#E7AA2D" offset="18.45%"></stop>
            <stop stop-color="#E9B340" offset="27.19%"></stop>
            <stop stop-color="#ECC05B" offset="35.8%"></stop>
            <stop stop-color="#F0D07D" offset="44.23%"></stop>
            <stop stop-color="#F3DD99" offset="50%"></stop>
            <stop stop-color="#EBD18F" offset="55.69%"></stop>
            <stop stop-color="#D5AF74" offset="66.09%"></stop>
            <stop stop-color="#B27A48" offset="80.06%"></stop>
            <stop stop-color="#81300C" offset="96.89%"></stop>
            <stop stop-color="#782200" offset="100%"></stop>
        </linearGradient>
        <linearGradient x1="0.0118772151%" y1="50.0332863%" x2="99.9759465%" y2="50.0332863%" id="linearGradient-3">
            <stop stop-color="#E5A31E" offset="0%"></stop>
            <stop stop-color="#E5A522" offset="9.5%"></stop>
            <stop stop-color="#E7AA2D" offset="18.45%"></stop>
            <stop stop-color="#E9B340" offset="27.19%"></stop>
            <stop stop-color="#ECC05B" offset="35.8%"></stop>
            <stop stop-color="#F0D07D" offset="44.23%"></stop>
            <stop stop-color="#F3DD99" offset="50%"></stop>
            <stop stop-color="#EBD18F" offset="55.69%"></stop>
            <stop stop-color="#D5AF74" offset="66.09%"></stop>
            <stop stop-color="#B27A48" offset="80.06%"></stop>
            <stop stop-color="#81300C" offset="96.89%"></stop>
            <stop stop-color="#782200" offset="100%"></stop>
        </linearGradient>
    </defs>
    <g id="Page-1" stroke="none" stroke-width="1" fill="none" fill-rule="evenodd">
        <g id="publisher-small" transform="translate(0.000000, -1.000000)" fill-rule="nonzero">
            <path d="M448.983951,132.767436 C448.983951,154.932515 431.017767,172.897202 408.854184,172.897202 L239.214307,172.897202 C217.050724,172.897202 201.630822,154.932515 201.630822,132.767436 L201.630822,110.627804 C201.630822,88.4627239 217.049227,70.4995337 239.214307,70.4995337 L408.852687,70.4995337 C431.01627,70.4995337 448.982454,88.4627239 448.982454,110.626307 L448.983951,132.767436 L448.983951,132.767436 Z" id="Shape" fill="#D3AC2F"></path>
            <circle id="Oval" fill="url(#linearGradient-1)" cx="142.308883" cy="115.004834" r="109.359902"></circle>
            <path d="M144.260883,1.06731288 C207.331141,1.00593865 258.575632,52.416589 258.484319,115.522773 C258.401988,178.127485 207.639509,229.846503 143.819288,229.671362 C80.7175951,229.494724 29.6766871,178.32508 29.856319,115.03627 C30.0374479,51.4884908 81.7190429,0.905644172 144.260883,1.06731288 Z M115.922454,213.220074 C117.946307,213.989497 120.061472,214.408638 122.163166,214.881669 C122.504466,214.962503 122.841276,215.028368 123.179583,215.104712 C126.544687,215.832221 129.942724,216.347166 133.358724,216.703436 C135.36162,216.924982 137.377988,217.025276 139.388368,217.148025 C140.247607,217.19892 141.118822,217.046233 141.958601,217.383043 C142.275951,217.511779 142.650184,217.451902 142.985497,217.335141 C143.253448,217.236344 143.522896,217.200417 143.804319,217.203411 C145.988344,217.230356 148.169374,217.194429 150.347411,217.014798 C151.868294,216.895043 153.39816,216.881571 154.914552,216.719902 C158.126969,216.378601 161.321423,215.907067 164.482945,215.248417 C165.491877,215.03735 166.550209,214.971485 167.485791,214.45654 C169.026135,214.30984 170.485644,213.835313 171.955632,213.405693 C177.738282,211.805472 183.306871,209.667853 188.697325,207.042233 C188.974258,206.898528 189.281129,206.807215 189.468245,206.528785 C189.605963,206.495853 189.748172,206.486871 189.87092,206.431485 C192.045963,205.406086 194.141669,204.235485 196.19546,203.008 C198.517202,201.61735 200.774577,200.121914 202.999018,198.575583 C206.016834,196.467902 208.855018,194.137178 211.645301,191.748074 C213.576344,190.096957 215.37416,188.303632 217.14054,186.477374 C218.320123,185.260368 219.511681,184.02989 220.628393,182.748515 C221.948687,181.23362 223.224074,179.679804 224.462037,178.103534 C225.960466,176.194945 227.430454,174.259411 228.755239,172.220589 C230.699755,169.222233 232.543975,166.165497 234.251975,163.014454 C235.675558,160.376859 236.949448,157.679387 238.111067,154.925031 C239.693325,151.18719 241.039067,147.350552 242.145301,143.437571 C242.777006,141.207141 243.356319,138.963239 243.821865,136.686405 C244.260466,134.548785 244.643681,132.409669 245.004442,130.263067 C245.212515,129.035583 245.362209,127.799117 245.458012,126.555166 C245.53735,125.484859 245.636147,124.408564 245.728957,123.342748 C245.905595,121.308417 246.028344,119.265104 246.071755,117.226282 C246.113669,115.185963 246.079239,113.13816 245.953497,111.087362 C245.787337,108.38989 245.591239,105.704393 245.296344,103.012908 C245.065816,100.88427 244.772417,98.7556319 244.378724,96.6509448 C243.553914,92.2589448 242.45816,87.9253252 241.058528,83.6755337 C239.958282,80.3448589 238.687387,77.0770552 237.253325,73.8751166 C235.260908,69.4247362 233.017006,65.1075828 230.376417,61.0149693 C228.51573,58.1318773 226.587681,55.2906994 224.439583,52.5992147 C222.836368,50.596319 221.228663,48.5889325 219.465276,46.7312393 C218.013252,45.2028712 216.615117,43.6146258 215.03735,42.1910429 C213.335337,40.659681 211.708172,39.0444908 209.950773,37.5640245 C207.646994,35.6165153 205.28184,33.7558282 202.808908,32.0208834 C197.35708,28.2037055 191.608859,24.910454 185.51784,22.2174724 C182.720074,20.984 179.887877,19.8418405 176.988319,18.8718282 C172.44962,17.3479509 167.839067,16.126454 163.122233,15.2597301 C159.99065,14.6819141 156.844098,14.2747485 153.694552,13.8825521 C151.524,13.6116074 149.338479,13.6250798 147.160442,13.4768834 C143.825276,13.2478528 140.491607,13.5861595 137.157939,13.6565153 C137.08908,13.6565153 137.01573,13.6565153 136.948368,13.6714847 C135.21492,14.0008098 133.442552,14.0172761 131.692638,14.241816 C129.601423,14.5127607 127.511706,14.818135 125.442945,15.1998528 C122.104785,15.8091043 118.810037,16.6024785 115.548221,17.5635092 C110.172736,19.1457669 104.961914,21.1471656 99.9037791,23.5467485 C97.3934233,24.7413006 94.9758773,26.1214724 92.564319,27.5091288 C89.9132515,29.0300123 87.3699632,30.7230429 84.8805644,32.4939141 C82.7668957,34.0013252 80.7071166,35.5910675 78.7356564,37.2930798 C77.1084908,38.6972025 75.4648589,40.0863558 73.9140368,41.5743067 C71.5339141,43.8601227 69.2391166,46.2282699 67.0865276,48.7476074 C65.6659387,50.4077055 64.2693006,52.0857669 62.9505031,53.8252025 C59.7530552,58.0300859 56.9028957,62.4684908 54.4045153,67.1239509 C52.792319,70.1282945 51.2953865,73.1940123 49.9960491,76.3480491 C48.2146994,80.6891534 46.7536933,85.1395337 45.539681,89.6662577 C44.8675583,92.1736196 44.3136933,94.716908 43.8706012,97.2721718 C43.4948712,99.4487117 43.1984785,101.641718 42.9350184,103.842209 C42.6925153,105.909472 42.4395337,107.984221 42.4066012,110.039509 C42.3377423,114.034822 42.1805644,118.034626 42.5293497,122.032933 C42.7209571,124.240908 42.899092,126.441399 43.1565644,128.64189 C43.4035583,130.701669 43.7313865,132.749472 44.1235828,134.782307 C44.6190675,137.364515 45.1938896,139.928761 45.9079264,142.469055 C46.9123681,146.049718 48.0545276,149.582479 49.4601472,153.020933 C50.9316319,156.625546 52.5123926,160.171779 54.3925399,163.595264 C55.7682209,166.09065 57.1888098,168.554601 58.7456196,170.940712 C60.8353374,174.135166 63.1256442,177.175436 65.5297178,180.146847 C67.5685399,182.657202 69.8633374,184.928049 71.9889816,187.35308 C72.5084172,187.947362 73.1760491,188.414405 73.7628466,188.953301 C74.7059141,189.829006 75.6010798,190.745129 76.571092,191.595387 C78.5575215,193.331828 80.5738896,195.012883 82.6755828,196.608613 C85.4943067,198.755215 88.4208098,200.73416 91.4491043,202.581374 C93.2588957,203.68611 95.1240736,204.686061 96.9727853,205.717448 C97.7481963,206.150061 98.5011534,206.702429 99.4472147,206.762307 C99.7840245,207.257791 100.346871,207.397006 100.839362,207.627534 C103.88562,209.066086 106.991755,210.360933 110.169742,211.464172 C112.061865,212.103362 113.943509,212.817399 115.922454,213.220074 Z" id="Shape_1_" fill="url(#linearGradient-2)"></path>
            <g id="Group" transform="translate(72.469145, 35.174527)" fill="#3E3E5E">
                <path d="M121.844319,128.576025 C121.185669,127.809595 120.426724,127.138969 119.709693,126.426429 C98.465227,105.171485 77.2192638,83.9195337 55.986773,62.6571043 C55.5197301,62.1930552 55.2442945,62.0942577 54.7353374,62.6032147 C49.4811043,67.8888834 44.2119018,73.156589 38.9337178,78.4168098 C38.5130798,78.834454 38.5325399,79.1068957 38.9307239,79.5350184 C39.6806871,80.3463558 40.4710675,81.1532025 41.0533742,82.0827975 C43.253865,85.6140613 42.6595828,90.3548466 39.7315828,93.2873374 C37.8125153,95.2079018 35.9039264,97.1449325 33.9639018,99.0400491 C33.5791902,99.4172761 33.1001718,99.7974969 32.6001963,99.9352147 C31.3337914,100.285497 30.0434356,100.647755 28.7396074,100.746552 C23.6290798,101.141742 18.5230429,101.137252 13.4439509,100.278012 C13.3691043,100.263043 13.2792883,100.336393 13.0712147,100.41573 L13.7702822,101.111804 C15.8614969,103.207509 18.0036074,105.255313 20.0259632,107.415387 C20.9241227,108.368933 21.759411,108.846454 23.0886871,108.397374 C23.823681,108.151877 24.6694479,108.213252 25.465816,108.16984 C30.5733497,107.885423 35.4653252,108.606945 40.060908,111.037963 C44.7448098,113.51389 48.1383558,117.172393 50.3957301,121.911681 C52.0498405,125.384564 52.747411,129.093963 52.7369325,132.912638 C52.7294479,134.887092 52.4525153,136.858552 52.3312638,138.831509 C52.3088098,139.175804 52.3402454,139.64135 52.548319,139.852417 C55.1275337,142.484025 57.738184,145.079706 60.5389448,147.877472 C59.8623313,142.371755 59.6527607,137.139975 60.1617178,131.903706 C60.4072147,129.390356 60.9520982,126.984785 63.2049816,125.329178 C64.1211043,124.657055 64.8426258,123.724466 65.6599509,122.916123 C65.8545521,122.721521 66.0536442,122.505963 66.2946503,122.384712 C68.6253742,121.191656 71.1072883,120.461153 73.6820123,120.045006 C80.0709202,119.01362 86.3655215,119.802503 92.5703067,121.314405 C97.201816,122.440098 101.813865,123.736442 106.336098,125.254331 C110.485595,126.643485 114.524319,128.369448 118.567534,130.053497 C120.633301,130.917227 120.607853,131.041472 121.860785,129.565497 C122.01946,129.364908 122.011975,128.772123 121.844319,128.576025" id="Shape_2_"></path>
                <path d="M47.4931779,137.726773 C47.6967607,135.701423 47.9153129,133.641644 47.779092,131.613301 C47.3285153,124.754356 44.4184785,119.259117 38.3678773,115.690429 C34.5701595,113.454012 30.4071902,112.907632 26.0556074,112.942061 C23.1620368,112.969006 20.9061595,113.892613 19.1562454,116.193399 C18.5679509,116.973301 17.7835583,117.602012 17.0171288,118.365448 C28.4387239,123.957988 36.8604663,132.32135 42.4365399,143.751926 C43.8855706,142.304393 45.2717301,140.997571 46.5486135,139.597939 C47.0081718,139.100957 47.4288098,138.38692 47.4931779,137.726773" id="Shape_3_"></path>
                <path d="M35.113546,75.1340368 C39.6851779,70.560908 44.0771779,66.1733988 48.5006135,61.7469693 L23.1021595,36.3485153 C22.2983067,50.9331288 27.3010552,63.3681472 35.113546,75.1340368" id="Shape_4_"></path>
                <path d="M16.4228466,110.542479 C12.9005644,107.075583 9.42319018,103.563779 5.9248589,100.072933 C5.71079755,99.861865 5.47278528,99.6747485 5.22728834,99.462184 L0.559852761,104.131117 C4.40846626,107.981227 8.17774233,111.735534 11.9215706,115.513791 C12.3601718,115.952393 12.644589,115.907485 13.0352883,115.510798 C14.1579877,114.367141 15.2702086,113.213006 16.436319,112.121742 C17.0770061,111.530454 17.0410798,111.147239 16.4228466,110.542479" id="Shape_5_"></path>
                <path d="M50.286454,144.433031 C50.0738896,144.215975 49.8328834,144.030356 49.5514601,143.784859 C48.2057178,145.127607 46.9482945,146.465865 45.5965644,147.699337 C45.0112638,148.236736 44.9738405,148.555583 45.5336933,149.106454 C49.0649571,152.610773 52.5872393,156.130061 56.0885644,159.66881 C56.5885399,160.173276 56.895411,160.099926 57.3534724,159.607436 C58.4192883,158.460785 59.5000736,157.315632 60.6736687,156.285742 C61.3218405,155.713914 61.3023804,155.414528 60.7140859,154.829227 C57.2187485,151.383288 53.7608344,147.901423 50.286454,144.433031" id="Shape_6_"></path>
                <path d="M137.572589,25.931362 C154.219975,44.7986994 160.661276,69.007092 153.757423,96.5626258 C152.859264,100.13281 149.811509,101.882724 146.706871,100.780982 C143.982454,99.8124663 142.62773,97.0835583 143.45254,94.0477791 C145.307239,87.2262577 146.154503,80.2909693 145.759313,73.2359264 C144.861153,57.1483926 139.169816,43.0023804 127.92935,31.4041472 C110.671215,13.5936442 89.6827239,7.5041227 65.4488834,12.3586748 C62.6840491,12.9140368 60.4416442,12.2568834 59.1722454,10.3333252 C57.9028466,8.40976687 57.8160245,5.95928834 59.3668466,4.19590184 C60.2141104,3.23038037 61.5359018,2.39808589 62.7858405,2.11666258 C83.0288589,-2.45496933 102.095288,0.594282209 119.920761,11.2374724 C125.661497,14.662454 130.766037,18.9062577 137.572589,25.931362" id="Shape_7_"></path>
                <path d="M118.313055,38.4831411 C132.486012,53.6590429 137.632466,71.3183558 133.024908,91.6796319 C132.911141,92.1796074 132.770429,92.6691043 132.620736,93.1600982 C131.671681,96.2377914 128.879902,97.8410061 125.959387,96.9907485 C123.110724,96.1599509 121.586847,93.341227 122.407166,90.2949693 C123.577767,85.9673374 124.089718,81.5753374 124.056785,77.0890307 C123.865178,53.1096687 103.450012,32.7663558 79.4571779,32.8426994 C75.7986748,32.8531779 72.1222086,33.4115337 68.4921472,33.9698896 C65.1405153,34.4803436 62.4610061,33.0597546 61.7529571,30.012 C61.0613742,27.0331043 62.884638,24.2547975 66.1539387,23.5766871 C85.1829448,19.6517301 102.042896,23.9643926 116.599067,36.9487853 C117.170896,37.4592393 117.744221,37.9726871 118.313055,38.4831411" id="Shape_8_"></path>
                <path d="M105.312196,55.6589448 C111.534945,62.3936442 114.352172,72.4186012 111.62027,83.9315092 C110.846356,87.1723681 108.042601,88.9656933 105.095141,88.2336933 C102.047387,87.4807362 100.507043,84.6290798 101.33335,81.2804417 C105.129571,65.9204172 92.2484663,52.5423313 76.6743804,55.6694233 C73.7074601,56.2637055 71.2839264,55.1035828 70.2345767,52.5827485 C69.2495951,50.2116074 70.0534479,47.5560491 72.2943558,46.1414479 C72.9649816,45.7133252 73.777816,45.4438773 74.5607117,45.2687362 C84.9269693,42.921546 95.8141595,46.1519264 105.312196,55.6589448" id="Shape_9_"></path>
            </g>
            <path d="M28.8952883,206.021325 L252.810945,206.021325 C262.928712,206.021325 271.217227,212.778479 271.217227,222.900736 L271.217227,225.445521 C271.217227,235.558798 262.928712,243.482061 252.810945,243.482061 L0.907141104,243.482061 L28.8952883,206.021325 Z" id="Shape_10_" fill="url(#linearGradient-3)"></path>
            <g id="Group_1_" transform="translate(74.672774, 215.994042)" fill="#3E3E5E">
                <path d="M5.16741104,10.8572515 C4.96981595,10.8572515 3.72287117,10.8333006 3.52677301,10.8333006 L3.52677301,17.7311656 L0.49398773,17.7311656 L0.49398773,0.604760736 L5.26620859,0.604760736 C8.17923926,0.604760736 9.5713865,2.75884663 9.5713865,5.49823313 C9.5713865,9.04596319 7.46669939,10.8572515 5.16741104,10.8572515 Z M4.14051534,8.23911656 C6.12245399,8.23911656 6.68380368,7.9966135 6.68380368,5.49973006 C6.68380368,4.13153374 6.36645399,3.05374233 5.14346012,3.05374233 L3.52826994,3.05374233 L3.52826994,8.23911656 L4.14051534,8.23911656 L4.14051534,8.23911656 Z" id="Shape_11_"></path>
                <path d="M25.2757055,0.604760736 L25.2757055,14.1355337 C25.2757055,15.8719755 23.9075092,17.9512147 20.8477791,17.9512147 C17.4961472,17.9512147 16.2506994,15.8719755 16.2506994,14.1355337 L16.2506994,0.604760736 L19.3059387,0.604760736 L19.3059387,14.1100859 C19.3059387,14.6205399 19.7714847,15.505227 20.8462822,15.505227 C21.7264785,15.505227 22.2144785,14.6235337 22.2144785,14.1100859 L22.2144785,0.604760736 L25.2757055,0.604760736 Z" id="Shape_12_"></path>
                <path d="M41.6162209,12.8406871 C41.6162209,15.6070184 40.0010307,17.7341595 37.0640491,17.7341595 L32.5133742,17.7341595 L32.5133742,0.606257669 L36.4772515,0.606257669 C39.3154356,0.606257669 40.9306258,2.19899387 40.9306258,4.91592638 C40.9306258,6.35896933 40.2674847,7.97116564 38.996589,8.48611043 C40.5878282,9.17170552 41.6162209,10.4650552 41.6162209,12.8406871 Z M35.5731043,7.11641718 L35.7213006,7.11641718 C37.8978405,7.11641718 38.264589,6.65087117 38.264589,5.01173006 C38.264589,3.79023313 37.7990429,3.05523926 36.7242454,3.05523926 L35.5731043,3.05523926 L35.5731043,7.11641718 Z M36.5970061,15.2851779 C37.8229939,15.2851779 38.7046871,14.2088834 38.7046871,12.8376933 C38.7046871,11.0009571 38.1388466,9.70611043 36.1823558,9.70611043 L35.5716074,9.70611043 L35.5716074,15.2851779 L36.5970061,15.2851779 L36.5970061,15.2851779 Z" id="Shape_13_"></path>
                <polygon id="Shape_14_" points="55.3625521 15.2851779 55.3625521 17.7326626 48.2925399 17.7326626 48.2925399 0.604760736 51.3522699 0.604760736 51.3522699 15.2851779"></polygon>
                <polygon id="Shape_15_" points="65.0986012 17.7326626 62.0388712 17.7326626 62.0388712 0.604760736 65.0986012 0.604760736"></polygon>
                <path d="M77.8674356,5.40242945 L77.8674356,4.6913865 C77.8674356,3.49084663 77.2327362,2.83219632 76.4992393,2.83219632 C75.7178405,2.83219632 75.1310429,3.39354601 75.1310429,4.17793865 C75.1310429,4.91442945 75.2777423,5.47428221 75.9842945,6.28112883 L79.0440245,9.78095706 C80.2655215,11.1760982 81.0259632,12.1026994 81.0259632,14.1340368 C81.0259632,16.6039755 78.9467239,17.9721718 76.4992393,17.9721718 C74.0307975,17.9721718 72.045865,16.5800245 72.045865,14.1340368 L72.045865,12.3496933 L75.1280491,12.3496933 L75.1280491,13.9424294 C75.1280491,14.994773 75.7133497,15.5067239 76.4962454,15.5067239 C77.2536933,15.5067239 77.8659387,14.9423804 77.8659387,13.9424294 C77.8659387,13.0367853 77.5006871,12.3496933 76.8659877,11.6176933 L74.3212025,8.99955828 C72.7060123,7.09246626 72.0189202,6.55057669 72.0189202,4.20188957 C72.0189202,1.88164417 73.8796074,0.387705521 76.4962454,0.387705521 C79.0919264,0.387705521 80.9241718,1.92804908 80.9241718,4.20188957 L80.9241718,5.40242945 L77.8674356,5.40242945 L77.8674356,5.40242945 Z" id="Shape_16_"></path>
                <polygon id="Shape_17_" points="97.2916319 0.604760736 97.2916319 17.7326626 94.2333988 17.7326626 94.2333988 9.68365644 91.0015215 9.68365644 91.0015215 17.7326626 87.9432883 17.7326626 87.9432883 0.604760736 91.0015215 0.604760736 91.0015215 7.2601227 94.2333988 7.2601227 94.2333988 0.604760736"></polygon>
                <polygon id="Shape_18_" points="107.587534 3.05374233 107.587534 7.2601227 110.69816 7.2601227 110.69816 9.70910429 107.587534 9.70910429 107.587534 15.2866748 112.262454 15.2866748 112.262454 17.7356564 104.530798 17.7356564 104.530798 0.607754601 111.916663 0.607754601 111.916663 3.05523926 107.587534 3.05523926"></polygon>
                <path d="M125.863583,17.7326626 L122.949055,10.8347975 L121.973055,10.8347975 L121.973055,17.7326626 L118.938773,17.7326626 L118.938773,0.606257669 L124.052294,0.606257669 C126.987779,0.606257669 128.384417,2.76034356 128.384417,5.49973006 C128.384417,8.0430184 127.282675,9.68515337 125.812687,10.4171534 L129.046061,17.7311656 L125.863583,17.7326626 L125.863583,17.7326626 Z M121.971558,8.23911656 L122.947558,8.23911656 C124.930994,8.23911656 125.468393,7.9966135 125.468393,5.49973006 C125.468393,4.13153374 125.149546,3.05374233 123.952,3.05374233 L121.968564,3.05374233 L121.968564,8.23911656 L121.971558,8.23911656 Z" id="Shape_19_"></path>
            </g>
            <g id="Group_2_" transform="translate(278.445254, 93.715201)" fill="#3E3E5E">
                <path d="M19.0499632,21.3312883 C18.677227,22.5423067 17.9631902,24.2113865 15.3630184,25.3909693 C14.4349202,25.7951411 13.6894479,25.9792638 11.7688834,26.196319 L11.7688834,29.9132025 L9.29146012,29.9132025 L9.29146012,26.196319 C8.70166871,26.1334479 8.14780368,26.0735706 7.55801227,25.9807607 C5.01771779,25.5780859 3.06721472,24.6784294 2.2603681,24.2143804 C1.8277546,23.9673865 1.36220859,23.6575215 0.926601227,23.3461595 L3.77376687,20.1247607 C4.36355828,20.4346258 6.06706748,21.4869693 8.10888344,21.8597055 C8.48311656,21.9225767 8.88579141,21.9525153 9.28696933,21.982454 L9.28696933,17.2102331 C9.13428221,17.1802945 6.90385276,16.7776196 5.53715337,16.282135 C4.42493252,15.8495215 1.8232638,14.6729325 1.8232638,11.2030429 C1.8232638,6.95774233 4.89197546,5.50122699 6.34549693,5.0042454 C7.64333742,4.57013497 8.7929816,4.53869939 9.25703067,4.47732515 L9.25703067,0.94606135 L11.7673865,0.94606135 L11.7673865,4.50876074 C12.3571779,4.57013497 12.9454724,4.63300613 13.5053252,4.75874847 C16.014184,5.31411043 17.9646871,6.58650307 18.677227,7.01911656 L15.9528098,10.1791411 C13.6580123,9.0324908 13.2239018,8.96961963 11.7688834,8.6597546 L11.7688834,12.777816 C12.821227,13.0278037 13.9094969,13.2747975 14.928908,13.6160982 C17.3150184,14.3900123 18.2760491,15.4737914 18.8029693,16.5291288 C19.0514601,16.9931779 19.4212025,17.8928344 19.4212025,19.1622331 C19.4212025,19.9376442 19.298454,20.5873129 19.0499632,21.3312883 Z M9.25852761,8.62831902 C8.42323926,8.75256442 7.67776687,8.90525153 7.12090798,9.65072393 C6.84247853,10.0533988 6.77811043,10.4575706 6.77811043,10.6401963 C6.77811043,10.7644417 6.77811043,11.0443681 6.96373006,11.3542331 C7.27509202,11.912589 8.01757055,12.0982086 9.28696933,12.3452025 L9.25852761,8.62831902 Z M14.2463067,18.7595583 C13.7807607,17.9856442 12.5128589,17.7985276 11.7688834,17.6772761 L11.7688834,21.9210798 C12.0158773,21.8582086 13.3780859,21.7339632 14.062184,20.8043681 C14.4349202,20.3073865 14.4663558,19.8133988 14.4663558,19.5664049 C14.461865,19.1322945 14.3391166,18.9152393 14.2463067,18.7595583 Z" id="Shape_20_"></path>
                <path d="M26.5750429,25.8849571 L26.5750429,10.5488834 C26.1454233,10.736 25.864,10.8587485 25.4313865,10.9515583 C24.5631656,11.1686135 23.0452761,11.201546 22.1471166,11.201546 L22.1785521,8.00858896 L23.2952638,7.91577914 C24.7188466,7.79303067 25.5556319,7.29455215 26.0825521,6.95474847 C26.2996074,6.80056442 26.796589,6.48920245 27.1977669,5.93084663 C27.4761963,5.55811043 27.6019387,5.27968098 27.8174969,4.87850307 L31.5972515,4.87850307 L31.5972515,25.8849571 L26.5750429,25.8849571 Z" id="Shape_21_"></path>
                <path d="M49.7415706,22.2294479 C49.3044663,23.0976687 48.777546,23.8401472 48.0350675,24.5227485 C47.0740368,25.3909693 45.650454,26.2876319 42.8302331,26.2876319 C39.0504785,26.2876319 37.532589,24.088638 36.9158528,22.6635583 C36.5131779,21.7324663 36.4158773,20.8971779 36.3545031,20.5244417 L41.3108466,20.0289571 C41.3108466,20.3373252 41.2195337,21.3597301 41.9919509,22.0438282 C42.4589939,22.4764417 42.9829202,22.5078773 43.231411,22.5078773 C43.4185276,22.5078773 43.854135,22.4764417 44.2867485,22.2593865 C45.1235337,21.7938405 45.4333988,21.1157301 45.6818896,20.2759509 C46.0531288,19.1322945 46.1788712,18.2012025 46.270184,15.9079018 C46.0830675,16.2492025 45.960319,16.4048834 45.8660123,16.5276319 C45.339092,17.1787975 43.9454479,18.3568834 41.7165153,18.3568834 C39.2375951,18.3254479 37.1613497,16.8060613 36.3230675,14.485816 C36.1703804,14.0202699 35.9218896,13.153546 35.9218896,11.9140859 C35.9218896,11.0174233 35.9518282,9.00255215 37.4682209,7.11342331 C37.6553374,6.86343558 38.1822577,6.27813497 38.8962945,5.78265031 C39.6372761,5.28566871 41.2195337,4.54169325 43.4514601,4.54169325 C44.1026258,4.54169325 45.8031411,4.60456442 47.3853988,5.65690798 C49.4915828,7.05055215 50.9780368,9.68365644 50.9780368,14.8899877 C50.9795337,15.349546 51.0109693,19.5349693 49.7415706,22.2294479 Z M44.629546,8.69119018 C44.0711902,8.2271411 43.5113374,8.19420859 43.2029693,8.19420859 C42.9859141,8.19420859 42.4889325,8.22564417 41.9635092,8.5355092 C41.2210307,8.93668712 40.6641718,9.80490798 40.6641718,11.5712883 C40.6641718,13.4289816 41.3437791,14.2343313 42.1506258,14.5756319 C42.3377423,14.6684417 42.8032883,14.8226258 43.3302086,14.7911902 C44.4454233,14.7313129 45.6519509,13.9229693 45.6519509,11.5697914 C45.650454,9.96058896 45.1864049,9.15523926 44.629546,8.69119018 Z" id="Shape_22_"></path>
                <polygon id="Shape_23_" points="53.0752393 25.8849571 53.0752393 20.7100613 57.9732025 20.7100613 57.9732025 25.8849571"></polygon>
                <path d="M73.9679264,22.2294479 C73.5353129,23.0976687 73.0053988,23.8401472 72.2644172,24.5227485 C71.3003926,25.3909693 69.8798037,26.2876319 67.0580859,26.2876319 C63.2783313,26.2876319 61.7619387,24.088638 61.1407117,22.6635583 C60.7395337,21.7324663 60.6437301,20.8971779 60.5853497,20.5244417 L65.5431902,20.0289571 C65.5431902,20.3373252 65.4503804,21.3597301 66.2227975,22.0438282 C66.6868466,22.4764417 67.2122699,22.5078773 67.4607607,22.5078773 C67.6478773,22.5078773 68.0804908,22.4764417 68.5131043,22.2593865 C69.3528834,21.7938405 69.6597546,21.1157301 69.9082454,20.2759509 C70.2794847,19.1322945 70.405227,18.2012025 70.4965399,15.9079018 C70.3094233,16.2492025 70.1866748,16.4048834 70.0923681,16.5276319 C69.5684417,17.1787975 68.1747975,18.3568834 65.9413742,18.3568834 C63.4654479,18.3254479 61.3847117,16.8060613 60.5494233,14.485816 C60.3937423,14.0202699 60.1482454,13.153546 60.1482454,11.9140859 C60.1482454,11.0174233 60.178184,9.00255215 61.6945767,7.11342331 C61.8831902,6.86343558 62.4116074,6.27813497 63.1211534,5.78265031 C63.8636319,5.28566871 65.4443926,4.54169325 67.676319,4.54169325 C68.3274847,4.54169325 70.0309939,4.60456442 71.6117546,5.65690798 C73.7194356,7.05055215 75.2043926,9.68365644 75.2043926,14.8899877 C75.2058896,15.349546 75.240319,19.5349693 73.9679264,22.2294479 Z M68.8573988,8.69119018 C68.2990429,8.2271411 67.7406871,8.19420859 67.433816,8.19420859 C67.2152638,8.19420859 66.7197791,8.22564417 66.1928589,8.5355092 C65.4488834,8.93668712 64.8905276,9.80490798 64.8905276,11.5712883 C64.8905276,13.4289816 65.5731288,14.2343313 66.3814724,14.5756319 C66.567092,14.6684417 67.0311411,14.8226258 67.5565644,14.7911902 C68.6732761,14.7313129 69.8813006,13.9229693 69.8813006,11.5697914 C69.8783067,9.96058896 69.4157546,9.15523926 68.8573988,8.69119018 Z" id="Shape_24_"></path>
                <path d="M90.9401472,22.2294479 C90.5075337,23.0976687 89.9806135,23.8401472 89.236638,24.5227485 C88.2726135,25.3909693 86.8535215,26.2876319 84.0303067,26.2876319 C80.2520491,26.2876319 78.7341595,24.088638 78.1159264,22.6635583 C77.7117546,21.7324663 77.6189448,20.8971779 77.5575706,20.5244417 L82.5139141,20.0289571 C82.5139141,20.3373252 82.4226012,21.3597301 83.1950184,22.0438282 C83.6605644,22.4764417 84.1859877,22.5078773 84.4344785,22.5078773 C84.6215951,22.5078773 85.0542086,22.4764417 85.4868221,22.2593865 C86.3236074,21.7938405 86.6334724,21.1157301 86.8819632,20.2759509 C87.2532025,19.1322945 87.3804417,18.2012025 87.4702577,15.9079018 C87.2816442,16.2492025 87.1603926,16.4048834 87.0675828,16.5276319 C86.5391656,17.1787975 85.1470184,18.3568834 82.915092,18.3568834 C80.4391656,18.3254479 78.3599264,16.8060613 77.524638,14.485816 C77.3689571,14.0202699 77.1219632,13.153546 77.1219632,11.9140859 C77.1219632,11.0174233 77.1519018,9.00255215 78.6712883,7.11342331 C78.855411,6.86343558 79.3853252,6.27813497 80.0948712,5.78265031 C80.8388466,5.28566871 82.4211043,4.54169325 84.6500368,4.54169325 C85.3012025,4.54169325 87.0062086,4.60456442 88.5854724,5.65690798 C90.6931534,7.05055215 92.1781104,9.68365644 92.1781104,14.8899877 C92.1766135,15.349546 92.209546,19.5349693 90.9401472,22.2294479 Z M85.8266258,8.69119018 C85.2682699,8.2271411 84.7099141,8.19420859 84.4030429,8.19420859 C84.1844908,8.19420859 83.6890061,8.22564417 83.1635828,8.5355092 C82.4211043,8.93668712 81.8627485,9.80490798 81.8627485,11.5712883 C81.8627485,13.4289816 82.5438528,14.2343313 83.3506994,14.5756319 C83.537816,14.6684417 84.001865,14.8226258 84.5257914,14.7911902 C85.644,14.7313129 86.8520245,13.9229693 86.8520245,11.5697914 C86.8520245,9.96058896 86.3864785,9.15523926 85.8266258,8.69119018 Z" id="Shape_25_"></path>
                <path d="M106.054675,23.4943558 C105.172982,25.9598037 102.391681,26.1244663 101.792908,26.1244663 C101.331853,26.1244663 99.5684663,26.0496196 98.3724172,24.8520736 C97.3545031,23.8356564 97.3260613,22.5348221 97.3260613,21.2205153 L97.3260613,15.3315828 L99.9861104,15.3315828 L99.9861104,21.9076074 C99.9861104,22.8491779 100.05946,23.2069448 100.480098,23.5377669 C101.002528,23.9419387 101.704589,23.9419387 101.885718,23.9419387 C102.379706,23.9419387 102.809325,23.8820613 103.183558,23.5527362 C103.676049,23.1186258 103.689521,22.492908 103.689521,21.894135 L103.689521,15.3330798 L106.337595,15.3330798 L106.337595,21.2220123 C106.337595,21.9974233 106.307656,22.7608589 106.054675,23.4943558 Z" id="Shape_26_"></path>
                <path d="M116.630503,24.1066012 C115.718871,25.7666994 113.817767,25.9897423 113.311804,26.0496196 C112.967509,26.0930307 112.609742,26.1244663 112.251975,26.1244663 C110.160761,26.1244663 108.979681,25.4224049 108.276123,24.8520736 C107.994699,24.6125644 107.858479,24.4643681 107.440834,23.9703804 L109.440736,22.7159509 C109.484147,22.759362 109.696712,22.9988712 109.906282,23.1635337 C110.594871,23.7308712 111.611288,24.045227 112.492982,24.045227 C112.611239,24.045227 112.970503,24.045227 113.313301,23.9404417 C113.392638,23.9239755 114.437497,23.624589 114.437497,22.8177423 C114.437497,21.8462331 113.033374,21.8162945 112.08881,21.6830675 C111.596319,21.6231902 111.088859,21.5333742 110.596368,21.4136196 C109.831436,21.2190184 109.130871,20.9331043 108.605448,20.3058896 C108.50216,20.1876319 108.294086,19.9166871 108.160859,19.5289816 C108.115951,19.3777914 108.027632,19.0334969 108.027632,18.6008834 C108.027632,18.5110675 108.042601,18.166773 108.084515,17.8688834 C108.202773,17.1967607 108.490184,16.659362 108.996147,16.1803436 C109.520074,15.6878528 110.549963,15.0756074 112.283411,15.0756074 C112.927092,15.0756074 114.332712,15.150454 115.76827,16.1219632 C116.12454,16.3614724 116.337104,16.5426012 116.931387,17.0635337 L114.989865,18.4526871 C114.404564,17.8838528 114.004883,17.5560245 113.211509,17.301546 C113.076785,17.2716074 112.671117,17.1533497 112.225031,17.1533497 C111.150233,17.1533497 110.656245,17.7805644 110.656245,18.2760491 C110.656245,18.5574724 110.805939,18.7535706 110.877791,18.8284172 C111.235558,19.2161227 111.822356,19.2011534 112.807337,19.3508466 C113.40611,19.4421595 113.988417,19.5604172 114.570724,19.6951411 C114.944957,19.7699877 116.304172,20.0394356 116.843067,21.3253006 C116.919411,21.5199018 117.054135,21.9210798 117.054135,22.4599755 C117.052638,22.7608589 117.019706,23.3880736 116.630503,24.1066012 Z" id="Shape_27_"></path>
                <path d="M126.835092,24.3446135 C126.490798,24.733816 125.71389,25.4224049 124.428025,25.7187975 C123.844221,25.8535215 123.338258,25.8834601 122.740982,25.8834601 L118.598969,25.8834601 L118.598969,15.3315828 L121.96108,15.3315828 C122.291902,15.3315828 122.607755,15.3315828 122.92211,15.3465521 C123.369693,15.3764908 125.13308,15.4213988 126.418945,16.481227 C126.613546,16.6324172 126.926405,16.9138405 127.25573,17.4377669 C127.628466,18.0215706 128.04611,18.9601472 128.04611,20.5169571 C128.044613,22.5063804 127.402429,23.6874601 126.835092,24.3446135 Z M124.802258,18.4257423 C124.652564,18.2461104 124.339706,17.8898405 123.770871,17.7087117 C123.275387,17.545546 122.827804,17.5590184 122.320344,17.5590184 L121.259018,17.5590184 L121.259018,23.7623067 L122.068859,23.7623067 C122.845767,23.7623067 123.742429,23.7173988 124.429521,23.2069448 C124.96692,22.8042699 125.401031,22.0423313 125.401031,20.6052761 C125.399534,19.8014233 125.308221,19.0694233 124.802258,18.4257423 Z" id="Shape_28_"></path>
                <path d="M10.8138405,48.5455215 C10.225546,49.4376933 9.49504294,49.9047362 9.14925153,50.0664049 C8.80196319,50.2265767 8.17325153,50.4526135 7.17928834,50.4526135 C6.06407362,50.4526135 5.4967362,50.1247853 4.58211043,49.5589448 L4.58211043,53.9195092 L1.41759509,53.9195092 L1.41759509,39.6552393 L4.19739877,39.6552393 L4.22284663,40.6896196 C4.3830184,40.4875337 4.44439264,40.3857423 4.66743558,40.2225767 C5.05364417,39.8962454 5.88294479,39.4097423 7.18377914,39.4097423 C7.79303067,39.4097423 9.21361963,39.5100368 10.3692515,40.7509939 C11.445546,41.8856687 11.7928344,43.4499632 11.7928344,44.9274356 C11.7673865,46.7387239 11.2000491,47.9362699 10.8138405,48.5455215 Z M8.05349693,42.2958282 C7.81099387,42.012908 7.48615951,41.7883681 7.12090798,41.6880736 C6.91882209,41.6266994 6.75565644,41.6266994 6.67631902,41.6266994 C5.52068712,41.6266994 4.44439264,42.6820368 4.44439264,44.9768344 C4.44439264,45.1983804 4.40547239,46.4782577 4.99077301,47.3509693 C5.15543558,47.5740123 5.35452761,47.7775951 5.60002454,47.9183067 C5.74373006,48.0215951 6.1089816,48.2027239 6.59398773,48.2027239 C7.67028221,48.2027239 8.09690798,47.4303067 8.27504294,47.1054724 C8.52203681,46.6593865 8.784,46.0321718 8.784,44.8915092 C8.784,44.5891288 8.82591411,43.2074601 8.05349693,42.2958282 Z" id="Shape_29_"></path>
                <path d="M15.8749693,45.6040491 C15.8749693,45.7028466 15.8525153,45.9468466 15.9123926,46.2312638 C16.1578896,47.469227 17.0291043,48.2416442 18.2880245,48.2416442 C18.4736442,48.2416442 18.876319,48.2191902 19.3014479,48.0575215 C20.3582822,47.6922699 20.8223313,46.6159755 20.9675337,46.3525153 L23.3237055,47.5680245 C22.8940859,48.1967362 22.6710429,48.4796564 22.4285399,48.7655706 C20.8672393,50.4885399 18.8388957,50.6322454 18.0440245,50.6322454 C17.7206871,50.6322454 16.9707239,50.6112883 16.1369325,50.3478282 C13.7837546,49.6188221 12.6865031,47.5515583 12.6865031,45.1534724 C12.6865031,44.5038037 12.7239264,42.5368344 14.0472147,41.0129571 C14.6983804,40.282454 15.8120982,39.3319018 18.1278528,39.3319018 C18.8388957,39.3319018 20.9480736,39.4127362 22.2683681,41.258454 C23.4659141,42.9020859 23.4225031,45.0935951 23.4434601,45.6025521 L15.8749693,45.6025521 L15.8749693,45.6040491 Z M19.0619387,41.768908 C18.6353129,41.5668221 18.2895215,41.5668221 18.1083926,41.5668221 C16.8704294,41.5668221 16.3015951,42.478454 16.1384294,42.8466994 C16.0575951,43.0278282 15.9797546,43.2508712 15.8959264,43.6595337 L20.2190675,43.6595337 C20.1771534,43.3122454 20.1172761,42.2359509 19.0619387,41.768908 Z" id="Shape_30_"></path>
                <path d="M29.8727853,42.4589939 C29.768,42.4799509 29.2814969,42.5383313 28.8937914,42.6805399 C28.0629939,42.9634601 27.9207853,43.4933742 27.9207853,44.2822577 L27.9207853,50.2490307 L24.8176442,50.2490307 L24.8176442,39.6537423 L27.8399509,39.6537423 L27.8399509,40.7494969 C28.1019141,40.5279509 28.3878282,40.2435337 29.0779141,39.9606135 C29.9281718,39.616319 30.5194601,39.5744049 30.9056687,39.5354847 L30.9056687,42.2943313 L29.8727853,42.4589939 Z" id="Shape_31_"></path>
                <path d="M49.6846871,50.2505276 L49.6846871,44.6879264 C49.6846871,43.5936687 49.6846871,42.9649571 49.4017669,42.5188712 C49.1562699,42.1132025 48.6682699,41.9096196 48.223681,41.9096196 C47.9602209,41.9096196 47.2297178,41.9709939 46.8450061,42.6610798 C46.6010061,43.0877055 46.6219632,43.5322945 46.6219632,44.4888344 L46.6219632,50.2520245 L43.5158282,50.2520245 L43.5158282,43.963411 C43.5158282,42.9484908 43.3751166,42.500908 42.9080736,42.1970307 C42.6416196,42.012908 42.3212761,41.9335706 41.9964417,41.9335706 C41.8527362,41.9335706 41.4470675,41.9335706 41.1012761,42.1970307 C40.4516074,42.6835337 40.4336442,43.5158282 40.4336442,44.2059141 L40.4336442,50.2550184 L37.3484663,50.2550184 L37.3484663,39.6627239 L40.4336442,39.6627239 L40.4560982,40.7554847 C40.637227,40.5339387 40.7599755,40.3902331 40.9830184,40.2091043 C41.3886871,39.8842699 42.1581104,39.3783067 43.4394847,39.3783067 C43.6819877,39.3783067 44.7807362,39.3992638 45.5516564,39.8857669 C45.8749939,40.0863558 46.138454,40.3513129 46.403411,40.6162699 C46.7866258,40.2899387 46.9288344,40.1881472 47.1518773,40.0474356 C47.5171288,39.8258896 48.3913374,39.3783067 49.5454724,39.3783067 C49.9107239,39.3783067 51.3911902,39.4022577 52.2683926,40.5354356 C52.7743558,41.1641472 52.793816,41.8332761 52.793816,43.3571534 L52.793816,50.2550184 L49.6906748,50.2550184 L49.6906748,50.2505276 L49.6846871,50.2505276 Z" id="Shape_32_"></path>
                <path d="M63.8516564,49.3388957 C63.240908,49.8448589 62.0044417,50.5723681 60.0135215,50.5723681 C59.4656442,50.5723681 57.317546,50.4735706 55.853546,49.0529816 C55.2218405,48.4467239 54.3311656,47.1488834 54.3311656,44.9349202 C54.3311656,44.3271656 54.367092,42.6026994 55.5706258,41.1611534 C56.2996319,40.2869448 57.762135,39.194184 60.4401472,39.3558528 C61.6766135,39.4157301 62.773865,39.7001472 63.7678282,40.4920245 C65.0866258,41.568319 65.7153374,43.2523681 65.7153374,44.9558773 C65.7183313,47.3479755 64.5806626,48.7296442 63.8516564,49.3388957 Z M61.4356074,42.2149939 C61.154184,42.011411 60.7245644,41.8093252 59.8937669,41.8093252 C59.7500613,41.8093252 59.1632638,41.8482454 58.7186748,42.1117055 C58.1483436,42.4380368 57.4807117,43.3496687 57.4807117,44.9124663 C57.4807117,45.9468466 57.8235092,46.7192638 58.027092,47.0440982 C58.2680982,47.4093497 58.8803436,48.0784785 60.0569325,48.0784785 C61.7813988,48.0784785 62.553816,46.6354356 62.553816,45.0546748 C62.5508221,43.4529571 62.0448589,42.6401227 61.4356074,42.2149939 Z" id="Shape_33_"></path>
                <path d="M73.5802209,50.2505276 L73.5802209,44.2627975 C73.5802209,43.5517546 73.5562699,43.0263313 73.4604663,42.743411 C73.3167607,42.3796564 72.9305521,41.8916564 72.0368834,41.8916564 C71.8961718,41.8916564 71.3707485,41.8916564 70.9830429,42.2164908 C70.4576196,42.6221595 70.3947485,43.2718282 70.3947485,44.5292515 L70.3947485,50.2535215 L67.2706503,50.2535215 L67.2706503,39.6791902 L70.4321718,39.6791902 L70.4321718,40.5908221 C70.5354601,40.4890307 70.6552147,40.327362 70.9216687,40.1237791 C71.3078773,39.8423558 72.158135,39.3962699 73.4185521,39.3962699 C73.6610552,39.3962699 74.553227,39.417227 75.306184,39.8213988 C76.6025276,40.5129816 76.705816,41.7105276 76.705816,43.0083681 L76.705816,50.2520245 L73.5802209,50.2520245 L73.5802209,50.2505276 Z" id="Shape_34_"></path>
                <path d="M82.3657178,41.8272883 L82.3657178,46.5770552 C82.3657178,47.0051779 82.3417669,47.2446871 82.4450552,47.4288098 C82.6306748,47.7731043 83.114184,47.7731043 83.1755583,47.7731043 C83.5408098,47.7731043 83.9060613,47.7491534 84.269816,47.7491534 L84.269816,50.1666994 C84.069227,50.2026258 83.3387239,50.3268712 82.626184,50.3268712 C82.4031411,50.3268712 82.1815951,50.3268712 81.9750184,50.3044172 C81.6935951,50.2834601 80.7595092,50.3044172 80.0454724,49.6532515 C79.2356319,48.9437055 79.2760491,47.868908 79.2760491,46.892908 L79.2760491,41.8003436 L77.7357055,41.8003436 L77.7357055,39.8917546 L79.2760491,39.8917546 L79.2760491,36.5835337 L82.3627239,36.5835337 L82.3627239,39.9127117 L84.4314847,39.9127117 L84.4314847,41.8198037 L82.3627239,41.8198037 L82.3657178,41.8272883 L82.3657178,41.8272883 Z" id="Shape_35_"></path>
                <path d="M92.1242209,50.2505276 L92.1242209,44.7103804 C92.1242209,43.897546 92.164638,42.8242454 91.3937178,42.2988221 C91.1287607,42.1132025 90.8263804,42.0323681 90.5225031,42.0323681 C90.3593374,42.0323681 89.9521718,42.0712883 89.5899141,42.3152883 C88.9207853,42.7823313 88.838454,43.5143313 88.838454,44.9753374 L88.838454,50.2490307 L85.7128589,50.2490307 L85.7128589,35.9233865 L88.838454,35.9233865 L88.859411,40.7734479 C88.9207853,40.7135706 89.1872393,40.4111902 89.4671656,40.2061104 C90.4431656,39.4546503 91.4176687,39.3753129 91.8637546,39.3753129 C93.2813497,39.3753129 94.094184,40.0414479 94.4384785,40.4276564 C94.6600245,40.6716564 94.8441472,40.9755337 94.9459387,41.280908 C95.1315583,41.7479509 95.2303558,42.2718773 95.2303558,43.2882945 L95.2303558,50.2505276 L92.1257178,50.2505276 L92.1257178,50.2505276 L92.1242209,50.2505276 Z" id="Shape_36_"></path>
            </g>
        </g>
    </g>
</svg>