<?xml version="1.0" encoding="UTF-8"?>
<svg width="260px" height="260px" viewBox="0 0 260 260" version="1.1" xmlns="http://www.w3.org/2000/svg" xmlns:xlink="http://www.w3.org/1999/xlink">
    <!-- Generator: Sketch 43.1 (39012) - http://www.bohemiancoding.com/sketch -->
    <title>robot</title>
    <desc>Created with Sketch.</desc>
    <defs>
        <linearGradient x1="-0.000102012711%" y1="50.000255%" x2="100.000459%" y2="50.000255%" id="linearGradient-1">
            <stop stop-color="#FCF3DD" offset="0%"></stop>
            <stop stop-color="#FAEDC9" offset="0%"></stop>
            <stop stop-color="#F6DD92" offset="0%"></stop>
            <stop stop-color="#F0C83B" offset="55.06%"></stop>
            <stop stop-color="#F0C731" offset="66.8%"></stop>
            <stop stop-color="#EFC41A" offset="100%"></stop>
        </linearGradient>
        <ellipse id="path-2" cx="122.07619" cy="122.004381" rx="121.366762" ry="121.366762"></ellipse>
        <linearGradient x1="0.000143839155%" y1="50.0001958%" x2="100.000433%" y2="50.0001958%" id="linearGradient-4">
            <stop stop-color="#D471AD" offset="0%"></stop>
            <stop stop-color="#C7158C" offset="50%"></stop>
            <stop stop-color="#9D248E" offset="100%"></stop>
        </linearGradient>
    </defs>
    <g id="Page-1" stroke="none" stroke-width="1" fill="none" fill-rule="evenodd">
        <g id="robot">
            <circle id="Oval" fill="url(#linearGradient-1)" fill-rule="nonzero" cx="129.504762" cy="130.671048" r="121.366762"></circle>
            <g id="Clipped" transform="translate(7.428571, 8.666667)">
                <mask id="mask-3" fill="white">
                    <use xlink:href="#path-2"></use>
                </mask>
                <g id="SVGID_2_"></g>
                <g id="Group" mask="url(#mask-3)" fill-rule="nonzero">
                    <g transform="translate(24.761905, 68.095238)">
                        <polygon id="Shape" fill="#FFFFFF" points="160.371714 74.5890476 185.068 46.5127619 183.988381 42.9433333 159.288381 71.0134286"></polygon>
                        <path d="M156.050762,85.67 C161.633333,85.67 166.157333,78.7440952 166.157333,70.2 C166.157333,61.6534286 161.633333,54.7287619 156.050762,54.7287619 L156.050762,85.67 Z" id="Shape" fill="#B469A9"></path>
                        <polygon id="Shape" fill="#FFFFFF" points="47.9192381 74.5890476 10.1090476 46.5127619 11.7668571 42.9433333 49.5770476 71.0134286"></polygon>
                        <circle id="Oval" fill="#0A95B5" cx="9.40580952" cy="44.0167619" r="8.43761905"></circle>
                        <ellipse id="Oval" fill="#0A95B5" cx="184.784476" cy="44.3968571" rx="5.11209524" ry="5.11209524"></ellipse>
                        <path d="M108.151333,0.533619048 C139.851524,0.533619048 159.859143,18.654381 159.859143,58.1941905 L159.859143,231.236571 L108.151333,231.236571 L42.7922857,231.236571 L42.7922857,58.1941905 C42.7922857,18.6531429 76.4511429,0.533619048 108.151333,0.533619048 Z" id="Shape" fill="#30B3C1"></path>
                        <ellipse id="Oval" fill="#FFFFFF" cx="134.11419" cy="32.3501905" rx="5.64695238" ry="7.38895238"></ellipse>
                        <ellipse id="Oval" fill="#FFFFFF" cx="89.9129524" cy="32.3514286" rx="7.38771429" ry="7.38771429"></ellipse>
                        <rect id="Rectangle-path" fill="#B469A9" x="134.174857" y="54.5108571" width="3.28219048" height="20.4545714"></rect>
                        <rect id="Rectangle-path" fill="#B469A9" x="128.05619" y="54.5108571" width="2.95409524" height="20.4545714"></rect>
                        <rect id="Rectangle-path" fill="#B469A9" x="112.285333" y="54.5108571" width="5.24952381" height="20.4545714"></rect>
                        <rect id="Rectangle-path" fill="#B469A9" x="121.43981" y="54.5108571" width="3.13609524" height="20.4545714"></rect>
                        <rect id="Rectangle-path" fill="#B469A9" x="101.149905" y="54.5108571" width="6.54828571" height="20.4545714"></rect>
                        <rect id="Rectangle-path" fill="#B469A9" x="88.8259048" y="54.5108571" width="6.54580952" height="20.4545714"></rect>
                        <path d="M54.5331429,85.67 C45.9890476,85.67 39.0631429,78.7440952 39.0631429,70.2 C39.0631429,61.6534286 45.9890476,54.7287619 54.5331429,54.7287619 L54.5331429,85.67 Z" id="Shape" fill="#B469A9"></path>
                        <path d="M53.6280952,54.7312381 C57.2680952,54.7312381 60.2246667,61.6534286 60.2246667,70.2 C60.2246667,78.7440952 57.2693333,85.67 53.6280952,85.67 L53.6280952,54.7312381 Z" id="Shape" fill="#B469A9"></path>
                        <path d="M119.269429,88.1882857 C143.958286,88.1882857 152.456571,97.3712381 152.456571,127.335619 L152.456571,135.351048 L152.456571,155.047905 L152.456571,163.059619 C152.456571,193.024 143.959524,206.75819 119.269429,206.75819 C94.5818095,206.75819 68.3651429,193.024 68.3651429,163.059619 L68.3651429,155.047905 L68.3651429,135.351048 L68.3651429,127.335619 C68.3651429,97.3712381 94.5805714,88.1882857 119.269429,88.1882857 Z" id="Shape" fill="#B469A9"></path>
                    </g>
                </g>
            </g>
            <path d="M0.88647619,125.14419 C1.34457143,96.0254286 12.623619,66.2900952 35.970381,41.5665714 C60.2098095,15.899619 90.2138095,2.19390476 125.53419,0.984285714 C161.326286,-0.242666667 192.370286,11.7718095 218.710762,35.9889524 C243.992667,60.4871429 257.845714,90.2435238 259.028095,125.483429 C260.225333,161.185143 248.517905,192.374 224.051905,218.398762 C199.766667,244.234095 169.524952,257.491619 134.132762,259.075143 C97.8491429,259.722667 66.3841905,247.761429 40.1514286,222.647905 C15.951619,199.481905 0.88647619,166.450762 0.88647619,125.14419 Z M122.925524,244.910095 C124.283714,244.937333 125.645619,244.968286 127.007524,244.990571 C127.397524,245.104476 127.788762,245.313714 128.183714,245.313714 C128.984762,245.313714 129.782095,245.210952 130.57819,245.132952 C130.91,245.103238 131.239333,245.035143 131.573619,244.984381 C131.849714,244.969524 132.118381,244.948476 132.399429,244.941048 C134.904095,244.854381 137.418667,244.866762 139.917143,244.669905 C142.598857,244.452 145.269429,244.064476 147.94,243.700476 C148.967619,243.558095 149.977905,243.272095 150.995619,243.051714 C151.996,242.890762 153.013714,242.802857 153.988095,242.555238 C155.595143,242.147905 157.179905,241.631619 158.783238,241.162381 C159.840571,240.946952 160.93381,240.826857 161.96019,240.501238 C165.383524,239.41419 168.784571,238.268952 172.181905,237.118762 C172.562,236.988762 172.871524,236.653238 173.213238,236.413048 C173.524,236.380857 173.85581,236.420476 174.12819,236.305333 C175.538381,235.712286 176.954762,235.129143 178.329048,234.451905 C180.191143,233.534476 182.043333,232.587333 183.85219,231.568381 C186.657714,229.994762 189.478095,228.433524 192.194476,226.72 C198.75019,222.577333 204.731429,217.69181 210.330095,212.339524 C212.172381,210.574 213.937905,208.720571 215.618,206.804 C218.439619,203.597333 221.148571,200.291619 223.622286,196.797714 C226.659333,192.494095 229.472286,188.059238 231.902667,183.379238 C233.060286,181.149429 234.204286,178.908476 235.177429,176.590762 C236.659429,173.047333 238.091905,169.476667 239.348571,165.846571 C240.761238,161.732381 241.868095,157.519143 242.697619,153.247714 C243.273333,150.294857 243.75619,147.325905 244.168476,144.340857 C244.443333,142.326476 244.554762,140.288571 244.694667,138.258095 C244.869238,135.800476 245.045048,133.340381 245.115619,130.879048 C245.156476,129.432952 244.934857,127.983143 244.938571,126.538286 C244.955905,123.790952 244.773905,121.057238 244.456952,118.329714 C244.273714,116.736286 244.178381,115.129238 243.917143,113.550667 C243.438,110.696857 242.901905,107.850476 242.318762,105.018952 C241.148762,99.3645714 239.441429,93.86 237.344095,88.4841905 C235.672667,84.2065714 233.860095,79.9871429 231.585714,75.9831429 C230.21019,73.5577143 228.87181,71.11 227.394762,68.7539048 C224.934667,64.8266667 222.295048,61.0232381 219.282762,57.4884762 C217.555619,55.4604762 215.879238,53.3804762 214.06419,51.4354286 C211.19181,48.3637143 208.211714,45.3935238 204.948095,42.7415238 C202.15,40.4659048 199.359333,38.1667619 196.428762,36.0768571 C190.889524,32.1248571 185.046952,28.6767619 178.856476,25.8192381 C175.292,24.167619 171.674286,22.6608571 167.972381,21.3509524 C163.535048,19.7835238 159.006095,18.5219048 154.402857,17.5351429 C152.18419,17.0572381 149.951905,16.6375238 147.708476,16.3032381 C145.543048,15.9739048 143.364,15.7287619 141.18619,15.5455238 C137.947333,15.274381 134.706,15.0341905 131.463429,14.898 C129.827905,14.8249524 128.176286,15.0700952 126.537048,15.0651429 C123.784762,15.0577143 121.056,15.2471429 118.327238,15.5554286 C116.69419,15.7361905 115.05,15.8488571 113.428095,16.1088571 C110.959333,16.5062857 108.495524,16.9742857 106.044095,17.4682857 C101.812286,18.3126667 97.656,19.4665714 93.5727619,20.8433333 C90.6050476,21.8486667 87.7004762,23.0558095 84.7909524,24.2344762 C80.2681905,26.065619 75.9509524,28.326381 71.7587619,30.8038095 C67.431619,33.358 63.296381,36.1994286 59.3220952,39.2897143 C55.7167619,42.0902857 52.3107619,45.1013333 49.0731429,48.2906667 C46.7257143,50.5972381 44.603619,53.1291429 42.3985714,55.5768571 C39.636381,58.643619 37.2072381,61.9728571 34.8882857,65.3726667 C30.8273333,71.3217143 27.3458095,77.597619 24.4944762,84.2102857 C22.2139048,89.5204762 20.293619,94.9482857 18.837619,100.53581 C17.55,105.46219 16.4877143,110.431905 15.976381,115.510571 C15.6594286,118.619429 15.2050476,121.728286 15.1121905,124.849524 C14.9958095,128.728476 14.9673333,132.608667 15.2322857,136.503714 C15.457619,139.787143 15.7758095,143.052 16.2029524,146.306952 C16.6907619,149.996476 17.4224762,153.638952 18.2841905,157.251714 C19.4702857,162.217714 21.0290476,167.071048 22.8849524,171.825333 C24.5860952,176.184667 26.5435238,180.428857 28.7745714,184.539333 C31.0254286,188.679524 33.5288571,192.664952 36.2501905,196.519143 C39.1720952,200.658095 42.3812381,204.571714 45.8194286,208.281048 C49.907619,212.689905 54.3499048,216.726095 59.0769524,220.455238 C64.2422857,224.521143 69.7530476,228.05219 75.4841905,231.241524 C75.7417143,231.386381 76.076,231.4 76.3719048,231.474286 C76.5737143,231.652571 76.7482857,231.872952 76.9785714,232.000476 C78.142381,232.64181 79.2962857,233.309143 80.496,233.87 C82.4014286,234.766381 84.344,235.588476 86.2779048,236.431619 C89.9661905,238.046095 93.8018095,239.25819 97.643619,240.444286 C97.8751429,240.485143 98.1079048,240.511143 98.332,240.57181 C101.054571,241.258952 103.774667,241.965905 106.498476,242.650571 C107.17819,242.821429 107.870286,242.944 108.558667,243.05419 C110.710476,243.407048 112.862286,243.779714 115.021524,244.073143 C116.946762,244.333143 118.890571,244.502762 120.826952,244.710762 C121.531429,244.773905 122.229714,244.839524 122.925524,244.910095 Z" id="circle_ring_2_" fill="url(#linearGradient-4)" fill-rule="nonzero"></path>
            <g id="Group" transform="translate(130.000000, 23.523810)" fill-rule="nonzero" fill="#0A95B5">
                <polygon id="Shape" points="4.2887619 67.0119048 4.34695238 6.57428571 6.7067619 6.09142857 6.64980952 66.5278095"></polygon>
                <ellipse id="Oval" cx="5.31761905" cy="5.32133333" rx="5.16285714" ry="5.16285714"></ellipse>
            </g>
        </g>
    </g>
</svg>