<svg version="1.2" xmlns="http://www.w3.org/2000/svg" viewBox="0 0 271 60" width="271" height="60">
	<title>vf-logo-white-svg</title>
	<style>
		tspan { white-space:pre } 
		.s0 { fill: #ffffff } 
		.t1 { font-size: 50px;fill: #ffffff;font-weight: 700;font-family: "AkzidenzGroteskBQ-BdCnd", "Akzidenz-Grotesk BQ Condensed" } 
	</style>
	<g id="Page-1">
		<g id="vf-logo-white">
			<g id="Group">
				<path id="Shape" class="s0" d="m82.8 46.2h-6.8l-7.8-35.6h6.8l4.5 26.4h0.1l4.6-26.4h6.8z"/>
				<path id="Shape" fill-rule="evenodd" class="s0" d="m110.6 18.1v20.5c0 3.7-2.8 8.1-9.2 8.1-7 0-9.5-4.4-9.5-8.1v-20.5c0-3.7 2.5-7.9 9.5-7.9 6.4 0 9.2 4.2 9.2 7.9zm-6.4 0.1c0-1.1-1-3-2.8-3-2.2 0-3.2 1.9-3.2 2.9v20.4c0 1.2 1 3.1 3.2 3.1 1.8 0 2.8-2 2.8-3.1z"/>
				<path id="Shape" class="s0" d="m120.4 46.2h-6.4v-35.6h6.4z"/>
				<path id="Shape" class="s0" d="m136.3 21v-2.8c0-1.1-1-2.9-2.9-2.9-2.2 0-3.2 1.8-3.2 2.9v20.5c0 1.1 1 2.9 3.2 2.9 1.9 0 2.9-1.8 2.9-2.9v-2.8h6.4v2.8c0 3.6-2.9 8-9.3 8-7 0-9.6-4.4-9.6-8v-20.5c0-3.7 2.6-8 9.6-8 6.4 0 9.3 4.3 9.3 8v2.8h-6.4z"/>
				<path id="Shape" class="s0" d="m152.1 15.7v8.8h6.4v5h-6.4v11.6h9.7v5.1h-16.1v-35.6h15.4v5.1z"/>
			</g>
			<g id="Group">
				<path id="Shape" fill-rule="evenodd" class="s0" d="m30.2 0.8c16.2 0 29.4 13.2 29.4 29.5-0.1 16.1-13.1 29.4-29.5 29.3-16.3 0-29.4-13.2-29.3-29.5 0-16.3 13.3-29.3 29.4-29.3zm-7.3 54.6c0.5 0.2 1.1 0.3 1.6 0.4q0.1 0 0.3 0.1 1.3 0.2 2.6 0.4 0.8 0.1 1.5 0.1c0.3 0 0.5 0 0.7 0.1q0.1 0 0.3-0.1 0.1 0 0.2 0 0.8 0 1.7 0c0.3-0.1 0.7-0.1 1.1-0.1q1.3-0.1 2.5-0.4c0.2 0 0.5-0.1 0.8-0.2 0.4 0 0.7-0.2 1.1-0.3q2.2-0.6 4.3-1.6c0.1 0 0.2-0.1 0.2-0.1q0.1 0 0.1-0.1 0.9-0.4 1.6-0.8 0.9-0.6 1.8-1.2 1.1-0.8 2.2-1.7 0.8-0.7 1.4-1.4 0.5-0.5 0.9-1 0.5-0.5 1-1.1 0.6-0.8 1.1-1.6 0.8-1.1 1.4-2.3 0.6-1.1 1-2.1 0.6-1.5 1.1-3 0.2-0.8 0.4-1.7 0.2-0.8 0.3-1.7 0.1-0.4 0.1-0.9 0-0.4 0.1-0.8 0.1-0.8 0.1-1.6 0-0.8-0.1-1.6 0-1-0.1-2.1-0.1-0.8-0.3-1.6-0.3-1.7-0.8-3.3-0.4-1.3-1-2.6-0.8-1.7-1.8-3.3-0.7-1.1-1.5-2.1-0.6-0.8-1.3-1.5c-0.3-0.4-0.7-0.8-1.1-1.2-0.4-0.4-0.9-0.8-1.3-1.2q-0.9-0.8-1.9-1.4-2.1-1.5-4.4-2.6-1.1-0.4-2.2-0.8-1.7-0.6-3.6-0.9-1.2-0.3-2.4-0.4c-0.5-0.1-1.1-0.1-1.7-0.1-0.8-0.1-1.7 0-2.5 0q-0.1 0-0.1 0c-0.4 0.1-0.9 0.1-1.4 0.2q-0.8 0.1-1.6 0.2-1.2 0.3-2.5 0.7-2.1 0.6-4 1.5-1 0.5-1.9 1-1 0.6-2 1.3-0.8 0.6-1.6 1.2-0.6 0.6-1.2 1.1-0.9 0.9-1.8 1.9-0.5 0.6-1 1.3-1.3 1.6-2.2 3.4-0.7 1.2-1.2 2.4-0.7 1.6-1.1 3.4-0.3 1-0.4 2-0.2 0.8-0.3 1.6-0.1 0.8-0.1 1.6c0 1.1-0.1 2.1 0 3.1q0.1 0.9 0.2 1.7 0.1 0.8 0.2 1.6 0.2 1 0.5 2 0.4 1.4 0.9 2.7 0.5 1.4 1.3 2.7 0.5 1 1.1 1.9 0.8 1.2 1.7 2.4c0.6 0.6 1.1 1.2 1.7 1.8 0.1 0.2 0.3 0.3 0.4 0.4q0.4 0.4 0.8 0.7 0.7 0.7 1.5 1.3 1.1 0.8 2.3 1.5 0.7 0.5 1.4 0.9c0.2 0.1 0.4 0.2 0.7 0.2 0 0.2 0.2 0.2 0.3 0.2q1.2 0.6 2.4 1c0.5 0.2 1 0.4 1.5 0.5z"/>
				<g id="Shape">
					<path id="Layer" class="s0" d="m41.6 42.2q-0.2-0.3-0.5-0.6-8.2-8.2-16.4-16.4c-0.1-0.1-0.2-0.1-0.3 0q-2.1 2-4.1 4.1c-0.1 0.1-0.1 0.2 0 0.3 0.2 0.2 0.4 0.4 0.5 0.6 0.6 0.9 0.4 2.1-0.3 2.9q-0.7 0.7-1.5 1.5c-0.1 0.1-0.2 0.2-0.3 0.2-0.4 0.1-0.7 0.2-1 0.2-1.3 0.1-2.7 0.1-4-0.1q0 0-0.1 0l0.2 0.2q0.8 0.8 1.6 1.6c0.3 0.3 0.5 0.4 0.8 0.3 0.2-0.1 0.4-0.1 0.6-0.1 1.3 0 2.6 0.1 3.8 0.8q1.8 0.9 2.6 2.8c0.5 0.9 0.6 1.8 0.6 2.8 0 0.5 0 1-0.1 1.5 0 0.1 0 0.2 0.1 0.3 0.7 0.7 1.3 1.3 2 2-0.1-1.4-0.2-2.7-0.1-4.1 0.1-0.6 0.3-1.2 0.8-1.7 0.3-0.1 0.5-0.4 0.7-0.6q0-0.1 0.1-0.1 0.9-0.5 1.9-0.6c1.7-0.3 3.3-0.1 4.9 0.3q1.8 0.4 3.5 1c1.1 0.4 2.1 0.8 3.2 1.3 0.5 0.2 0.5 0.2 0.8-0.2 0.1 0 0.1-0.2 0-0.2z"/>
					<path id="Layer" class="s0" d="m22.5 44.5c0-0.5 0.1-1 0.1-1.5-0.2-1.8-0.9-3.2-2.5-4.1-0.9-0.6-2-0.8-3.1-0.7-0.8 0-1.4 0.2-1.8 0.8-0.2 0.2-0.4 0.4-0.5 0.6 2.9 1.4 5.1 3.5 6.5 6.5q0.6-0.6 1-1.1c0.2-0.1 0.3-0.3 0.3-0.5z"/>
					<path id="Layer" class="s0" d="m19.3 28.4c1.2-1.1 2.3-2.3 3.4-3.4-2.1-2.2-4.3-4.3-6.5-6.5-0.2 3.7 1.1 6.9 3.1 9.9z"/>
					<path id="Layer" class="s0" d="m14.5 37.5q-1.4-1.3-2.7-2.7-0.1 0-0.2-0.1l-1.2 1.2q1.5 1.5 2.9 2.9c0.2 0.1 0.2 0.1 0.3 0q0.5-0.4 0.9-0.9c0.2-0.1 0.2-0.2 0-0.4z"/>
					<path id="Layer" class="s0" d="m23.2 46.3q-0.1-0.1-0.2-0.2-0.5 0.5-1 1c-0.2 0.1-0.2 0.2 0 0.4q1.3 1.3 2.7 2.7c0.1 0.1 0.2 0.1 0.3 0q0.4-0.5 0.9-0.9c0.1-0.1 0.1-0.2 0-0.4q-1.4-1.3-2.7-2.6z"/>
					<path id="Layer" class="s0" d="m45.7 15.8c4.2 4.8 5.9 11.1 4.1 18.1-0.2 1-1 1.4-1.8 1.1-0.7-0.2-1-0.9-0.8-1.7 0.5-1.8 0.7-3.5 0.6-5.4-0.3-4.1-1.7-7.7-4.6-10.7-4.5-4.6-9.9-6.2-16.1-4.9-0.7 0.1-1.3 0-1.6-0.5-0.3-0.5-0.4-1.2 0-1.6 0.3-0.3 0.6-0.5 0.9-0.6q7.8-1.7 14.7 2.4c1.5 0.9 2.8 2 4.6 3.8z"/>
					<path id="Layer" class="s0" d="m40.7 19c3.7 3.9 5 8.4 3.8 13.7q-0.1 0.2-0.1 0.4c-0.3 0.8-1 1.2-1.7 1-0.8-0.3-1.1-1-0.9-1.8q0.4-1.6 0.4-3.4c-0.1-6.1-5.3-11.4-11.5-11.3-0.9 0-1.9 0.1-2.8 0.2-0.9 0.2-1.6-0.2-1.7-1-0.2-0.7 0.2-1.5 1.1-1.6 4.9-1 9.2 0.1 13 3.4q0.2 0.2 0.4 0.4z"/>
					<path id="Layer" class="s0" d="m37.4 23.4c1.6 1.8 2.3 4.3 1.6 7.3-0.2 0.8-0.9 1.3-1.7 1.1-0.8-0.2-1.2-0.9-1-1.8 1-3.9-2.3-7.4-6.3-6.6-0.8 0.2-1.4-0.1-1.7-0.8-0.2-0.6 0-1.3 0.6-1.6q0.2-0.2 0.6-0.3c2.6-0.6 5.4 0.3 7.9 2.7z"/>
				</g>
			</g>
		</g>
	</g>
	<text id="HUB" style="transform: matrix(1,0,0,1,170.09,46)" >
		<tspan x="0" y="0" class="t1">H</tspan><tspan  y="0" class="t1">U</tspan><tspan  y="0" class="t1">B
</tspan>
	</text>
</svg>