<svg version="1.2" xmlns="http://www.w3.org/2000/svg" viewBox="0 0 375 386" width="375" height="386">
	<title>vf-stacked-logo-white-svg</title>
	<defs>
		<linearGradient id="g1" x2="1" gradientUnits="userSpaceOnUse" gradientTransform="matrix(257.393,0,0,257.393,70.501,134.14)">
			<stop offset="0" stop-color="#c4e4ff"/>
			<stop offset=".393" stop-color="#ffffff"/>
			<stop offset=".618" stop-color="#faf9f9"/>
			<stop offset=".922" stop-color="#ece8e8"/>
			<stop offset="1" stop-color="#e8e2e3"/>
		</linearGradient>
		<linearGradient id="g2" x2="1" gradientUnits="userSpaceOnUse" gradientTransform="matrix(269.05,0,0,269.022,62.443,134.567)">
			<stop offset="0" stop-color="#c021f1"/>
			<stop offset=".204" stop-color="#d536e6"/>
			<stop offset=".494" stop-color="#ec4cdb"/>
			<stop offset=".766" stop-color="#fa5ad3"/>
			<stop offset="1" stop-color="#ff5fd1"/>
		</linearGradient>
		<linearGradient id="g3" x2="1" gradientUnits="userSpaceOnUse" gradientTransform="matrix(128.157,0,0,100.748,121.361,161.636)">
			<stop offset="0" stop-color="#c021f1"/>
			<stop offset=".204" stop-color="#d536e6"/>
			<stop offset=".494" stop-color="#ec4cdb"/>
			<stop offset=".766" stop-color="#fa5ad3"/>
			<stop offset="1" stop-color="#ff5fd1"/>
		</linearGradient>
		<linearGradient id="g4" x2="1" gradientUnits="userSpaceOnUse" gradientTransform="matrix(36.252,0,0,36.263,126.001,189.031)">
			<stop offset="0" stop-color="#c021f1"/>
			<stop offset=".204" stop-color="#d536e6"/>
			<stop offset=".494" stop-color="#ec4cdb"/>
			<stop offset=".766" stop-color="#fa5ad3"/>
			<stop offset="1" stop-color="#ff5fd1"/>
		</linearGradient>
		<linearGradient id="g5" x2="1" gradientUnits="userSpaceOnUse" gradientTransform="matrix(29.985,0,0,45.643,133.066,103.585)">
			<stop offset="0" stop-color="#c021f1"/>
			<stop offset=".204" stop-color="#d536e6"/>
			<stop offset=".494" stop-color="#ec4cdb"/>
			<stop offset=".766" stop-color="#fa5ad3"/>
			<stop offset="1" stop-color="#ff5fd1"/>
		</linearGradient>
		<linearGradient id="g6" x2="1" gradientUnits="userSpaceOnUse" gradientTransform="matrix(19.23,0,0,19.258,106.635,164.66)">
			<stop offset="0" stop-color="#c021f1"/>
			<stop offset=".204" stop-color="#d536e6"/>
			<stop offset=".494" stop-color="#ec4cdb"/>
			<stop offset=".766" stop-color="#fa5ad3"/>
			<stop offset="1" stop-color="#ff5fd1"/>
		</linearGradient>
		<linearGradient id="g7" x2="1" gradientUnits="userSpaceOnUse" gradientTransform="matrix(18.857,0,0,19.103,159.09,216.746)">
			<stop offset="0" stop-color="#c021f1"/>
			<stop offset=".204" stop-color="#d536e6"/>
			<stop offset=".494" stop-color="#ec4cdb"/>
			<stop offset=".766" stop-color="#fa5ad3"/>
			<stop offset="1" stop-color="#ff5fd1"/>
		</linearGradient>
		<linearGradient id="g8" x2="1" gradientUnits="userSpaceOnUse" gradientTransform="matrix(115.655,0,0,118.915,174.477,97.514)">
			<stop offset="0" stop-color="#c021f1"/>
			<stop offset=".204" stop-color="#d536e6"/>
			<stop offset=".494" stop-color="#ec4cdb"/>
			<stop offset=".766" stop-color="#fa5ad3"/>
			<stop offset="1" stop-color="#ff5fd1"/>
		</linearGradient>
		<linearGradient id="g9" x2="1" gradientUnits="userSpaceOnUse" gradientTransform="matrix(85.974,0,0,88.304,178.476,108.241)">
			<stop offset="0" stop-color="#c021f1"/>
			<stop offset=".204" stop-color="#d536e6"/>
			<stop offset=".494" stop-color="#ec4cdb"/>
			<stop offset=".766" stop-color="#fa5ad3"/>
			<stop offset="1" stop-color="#ff5fd1"/>
		</linearGradient>
		<linearGradient id="g10" x2="1" gradientUnits="userSpaceOnUse" gradientTransform="matrix(50.422,0,0,51.621,188.14,116.203)">
			<stop offset="0" stop-color="#c021f1"/>
			<stop offset=".204" stop-color="#d536e6"/>
			<stop offset=".494" stop-color="#ec4cdb"/>
			<stop offset=".766" stop-color="#fa5ad3"/>
			<stop offset="1" stop-color="#ff5fd1"/>
		</linearGradient>
	</defs>
	<style>
		tspan { white-space:pre } 
		.s0 { fill: #ffffff } 
		.s1 { fill: url(#g1) } 
		.s2 { fill: url(#g2) } 
		.s3 { fill: url(#g3) } 
		.s4 { fill: url(#g4) } 
		.s5 { fill: url(#g5) } 
		.s6 { fill: url(#g6) } 
		.s7 { fill: url(#g7) } 
		.s8 { fill: url(#g8) } 
		.s9 { fill: url(#g9) } 
		.s10 { fill: url(#g10) } 
		.t11 { font-size: 80px;fill: #ffffff;font-weight: 700;font-family: "AkzidenzGroteskBQ-BdCnd", "Akzidenz-Grotesk BQ Condensed" } 
	</style>
	<g id="Page-1">
		<g id="vf-stacked-logo-white">
			<g id="Group">
				<path id="Shape" class="s0" d="m27.3 384.8h-12.5l-14.5-65.7h12.6l8.3 48.6h0.2l8.6-48.6h12.4z"/>
				<path id="Shape" fill-rule="evenodd" class="s0" d="m78.7 332.9v37.9c0 6.7-5.3 14.8-17 14.8-13 0-17.6-8.1-17.6-14.8v-37.9c0-6.8 4.6-14.7 17.6-14.7 11.7 0 17 7.9 17 14.7zm-11.8 0.1c0-2-1.8-5.6-5.2-5.6-4.2 0-5.8 3.6-5.8 5.4v37.8c0 2.2 1.6 5.6 5.8 5.6 3.4 0 5.2-3.6 5.2-5.6z"/>
				<path id="Shape" class="s0" d="m96.7 384.8h-11.7v-65.7h11.7z"/>
				<path id="Shape" class="s0" d="m126.2 338.1v-5.1c0-2-2-5.4-5.4-5.4-4.1 0-5.9 3.4-5.9 5.4v37.9c0 1.9 1.8 5.3 5.9 5.3 3.4 0 5.4-3.4 5.4-5.3v-5.2h11.8v5.2c0 6.6-5.4 14.7-17.2 14.7-12.9 0-17.8-8.1-17.8-14.6v-38c0-6.7 4.9-14.8 17.8-14.8 11.8 0 17.2 8.1 17.2 14.8v5.1z"/>
				<path id="Shape" class="s0" d="m155.3 328.4v16.2h11.9v9.4h-11.9v21.4h17.9v9.4h-29.7v-65.7h28.4v9.3h-16.6z"/>
			</g>
			<g id="Group">
				<path id="Oval" class="s1" d="m199.2 262.8c-71.2 0-128.7-57.5-128.7-128.7 0-71.1 57.5-128.7 128.7-128.7 71.2 0 128.7 57.6 128.7 128.7 0 71.2-57.5 128.7-128.7 128.7z"/>
				<path id="Shape" fill-rule="evenodd" class="s2" d="m197.1 0.1c74.2-0.1 134.5 60.4 134.4 134.6-0.1 73.7-59.8 134.6-134.9 134.4-74.3-0.2-134.4-60.4-134.2-134.9 0.3-74.8 61.1-134.3 134.7-134.1zm-33.4 249.6c2.4 0.9 4.9 1.4 7.4 2q0.6 0.1 1.2 0.2c3.9 0.9 7.9 1.5 11.9 1.9 2.4 0.3 4.8 0.4 7.1 0.5 1.1 0.1 2.1-0.1 3.1 0.3 0.3 0.2 0.8 0.1 1.2 0q0.4-0.2 0.9-0.2c2.6 0 5.2 0 7.7-0.2 1.8-0.2 3.6-0.2 5.4-0.4q5.7-0.5 11.3-1.7c1.2-0.2 2.4-0.3 3.5-0.9 1.8-0.2 3.5-0.8 5.3-1.3q10.2-2.8 19.7-7.5c0.3-0.1 0.7-0.2 0.9-0.6 0.1 0 0.3 0 0.4-0.1 2.6-1.2 5.1-2.6 7.5-4 2.7-1.6 5.4-3.4 8-5.2 3.5-2.5 6.9-5.2 10.2-8.1 2.2-1.9 4.4-4 6.4-6.2 1.4-1.4 2.8-2.8 4.1-4.3q2.4-2.7 4.6-5.5c1.7-2.3 3.4-4.5 5-6.9q3.4-5.3 6.5-10.9 2.5-4.6 4.5-9.5 2.8-6.6 4.8-13.5c0.7-2.6 1.4-5.3 1.9-8q0.8-3.7 1.4-7.5 0.4-2.2 0.6-4.4 0.1-1.9 0.3-3.8 0.3-3.6 0.4-7.2 0.1-3.6-0.2-7.2c-0.2-3.2-0.4-6.3-0.7-9.5q-0.4-3.7-1.1-7.5c-1-5.1-2.3-10.2-3.9-15.2q-2-5.9-4.5-11.6c-2.4-5.2-5-10.3-8.1-15.1-2.2-3.4-4.5-6.7-7-9.9-1.9-2.4-3.8-4.7-5.8-6.9-1.7-1.8-3.4-3.7-5.2-5.4-2.1-1.8-4-3.7-6-5.4-2.7-2.3-5.5-4.5-8.4-6.5-6.5-4.5-13.2-8.4-20.4-11.6-3.3-1.4-6.6-2.8-10-3.9-5.4-1.8-10.8-3.2-16.3-4.3-3.7-0.6-7.4-1.1-11.1-1.6-2.6-0.3-5.2-0.3-7.7-0.5-4-0.2-7.9 0.2-11.8 0.3q-0.1 0-0.2 0c-2.1 0.4-4.2 0.4-6.2 0.6q-3.7 0.5-7.4 1.2-5.9 1.1-11.6 2.8-9.5 2.8-18.4 7c-3 1.4-5.8 3-8.7 4.7-3.1 1.8-6.1 3.7-9 5.8q-3.8 2.7-7.3 5.7c-1.9 1.6-3.8 3.3-5.6 5-2.8 2.7-5.5 5.5-8.1 8.5-1.6 1.9-3.3 3.9-4.8 5.9q-5.7 7.5-10.1 15.7c-1.9 3.5-3.6 7.1-5.2 10.8-2.1 5.1-3.8 10.4-5.2 15.7q-1.2 4.4-2 9-0.6 3.8-1.1 7.7c-0.3 2.4-0.6 4.9-0.6 7.3-0.1 4.7-0.3 9.4 0.1 14.1 0.3 2.6 0.5 5.2 0.8 7.8q0.4 3.6 1.1 7.2c0.6 3 1.3 6.1 2.1 9 1.2 4.3 2.5 8.4 4.2 12.5 1.7 4.2 3.6 8.4 5.8 12.4 1.6 2.9 3.3 5.8 5.1 8.6 2.5 3.8 5.2 7.4 8 10.9 2.4 2.9 5.1 5.6 7.6 8.5 0.6 0.7 1.4 1.2 2.1 1.8 1.1 1.1 2.2 2.2 3.3 3.2 2.3 2 4.7 4 7.2 5.9q5 3.7 10.3 7c2.1 1.3 4.3 2.5 6.5 3.7 0.9 0.5 1.8 1.1 2.9 1.2 0.4 0.6 1.1 0.7 1.7 1q5.3 2.6 10.9 4.5c2.3 0.8 4.5 1.6 6.8 2.1z"/>
				<g id="Shape">
					<path id="Layer" class="s3" d="m249.4 189.3c-0.8-0.9-1.7-1.7-2.5-2.5q-37.6-37.5-75-75.1c-0.6-0.5-0.9-0.6-1.5 0q-9.3 9.3-18.6 18.6c-0.5 0.5-0.5 0.8 0 1.3 0.9 0.9 1.8 1.9 2.5 3 2.6 4.1 1.9 9.7-1.6 13.2-2.2 2.2-4.5 4.5-6.8 6.7-0.4 0.5-1 0.9-1.6 1.1-1.5 0.4-3 0.8-4.5 0.9-6 0.5-12 0.5-18-0.5-0.1 0-0.2 0.1-0.4 0.2l0.8 0.8c2.4 2.4 5 4.9 7.3 7.4 1.1 1.1 2.1 1.7 3.6 1.2 0.9-0.3 1.9-0.3 2.8-0.3 6.1-0.4 11.8 0.5 17.2 3.4 5.5 2.9 9.5 7.2 12.2 12.8 1.9 4 2.7 8.4 2.7 12.9 0 2.3-0.3 4.6-0.4 7-0.1 0.4 0 0.9 0.2 1.2 3 3.1 6.1 6.1 9.4 9.4-0.8-6.5-1-12.6-0.4-18.8 0.3-2.9 0.9-5.8 3.5-7.7 1.1-0.8 2-1.9 2.9-2.9 0.3-0.2 0.5-0.4 0.8-0.6 2.7-1.4 5.7-2.3 8.7-2.7 7.5-1.3 14.9-0.3 22.2 1.4 5.5 1.4 10.9 2.9 16.2 4.7 4.9 1.6 9.6 3.6 14.4 5.6 2.4 1 2.4 1.2 3.9-0.5 0.2-0.3 0.2-1 0-1.2z"/>
					<path id="Layer" class="s4" d="m161.9 200.1c0.2-2.4 0.5-4.8 0.3-7.2-0.5-8.1-3.9-14.6-11.1-18.8-4.4-2.6-9.3-3.2-14.5-3.2-3.4 0-6 1.1-8.1 3.8-0.7 0.9-1.6 1.7-2.5 2.6 13.4 6.6 23.4 16.4 29.9 29.9 1.7-1.7 3.4-3.3 4.9-4.9 0.5-0.6 1-1.5 1.1-2.2z"/>
					<path id="Layer" class="s5" d="m147.3 126.4c5.4-5.4 10.5-10.5 15.8-15.8-9.9-9.9-19.8-19.7-29.9-29.8-1 17.1 4.9 31.8 14.1 45.6z"/>
					<path id="Layer" class="s6" d="m125.3 168.1c-4.1-4.1-8.2-8.2-12.3-12.3q-0.4-0.4-0.9-0.8l-5.5 5.5c4.6 4.6 9 9 13.4 13.4 0.5 0.5 0.9 0.5 1.3 0 1.3-1.3 2.6-2.7 4-4 0.8-0.7 0.7-1.1 0-1.8z"/>
					<path id="Layer" class="s7" d="m165.2 208c-0.3-0.3-0.6-0.5-0.9-0.8-1.6 1.6-3.1 3.2-4.7 4.6-0.7 0.6-0.7 1 0 1.7q6.2 6.1 12.4 12.4c0.6 0.6 0.9 0.5 1.5-0.1 1.2-1.3 2.5-2.7 3.9-3.9 0.7-0.7 0.7-1 0-1.7-4.1-4.1-8.2-8.2-12.2-12.2z"/>
					<path id="Layer" class="s8" d="m267.9 68.5c19.6 22.2 27.1 50.7 19 83.1-1 4.2-4.6 6.3-8.3 5-3.2-1.1-4.8-4.4-3.8-7.9 2.2-8.1 3.2-16.2 2.7-24.5-1-19-7.7-35.6-21-49.3-20.3-20.9-45-28.1-73.5-22.4-3.3 0.7-5.9-0.1-7.4-2.4-1.5-2.2-1.6-5.1 0.2-7.2 1-1.1 2.6-2.1 4.1-2.4 23.8-5.4 46.2-1.8 67.2 10.7 6.8 4 12.8 9 20.8 17.3z"/>
					<path id="Layer" class="s9" d="m245.2 83.3c16.7 17.8 22.7 38.6 17.3 62.6q-0.2 0.9-0.5 1.7c-1.1 3.6-4.4 5.5-7.8 4.5-3.3-1-5.1-4.3-4.2-7.8 1.4-5.1 2-10.3 2-15.6-0.3-28.2-24.3-52.2-52.5-52.1-4.3 0.1-8.7 0.7-12.9 1.4-4 0.6-7.1-1.1-8-4.7-0.8-3.5 1.4-6.8 5.2-7.6 22.4-4.6 42.3 0.5 59.4 15.8q1 0.9 2 1.8z"/>
					<path id="Layer" class="s10" d="m229.9 103.5c7.3 7.9 10.7 19.7 7.4 33.3-0.9 3.8-4.2 5.9-7.6 5-3.6-0.9-5.4-4.2-4.5-8.2 4.5-18-10.7-33.8-29-30.1-3.5 0.7-6.3-0.7-7.6-3.6-1.1-2.8-0.2-6 2.5-7.6 0.7-0.5 1.7-0.8 2.6-1 12.2-2.8 25 1 36.2 12.2z"/>
				</g>
			</g>
		</g>
		<text id="HUB" style="transform: matrix(1.132,0,0,1.132,207.373,383.737)" >
			<tspan x="0" y="0" class="t11">H</tspan><tspan  y="0" class="t11">U</tspan><tspan  y="0" class="t11">B
</tspan>
		</text>
	</g>
</svg>